;Layer: Drill PTH
;EasyEDA v6.3.22, 2020-01-15T10:35:35+08:00
;b15c4467bd8642d682841cabbe2267cb,0c247ba4ff554f47bef9fd8dabc8c001,10
;Gerber Generator version 0.2
M48
METRIC,LZ,000.000
;Holesize 1 = 0.305 METRIC
T01C0.305
;Holesize 2 = 0.889 METRIC
T02C0.889
;Holesize 3 = 1.000 METRIC
T03C1.000
%
G05
G90
T01
X+082677Y+047836
X+073279Y+052477
X+071374Y+038692
X+075184Y+000973
X+062484Y+032596
X+062484Y+003132
X+016383Y+027516
X+014605Y+012149
X+011430Y+031580
X+023876Y+021039
X+008763Y+022436
X+044196Y+032850
X+025527Y+043137
X+025273Y+040724
T02
X+032258Y+048598
X+029718Y+048598
X+027178Y+048598
X+024638Y+048598
X+022098Y+048598
X+019558Y+048598
X+017018Y+048598
X+014478Y+048598
X+011938Y+048598
X+009398Y+048598
X+006858Y+048598
X+004318Y+048598
X+032385Y+033104
X+029845Y+033104
X+027305Y+033104
X+024765Y+033104
X+022225Y+033104
X+019685Y+033104
X+017145Y+033104
X+014605Y+033104
X+012065Y+033104
X+009525Y+033104
X+006985Y+033104
X+004445Y+033104
T03
X+047467Y+046439
X+049467Y+046439
X+051467Y+046439
X+053467Y+046439
X+055466Y+046439
X+057466Y+046439
X+059466Y+046439
M30
