G04 Layer: TopLayer*
G04 EasyEDA v6.3.22, 2020-01-15T10:35:35+08:00*
G04 b15c4467bd8642d682841cabbe2267cb,0c247ba4ff554f47bef9fd8dabc8c001,10*
G04 Gerber Generator version 0.2*
G04 Scale: 100 percent, Rotated: No, Reflected: No *
G04 Dimensions in millimeters *
G04 leading zeros omitted , absolute positions ,3 integer and 3 decimal *
%FSLAX33Y33*%
%MOMM*%
G90*
G71D02*

%ADD10C,0.254000*%
%ADD11C,0.609600*%
%ADD12R,0.899998X1.399997*%
%ADD13C,1.499997*%
%ADD15C,1.574800*%

%LPD*%
G54D10*
G01X19281Y24314D02*
G01X19281Y28383D01*
G01X6985Y28405D01*
G01X6985Y33104D01*
G01X19281Y28238D02*
G01X27051Y28238D01*
G01X26901Y16948D01*
G01X68047Y9962D02*
G01X68047Y16685D01*
G01X67691Y16947D01*
G01X26899Y16947D01*
G01X68049Y16686D02*
G01X82677Y16686D01*
G01X82677Y44966D01*
G01X82677Y47836D01*
G01X9525Y33104D02*
G01X9525Y30056D01*
G01X73406Y30056D01*
G01X73279Y52477D01*
G01X73279Y52477D02*
G01X73279Y52477D01*
G01X29718Y48598D02*
G01X29718Y46361D01*
G01X29718Y38692D01*
G01X71374Y38692D01*
G01X75184Y973D02*
G01X75184Y1969D01*
G01X75184Y3011D01*
G01X75333Y3160D01*
G01X9398Y48598D02*
G01X9398Y44915D01*
G01X1016Y44915D01*
G01X1016Y7196D01*
G01X11557Y7196D01*
G01X11786Y7426D01*
G01X11786Y10019D01*
G01X19406Y2526D02*
G01X19406Y973D01*
G01X19304Y846D01*
G01X11786Y846D01*
G01X11786Y10019D01*
G01X19406Y949D02*
G01X73025Y949D01*
G01X73025Y12657D01*
G01X80264Y12657D01*
G01X80264Y3132D01*
G01X80235Y3161D01*
G01X78334Y3161D01*
G01X27178Y48598D02*
G01X27178Y37549D01*
G01X62484Y37549D01*
G01X62484Y32596D01*
G01X62484Y3132D02*
G01X63850Y3148D01*
G01X65046Y3160D01*
G01X16383Y27516D02*
G01X16383Y24415D01*
G01X16280Y24313D01*
G01X14605Y12149D02*
G01X16405Y9328D01*
G01X17145Y33104D02*
G01X17145Y31580D01*
G01X11430Y31580D01*
G01X8763Y22436D02*
G01X8763Y16847D01*
G01X8787Y16823D01*
G01X19685Y33104D02*
G01X19685Y35390D01*
G01X44196Y35263D01*
G01X44196Y32850D01*
G01X23876Y21039D02*
G01X23876Y16971D01*
G01X23900Y16947D01*
G01X6985Y33104D02*
G01X6985Y43137D01*
G01X22522Y43137D01*
G01X25527Y43137D01*
G01X25273Y40724D02*
G01X12192Y40724D01*
G01X12192Y33231D01*
G01X12065Y33104D01*
G01X55466Y46439D02*
G01X55466Y51011D01*
G01X24638Y51011D01*
G01X24638Y48598D01*
G01X14478Y48598D02*
G01X14478Y52789D01*
G01X59563Y52789D01*
G01X59563Y46536D01*
G01X59466Y46439D01*
G54D12*
G01X75335Y3161D03*
G01X75335Y9962D03*
G01X78334Y3161D03*
G01X78334Y9962D03*
G01X65048Y3161D03*
G01X65048Y9962D03*
G01X68047Y3161D03*
G01X68047Y9962D03*
G01X16280Y17512D03*
G01X16280Y24313D03*
G01X19279Y17512D03*
G01X19279Y24313D03*
G01X8787Y10019D03*
G01X8787Y16820D03*
G01X11786Y10019D03*
G01X11786Y16820D03*
G01X23900Y10146D03*
G01X23900Y16947D03*
G01X26899Y10146D03*
G01X26899Y16947D03*
G01X16407Y2526D03*
G01X16407Y9327D03*
G01X19406Y2526D03*
G01X19406Y9327D03*
G54D13*
G01X47467Y46439D03*
G01X49467Y46439D03*
G01X51467Y46439D03*
G01X53467Y46439D03*
G01X55466Y46439D03*
G01X57466Y46439D03*
G01X59466Y46439D03*
G36*
G01X33045Y49386D02*
G01X31470Y49386D01*
G01X31470Y47811D01*
G01X33045Y47811D01*
G01X33045Y49386D01*
G37*
G54D15*
G01X29718Y48598D03*
G01X27178Y48598D03*
G01X24638Y48598D03*
G01X22098Y48598D03*
G01X19558Y48598D03*
G01X17018Y48598D03*
G01X14478Y48598D03*
G01X11938Y48598D03*
G01X9398Y48598D03*
G01X6858Y48598D03*
G01X4318Y48598D03*
G36*
G01X33172Y33892D02*
G01X31597Y33892D01*
G01X31597Y32317D01*
G01X33172Y32317D01*
G01X33172Y33892D01*
G37*
G01X29845Y33104D03*
G01X27305Y33104D03*
G01X24765Y33104D03*
G01X22225Y33104D03*
G01X19685Y33104D03*
G01X17145Y33104D03*
G01X14605Y33104D03*
G01X12065Y33104D03*
G01X9525Y33104D03*
G01X6985Y33104D03*
G01X4445Y33104D03*
G54D11*
G01X82677Y47836D03*
G01X73279Y52477D03*
G01X71374Y38692D03*
G01X75184Y973D03*
G01X62484Y32596D03*
G01X62484Y3132D03*
G01X16383Y27516D03*
G01X14605Y12149D03*
G01X11430Y31580D03*
G01X23876Y21039D03*
G01X8763Y22436D03*
G01X44196Y32850D03*
G01X25527Y43137D03*
G01X25273Y40724D03*
M00*
M02*
