G04 Layer: BottomSolderMaskLayer*
G04 EasyEDA v6.3.22, 2020-01-15T10:35:35+08:00*
G04 b15c4467bd8642d682841cabbe2267cb,0c247ba4ff554f47bef9fd8dabc8c001,10*
G04 Gerber Generator version 0.2*
G04 Scale: 100 percent, Rotated: No, Reflected: No *
G04 Dimensions in millimeters *
G04 leading zeros omitted , absolute positions ,3 integer and 3 decimal *
%FSLAX33Y33*%
%MOMM*%
G90*
G71D02*

%ADD21C,1.703197*%
%ADD23C,1.778000*%

%LPD*%

%LPD*%
G36*
G01X59436Y53758D02*
G01X59380Y53767D01*
G01X59324Y53758D01*
G01X59279Y53730D01*
G01X59249Y53688D01*
G01X59237Y53633D01*
G01X59249Y53577D01*
G01X59279Y53532D01*
G01X59324Y53503D01*
G01X59380Y53493D01*
G01X59436Y53503D01*
G01X59481Y53532D01*
G01X59511Y53577D01*
G01X59522Y53633D01*
G01X59511Y53688D01*
G01X59481Y53730D01*
G01X59436Y53758D01*
G37*

%LPD*%
G36*
G01X62475Y53237D02*
G01X62417Y53249D01*
G01X62357Y53237D01*
G01X62309Y53204D01*
G01X62277Y53155D01*
G01X62265Y53094D01*
G01X62277Y53038D01*
G01X62309Y52991D01*
G01X62357Y52959D01*
G01X62417Y52947D01*
G01X62475Y52959D01*
G01X62523Y52991D01*
G01X62555Y53038D01*
G01X62567Y53094D01*
G01X62555Y53155D01*
G01X62523Y53204D01*
G01X62475Y53237D01*
G37*

%LPD*%
G36*
G01X45786Y52779D02*
G01X45267Y52779D01*
G01X45267Y52647D01*
G01X45786Y52647D01*
G01X45786Y52779D01*
G37*

%LPD*%
G36*
G01X42684Y53643D02*
G01X42179Y53643D01*
G01X42179Y53567D01*
G01X42372Y53541D01*
G01X42758Y52744D01*
G01X42758Y52545D01*
G01X42757Y52484D01*
G01X42757Y52368D01*
G01X42756Y52311D01*
G01X42755Y52256D01*
G01X42524Y52231D01*
G01X42524Y52154D01*
G01X43195Y52154D01*
G01X43195Y52231D01*
G01X42964Y52256D01*
G01X42962Y52364D01*
G01X42962Y52478D01*
G01X42961Y52538D01*
G01X42961Y52736D01*
G01X43360Y53549D01*
G01X43530Y53567D01*
G01X43530Y53643D01*
G01X42910Y53643D01*
G01X42910Y53567D01*
G01X43129Y53544D01*
G01X42804Y52843D01*
G01X42473Y53541D01*
G01X42684Y53567D01*
G01X42684Y53643D01*
G37*

%LPD*%
G36*
G01X47353Y53643D02*
G01X46705Y53643D01*
G01X46642Y53641D01*
G01X46580Y53635D01*
G01X46521Y53625D01*
G01X46464Y53611D01*
G01X46410Y53594D01*
G01X46358Y53573D01*
G01X46309Y53548D01*
G01X46264Y53519D01*
G01X46221Y53487D01*
G01X46181Y53451D01*
G01X46145Y53411D01*
G01X46112Y53368D01*
G01X46082Y53321D01*
G01X46056Y53271D01*
G01X46033Y53218D01*
G01X46015Y53160D01*
G01X46000Y53100D01*
G01X45990Y53036D01*
G01X45983Y52969D01*
G01X45981Y52899D01*
G01X45984Y52829D01*
G01X45991Y52762D01*
G01X46002Y52698D01*
G01X46018Y52638D01*
G01X46039Y52581D01*
G01X46063Y52527D01*
G01X46091Y52477D01*
G01X46123Y52430D01*
G01X46158Y52387D01*
G01X46198Y52348D01*
G01X46240Y52311D01*
G01X46285Y52279D01*
G01X46334Y52250D01*
G01X46385Y52225D01*
G01X46440Y52204D01*
G01X46496Y52186D01*
G01X46556Y52172D01*
G01X46617Y52163D01*
G01X46680Y52157D01*
G01X46746Y52154D01*
G01X47353Y52154D01*
G01X47353Y52231D01*
G01X47147Y52254D01*
G01X47144Y52401D01*
G01X47143Y52476D01*
G01X47142Y52552D01*
G01X47142Y53249D01*
G01X47144Y53397D01*
G01X47147Y53544D01*
G01X47353Y53567D01*
G01X47353Y53643D01*
G37*

%LPC*%
G36*
G01X46934Y53557D02*
G01X46741Y53557D01*
G01X46680Y53554D01*
G01X46622Y53546D01*
G01X46567Y53533D01*
G01X46517Y53514D01*
G01X46469Y53491D01*
G01X46426Y53462D01*
G01X46387Y53428D01*
G01X46351Y53388D01*
G01X46319Y53345D01*
G01X46291Y53295D01*
G01X46267Y53242D01*
G01X46248Y53183D01*
G01X46232Y53119D01*
G01X46221Y53050D01*
G01X46214Y52977D01*
G01X46212Y52899D01*
G01X46214Y52823D01*
G01X46221Y52752D01*
G01X46233Y52684D01*
G01X46248Y52622D01*
G01X46268Y52563D01*
G01X46292Y52510D01*
G01X46320Y52460D01*
G01X46353Y52416D01*
G01X46390Y52376D01*
G01X46431Y52341D01*
G01X46476Y52312D01*
G01X46525Y52288D01*
G01X46578Y52268D01*
G01X46635Y52255D01*
G01X46696Y52246D01*
G01X46761Y52243D01*
G01X46934Y52243D01*
G01X46935Y52319D01*
G01X46937Y52395D01*
G01X46938Y52471D01*
G01X46938Y52627D01*
G01X46939Y52708D01*
G01X46939Y53104D01*
G01X46938Y53180D01*
G01X46938Y53332D01*
G01X46937Y53407D01*
G01X46934Y53557D01*
G37*

%LPD*%
G36*
G01X48694Y53643D02*
G01X47591Y53643D01*
G01X47579Y53252D01*
G01X47688Y53252D01*
G01X47746Y53546D01*
G01X48275Y53546D01*
G01X48278Y53401D01*
G01X48279Y53328D01*
G01X48279Y53181D01*
G01X48280Y53106D01*
G01X48280Y52957D01*
G01X47945Y52957D01*
G01X47912Y53176D01*
G01X47820Y53176D01*
G01X47820Y52652D01*
G01X47912Y52652D01*
G01X47942Y52868D01*
G01X48280Y52868D01*
G01X48280Y52706D01*
G01X48279Y52628D01*
G01X48279Y52475D01*
G01X48278Y52400D01*
G01X48276Y52325D01*
G01X48275Y52251D01*
G01X47706Y52251D01*
G01X47645Y52551D01*
G01X47536Y52551D01*
G01X47548Y52154D01*
G01X48694Y52154D01*
G01X48694Y52231D01*
G01X48488Y52254D01*
G01X48487Y52327D01*
G01X48485Y52400D01*
G01X48484Y52474D01*
G01X48484Y52621D01*
G01X48483Y52694D01*
G01X48483Y53102D01*
G01X48484Y53176D01*
G01X48484Y53323D01*
G01X48485Y53397D01*
G01X48487Y53471D01*
G01X48488Y53544D01*
G01X48694Y53567D01*
G01X48694Y53643D01*
G37*

%LPD*%
G36*
G01X50091Y53236D02*
G01X50038Y53239D01*
G01X49973Y53233D01*
G01X49917Y53217D01*
G01X49868Y53189D01*
G01X49828Y53149D01*
G01X49796Y53096D01*
G01X49772Y53029D01*
G01X49758Y52948D01*
G01X49753Y52853D01*
G01X49753Y52534D01*
G01X49751Y52437D01*
G01X49750Y52339D01*
G01X49748Y52248D01*
G01X49593Y52223D01*
G01X49593Y52154D01*
G01X50104Y52154D01*
G01X50104Y52223D01*
G01X49938Y52248D01*
G01X49936Y52339D01*
G01X49935Y52437D01*
G01X49934Y52534D01*
G01X49933Y52622D01*
G01X49933Y52830D01*
G01X49936Y52901D01*
G01X49945Y52960D01*
G01X49959Y53006D01*
G01X49979Y53041D01*
G01X50005Y53067D01*
G01X50038Y53085D01*
G01X50076Y53094D01*
G01X50121Y53097D01*
G01X50192Y53089D01*
G01X50264Y53063D01*
G01X50341Y53018D01*
G01X50426Y52950D01*
G01X50423Y52923D01*
G01X50421Y52895D01*
G01X50419Y52866D01*
G01X50419Y52534D01*
G01X50418Y52437D01*
G01X50416Y52339D01*
G01X50413Y52248D01*
G01X50261Y52223D01*
G01X50261Y52154D01*
G01X50774Y52154D01*
G01X50774Y52223D01*
G01X50604Y52248D01*
G01X50602Y52339D01*
G01X50602Y52437D01*
G01X50601Y52534D01*
G01X50601Y52828D01*
G01X50604Y52898D01*
G01X50612Y52956D01*
G01X50626Y53002D01*
G01X50645Y53038D01*
G01X50670Y53065D01*
G01X50702Y53083D01*
G01X50740Y53094D01*
G01X50784Y53097D01*
G01X50858Y53089D01*
G01X50931Y53062D01*
G01X51005Y53018D01*
G01X51087Y52952D01*
G01X51087Y52622D01*
G01X51086Y52535D01*
G01X51085Y52439D01*
G01X51083Y52340D01*
G01X51081Y52248D01*
G01X50927Y52223D01*
G01X50927Y52154D01*
G01X51440Y52154D01*
G01X51440Y52223D01*
G01X51274Y52248D01*
G01X51273Y52340D01*
G01X51272Y52439D01*
G01X51272Y52898D01*
G01X51274Y52965D01*
G01X51277Y53031D01*
G01X51455Y53049D01*
G01X51455Y53115D01*
G01X51140Y53237D01*
G01X51109Y53216D01*
G01X51092Y53036D01*
G01X51049Y53081D01*
G01X51004Y53120D01*
G01X50957Y53155D01*
G01X50908Y53184D01*
G01X50857Y53208D01*
G01X50806Y53225D01*
G01X50755Y53236D01*
G01X50703Y53239D01*
G01X50654Y53236D01*
G01X50610Y53227D01*
G01X50570Y53211D01*
G01X50535Y53189D01*
G01X50504Y53160D01*
G01X50478Y53124D01*
G01X50456Y53081D01*
G01X50439Y53031D01*
G01X50394Y53081D01*
G01X50347Y53123D01*
G01X50298Y53159D01*
G01X50248Y53188D01*
G01X50196Y53211D01*
G01X50144Y53226D01*
G01X50091Y53236D01*
G37*

%LPD*%
G36*
G01X58262Y53706D02*
G01X57924Y53800D01*
G01X57896Y53785D01*
G01X57901Y53468D01*
G01X57901Y53031D01*
G01X57858Y53075D01*
G01X57811Y53116D01*
G01X57762Y53151D01*
G01X57710Y53182D01*
G01X57658Y53206D01*
G01X57604Y53224D01*
G01X57549Y53235D01*
G01X57495Y53239D01*
G01X57428Y53233D01*
G01X57371Y53217D01*
G01X57322Y53187D01*
G01X57281Y53146D01*
G01X57249Y53090D01*
G01X57226Y53020D01*
G01X57212Y52934D01*
G01X57208Y52833D01*
G01X57208Y52622D01*
G01X57207Y52534D01*
G01X57207Y52437D01*
G01X57206Y52339D01*
G01X57205Y52248D01*
G01X57050Y52223D01*
G01X57050Y52154D01*
G01X57561Y52154D01*
G01X57561Y52223D01*
G01X57396Y52248D01*
G01X57394Y52339D01*
G01X57392Y52437D01*
G01X57391Y52534D01*
G01X57391Y52830D01*
G01X57394Y52900D01*
G01X57402Y52958D01*
G01X57417Y53004D01*
G01X57437Y53041D01*
G01X57463Y53068D01*
G01X57496Y53086D01*
G01X57534Y53096D01*
G01X57579Y53099D01*
G01X57654Y53092D01*
G01X57730Y53068D01*
G01X57809Y53022D01*
G01X57896Y52952D01*
G01X57896Y52439D01*
G01X57895Y52340D01*
G01X57894Y52248D01*
G01X57739Y52223D01*
G01X57739Y52154D01*
G01X58252Y52154D01*
G01X58252Y52223D01*
G01X58084Y52248D01*
G01X58082Y52340D01*
G01X58081Y52439D01*
G01X58080Y52535D01*
G01X58079Y52622D01*
G01X58079Y53623D01*
G01X58262Y53640D01*
G01X58262Y53706D01*
G37*

%LPD*%
G36*
G01X59654Y53117D02*
G01X59311Y53237D01*
G01X59281Y53216D01*
G01X59286Y52922D01*
G01X59286Y52622D01*
G01X59285Y52535D01*
G01X59284Y52439D01*
G01X59283Y52340D01*
G01X59281Y52248D01*
G01X59128Y52223D01*
G01X59128Y52154D01*
G01X59641Y52154D01*
G01X59641Y52223D01*
G01X59471Y52248D01*
G01X59469Y52340D01*
G01X59468Y52439D01*
G01X59466Y52535D01*
G01X59466Y52824D01*
G01X59468Y52897D01*
G01X59469Y52964D01*
G01X59471Y53033D01*
G01X59654Y53051D01*
G01X59654Y53117D01*
G37*

%LPD*%
G36*
G01X67757Y53706D02*
G01X67419Y53800D01*
G01X67391Y53785D01*
G01X67396Y53468D01*
G01X67396Y53031D01*
G01X67352Y53075D01*
G01X67305Y53116D01*
G01X67256Y53151D01*
G01X67205Y53182D01*
G01X67152Y53206D01*
G01X67098Y53224D01*
G01X67044Y53235D01*
G01X66989Y53239D01*
G01X66923Y53233D01*
G01X66866Y53217D01*
G01X66817Y53187D01*
G01X66777Y53146D01*
G01X66746Y53090D01*
G01X66723Y53020D01*
G01X66710Y52934D01*
G01X66705Y52833D01*
G01X66705Y52622D01*
G01X66704Y52534D01*
G01X66703Y52437D01*
G01X66702Y52339D01*
G01X66700Y52248D01*
G01X66545Y52223D01*
G01X66545Y52154D01*
G01X67058Y52154D01*
G01X67058Y52223D01*
G01X66890Y52248D01*
G01X66889Y52339D01*
G01X66888Y52437D01*
G01X66888Y52830D01*
G01X66891Y52900D01*
G01X66900Y52958D01*
G01X66914Y53004D01*
G01X66934Y53041D01*
G01X66960Y53068D01*
G01X66992Y53086D01*
G01X67030Y53096D01*
G01X67073Y53099D01*
G01X67149Y53092D01*
G01X67226Y53068D01*
G01X67306Y53022D01*
G01X67393Y52952D01*
G01X67393Y52535D01*
G01X67392Y52439D01*
G01X67390Y52340D01*
G01X67388Y52248D01*
G01X67233Y52223D01*
G01X67233Y52154D01*
G01X67746Y52154D01*
G01X67746Y52223D01*
G01X67579Y52248D01*
G01X67578Y52340D01*
G01X67578Y52439D01*
G01X67577Y52535D01*
G01X67576Y52622D01*
G01X67576Y53623D01*
G01X67757Y53640D01*
G01X67757Y53706D01*
G37*

%LPD*%
G36*
G01X44180Y53643D02*
G01X43652Y53643D01*
G01X43652Y53567D01*
G01X43840Y53541D01*
G01X43842Y52139D01*
G01X43921Y52139D01*
G01X44831Y53389D01*
G01X44825Y52261D01*
G01X44587Y52231D01*
G01X44587Y52154D01*
G01X45115Y52154D01*
G01X45115Y52231D01*
G01X44927Y52259D01*
G01X44922Y53518D01*
G01X44945Y53546D01*
G01X45105Y53567D01*
G01X45105Y53643D01*
G01X44759Y53643D01*
G01X43936Y52505D01*
G01X43942Y53539D01*
G01X44180Y53567D01*
G01X44180Y53643D01*
G37*

%LPD*%
G36*
G01X52189Y53237D02*
G01X52141Y53239D01*
G01X52092Y53237D01*
G01X52044Y53230D01*
G01X51997Y53219D01*
G01X51951Y53204D01*
G01X51907Y53184D01*
G01X51864Y53159D01*
G01X51824Y53130D01*
G01X51787Y53097D01*
G01X51753Y53060D01*
G01X51722Y53018D01*
G01X51695Y52972D01*
G01X51671Y52922D01*
G01X51653Y52867D01*
G01X51639Y52808D01*
G01X51631Y52745D01*
G01X51628Y52678D01*
G01X51631Y52611D01*
G01X51639Y52549D01*
G01X51653Y52491D01*
G01X51671Y52437D01*
G01X51695Y52388D01*
G01X51722Y52342D01*
G01X51753Y52302D01*
G01X51787Y52265D01*
G01X51824Y52233D01*
G01X51864Y52204D01*
G01X51907Y52181D01*
G01X51951Y52161D01*
G01X51997Y52146D01*
G01X52044Y52135D01*
G01X52092Y52129D01*
G01X52141Y52127D01*
G01X52189Y52129D01*
G01X52238Y52135D01*
G01X52285Y52146D01*
G01X52331Y52161D01*
G01X52375Y52181D01*
G01X52417Y52204D01*
G01X52457Y52233D01*
G01X52494Y52265D01*
G01X52528Y52302D01*
G01X52559Y52342D01*
G01X52586Y52388D01*
G01X52608Y52437D01*
G01X52626Y52491D01*
G01X52640Y52549D01*
G01X52648Y52611D01*
G01X52651Y52678D01*
G01X52648Y52745D01*
G01X52640Y52808D01*
G01X52626Y52866D01*
G01X52608Y52921D01*
G01X52585Y52971D01*
G01X52558Y53017D01*
G01X52527Y53059D01*
G01X52493Y53096D01*
G01X52456Y53130D01*
G01X52416Y53159D01*
G01X52374Y53183D01*
G01X52330Y53203D01*
G01X52284Y53219D01*
G01X52237Y53230D01*
G01X52189Y53237D01*
G37*

%LPC*%
G36*
G01X52188Y53152D02*
G01X52141Y53155D01*
G01X52094Y53152D01*
G01X52051Y53142D01*
G01X52011Y53124D01*
G01X51975Y53100D01*
G01X51943Y53070D01*
G01X51915Y53033D01*
G01X51890Y52989D01*
G01X51870Y52939D01*
G01X51854Y52883D01*
G01X51842Y52820D01*
G01X51836Y52752D01*
G01X51833Y52678D01*
G01X51836Y52605D01*
G01X51842Y52538D01*
G01X51854Y52476D01*
G01X51870Y52421D01*
G01X51890Y52372D01*
G01X51915Y52330D01*
G01X51943Y52294D01*
G01X51975Y52264D01*
G01X52011Y52240D01*
G01X52051Y52224D01*
G01X52094Y52214D01*
G01X52141Y52210D01*
G01X52188Y52214D01*
G01X52231Y52224D01*
G01X52271Y52240D01*
G01X52307Y52264D01*
G01X52339Y52294D01*
G01X52368Y52330D01*
G01X52392Y52372D01*
G01X52412Y52421D01*
G01X52428Y52476D01*
G01X52439Y52538D01*
G01X52445Y52605D01*
G01X52448Y52678D01*
G01X52445Y52752D01*
G01X52439Y52820D01*
G01X52428Y52883D01*
G01X52412Y52939D01*
G01X52392Y52989D01*
G01X52368Y53033D01*
G01X52339Y53070D01*
G01X52307Y53100D01*
G01X52271Y53124D01*
G01X52231Y53142D01*
G01X52188Y53152D01*
G37*

%LPD*%
G36*
G01X53273Y53237D02*
G01X53223Y53239D01*
G01X53151Y53233D01*
G01X53083Y53218D01*
G01X53022Y53193D01*
G01X52967Y53159D01*
G01X52919Y53117D01*
G01X52880Y53069D01*
G01X52851Y53014D01*
G01X52834Y52955D01*
G01X52847Y52920D01*
G01X52867Y52894D01*
G01X52895Y52878D01*
G01X52931Y52873D01*
G01X52977Y52880D01*
G01X53012Y52902D01*
G01X53036Y52934D01*
G01X53050Y52977D01*
G01X53091Y53135D01*
G01X53123Y53144D01*
G01X53155Y53150D01*
G01X53185Y53154D01*
G01X53213Y53155D01*
G01X53262Y53152D01*
G01X53309Y53142D01*
G01X53351Y53125D01*
G01X53391Y53101D01*
G01X53427Y53071D01*
G01X53459Y53035D01*
G01X53487Y52993D01*
G01X53510Y52945D01*
G01X53528Y52892D01*
G01X53542Y52833D01*
G01X53550Y52768D01*
G01X53553Y52698D01*
G01X53550Y52629D01*
G01X53540Y52566D01*
G01X53525Y52508D01*
G01X53505Y52456D01*
G01X53479Y52409D01*
G01X53449Y52368D01*
G01X53414Y52333D01*
G01X53375Y52304D01*
G01X53332Y52281D01*
G01X53286Y52264D01*
G01X53236Y52255D01*
G01X53185Y52251D01*
G01X53138Y52254D01*
G01X53093Y52262D01*
G01X53049Y52276D01*
G01X53009Y52295D01*
G01X52971Y52319D01*
G01X52935Y52348D01*
G01X52903Y52381D01*
G01X52875Y52419D01*
G01X52829Y52398D01*
G01X52857Y52337D01*
G01X52892Y52283D01*
G01X52934Y52236D01*
G01X52983Y52198D01*
G01X53038Y52167D01*
G01X53100Y52145D01*
G01X53168Y52131D01*
G01X53243Y52127D01*
G01X53298Y52129D01*
G01X53351Y52136D01*
G01X53400Y52148D01*
G01X53448Y52165D01*
G01X53492Y52186D01*
G01X53533Y52212D01*
G01X53571Y52242D01*
G01X53606Y52275D01*
G01X53637Y52313D01*
G01X53664Y52355D01*
G01X53687Y52400D01*
G01X53707Y52449D01*
G01X53723Y52501D01*
G01X53734Y52557D01*
G01X53741Y52616D01*
G01X53743Y52678D01*
G01X53740Y52742D01*
G01X53732Y52803D01*
G01X53718Y52861D01*
G01X53700Y52914D01*
G01X53677Y52964D01*
G01X53650Y53010D01*
G01X53619Y53053D01*
G01X53585Y53091D01*
G01X53547Y53125D01*
G01X53507Y53155D01*
G01X53464Y53180D01*
G01X53419Y53201D01*
G01X53372Y53218D01*
G01X53323Y53229D01*
G01X53273Y53237D01*
G37*

%LPD*%
G36*
G01X54168Y52417D02*
G01X54109Y52429D01*
G01X54050Y52417D01*
G01X54001Y52384D01*
G01X53969Y52334D01*
G01X53957Y52274D01*
G01X53969Y52217D01*
G01X54001Y52171D01*
G01X54050Y52139D01*
G01X54109Y52127D01*
G01X54168Y52139D01*
G01X54215Y52171D01*
G01X54247Y52217D01*
G01X54259Y52274D01*
G01X54247Y52334D01*
G01X54215Y52384D01*
G01X54168Y52417D01*
G37*

%LPD*%
G36*
G01X55620Y53706D02*
G01X55285Y53800D01*
G01X55255Y53785D01*
G01X55262Y53468D01*
G01X55262Y53074D01*
G01X55222Y53114D01*
G01X55180Y53148D01*
G01X55138Y53177D01*
G01X55095Y53199D01*
G01X55051Y53217D01*
G01X55007Y53229D01*
G01X54963Y53237D01*
G01X54919Y53239D01*
G01X54860Y53235D01*
G01X54804Y53222D01*
G01X54751Y53202D01*
G01X54701Y53174D01*
G01X54656Y53138D01*
G01X54616Y53095D01*
G01X54580Y53044D01*
G01X54550Y52987D01*
G01X54525Y52923D01*
G01X54507Y52852D01*
G01X54496Y52776D01*
G01X54493Y52693D01*
G01X54495Y52632D01*
G01X54501Y52573D01*
G01X54512Y52516D01*
G01X54526Y52463D01*
G01X54544Y52413D01*
G01X54566Y52366D01*
G01X54592Y52323D01*
G01X54620Y52284D01*
G01X54652Y52248D01*
G01X54687Y52217D01*
G01X54724Y52191D01*
G01X54765Y52168D01*
G01X54808Y52150D01*
G01X54853Y52137D01*
G01X54901Y52129D01*
G01X54950Y52127D01*
G01X55028Y52134D01*
G01X55107Y52159D01*
G01X55186Y52207D01*
G01X55262Y52284D01*
G01X55280Y52132D01*
G01X55610Y52154D01*
G01X55610Y52223D01*
G01X55445Y52248D01*
G01X55443Y52340D01*
G01X55442Y52439D01*
G01X55441Y52535D01*
G01X55440Y52622D01*
G01X55440Y53623D01*
G01X55620Y53640D01*
G01X55620Y53706D01*
G37*

%LPC*%
G36*
G01X55036Y53123D02*
G01X54980Y53127D01*
G01X54939Y53124D01*
G01X54900Y53115D01*
G01X54863Y53099D01*
G01X54829Y53077D01*
G01X54798Y53049D01*
G01X54771Y53014D01*
G01X54747Y52973D01*
G01X54726Y52926D01*
G01X54710Y52873D01*
G01X54698Y52814D01*
G01X54691Y52749D01*
G01X54688Y52678D01*
G01X54691Y52604D01*
G01X54699Y52537D01*
G01X54713Y52478D01*
G01X54731Y52426D01*
G01X54753Y52381D01*
G01X54779Y52342D01*
G01X54809Y52310D01*
G01X54841Y52285D01*
G01X54876Y52265D01*
G01X54913Y52252D01*
G01X54951Y52243D01*
G01X54991Y52241D01*
G01X55055Y52247D01*
G01X55121Y52268D01*
G01X55189Y52306D01*
G01X55257Y52363D01*
G01X55257Y53000D01*
G01X55172Y53067D01*
G01X55100Y53105D01*
G01X55036Y53123D01*
G37*

%LPD*%
G36*
G01X56250Y53191D02*
G01X55928Y53226D01*
G01X55907Y53204D01*
G01X55915Y52889D01*
G01X55915Y52246D01*
G01X55763Y52221D01*
G01X55763Y52154D01*
G01X56070Y52137D01*
G01X56090Y52337D01*
G01X56135Y52288D01*
G01X56181Y52245D01*
G01X56229Y52209D01*
G01X56279Y52179D01*
G01X56330Y52157D01*
G01X56382Y52140D01*
G01X56434Y52130D01*
G01X56487Y52127D01*
G01X56551Y52132D01*
G01X56608Y52147D01*
G01X56658Y52175D01*
G01X56700Y52216D01*
G01X56734Y52270D01*
G01X56758Y52340D01*
G01X56774Y52425D01*
G01X56779Y52528D01*
G01X56771Y53094D01*
G01X56931Y53127D01*
G01X56931Y53193D01*
G01X56606Y53226D01*
G01X56583Y53204D01*
G01X56593Y52889D01*
G01X56593Y52538D01*
G01X56590Y52469D01*
G01X56582Y52413D01*
G01X56567Y52366D01*
G01X56547Y52330D01*
G01X56520Y52303D01*
G01X56488Y52285D01*
G01X56451Y52275D01*
G01X56408Y52271D01*
G01X56328Y52280D01*
G01X56249Y52307D01*
G01X56172Y52353D01*
G01X56098Y52416D01*
G01X56090Y53094D01*
G01X56250Y53125D01*
G01X56250Y53191D01*
G37*

%LPD*%
G36*
G01X58770Y53516D02*
G01X58643Y53516D01*
G01X58656Y53209D01*
G01X58356Y53209D01*
G01X58356Y53112D01*
G01X58658Y53112D01*
G01X58658Y52393D01*
G01X58649Y52318D01*
G01X58623Y52267D01*
G01X58582Y52237D01*
G01X58529Y52228D01*
G01X58491Y52232D01*
G01X58455Y52244D01*
G01X58417Y52264D01*
G01X58376Y52292D01*
G01X58333Y52241D01*
G01X58381Y52193D01*
G01X58439Y52157D01*
G01X58509Y52134D01*
G01X58590Y52127D01*
G01X58647Y52131D01*
G01X58696Y52142D01*
G01X58740Y52162D01*
G01X58776Y52190D01*
G01X58804Y52226D01*
G01X58824Y52270D01*
G01X58837Y52324D01*
G01X58841Y52386D01*
G01X58841Y53112D01*
G01X59029Y53112D01*
G01X59029Y53191D01*
G01X58831Y53216D01*
G01X58770Y53516D01*
G37*

%LPD*%
G36*
G01X62475Y52417D02*
G01X62417Y52429D01*
G01X62357Y52417D01*
G01X62309Y52384D01*
G01X62277Y52334D01*
G01X62265Y52274D01*
G01X62277Y52217D01*
G01X62309Y52171D01*
G01X62357Y52139D01*
G01X62417Y52127D01*
G01X62475Y52139D01*
G01X62523Y52171D01*
G01X62555Y52217D01*
G01X62567Y52274D01*
G01X62555Y52334D01*
G01X62523Y52384D01*
G01X62475Y52417D01*
G37*

%LPD*%
G36*
G01X63296Y53232D02*
G01X63207Y53239D01*
G01X63122Y53233D01*
G01X63044Y53215D01*
G01X62969Y53187D01*
G01X62895Y53148D01*
G01X62905Y52922D01*
G01X63004Y52922D01*
G01X63047Y53112D01*
G01X63086Y53129D01*
G01X63126Y53142D01*
G01X63166Y53150D01*
G01X63207Y53153D01*
G01X63301Y53141D01*
G01X63369Y53107D01*
G01X63410Y53056D01*
G01X63423Y52990D01*
G01X63412Y52925D01*
G01X63377Y52875D01*
G01X63313Y52833D01*
G01X63218Y52792D01*
G01X63139Y52764D01*
G01X63063Y52734D01*
G01X62999Y52702D01*
G01X62946Y52666D01*
G01X62905Y52628D01*
G01X62873Y52587D01*
G01X62851Y52542D01*
G01X62838Y52495D01*
G01X62834Y52444D01*
G01X62837Y52401D01*
G01X62846Y52361D01*
G01X62862Y52322D01*
G01X62883Y52285D01*
G01X62911Y52251D01*
G01X62944Y52221D01*
G01X62983Y52194D01*
G01X63029Y52170D01*
G01X63079Y52152D01*
G01X63136Y52138D01*
G01X63198Y52130D01*
G01X63266Y52127D01*
G01X63356Y52132D01*
G01X63440Y52147D01*
G01X63520Y52174D01*
G01X63601Y52210D01*
G01X63606Y52454D01*
G01X63500Y52454D01*
G01X63451Y52248D01*
G01X63410Y52232D01*
G01X63366Y52220D01*
G01X63320Y52213D01*
G01X63268Y52210D01*
G01X63207Y52214D01*
G01X63155Y52224D01*
G01X63110Y52239D01*
G01X63074Y52261D01*
G01X63047Y52287D01*
G01X63027Y52318D01*
G01X63016Y52352D01*
G01X63012Y52391D01*
G01X63024Y52455D01*
G01X63061Y52508D01*
G01X63126Y52552D01*
G01X63220Y52594D01*
G01X63322Y52627D01*
G01X63381Y52651D01*
G01X63434Y52678D01*
G01X63481Y52709D01*
G01X63521Y52744D01*
G01X63553Y52783D01*
G01X63576Y52826D01*
G01X63591Y52875D01*
G01X63596Y52929D01*
G01X63589Y52990D01*
G01X63570Y53047D01*
G01X63539Y53100D01*
G01X63495Y53146D01*
G01X63440Y53185D01*
G01X63373Y53214D01*
G01X63296Y53232D01*
G37*

%LPD*%
G36*
G01X65460Y53516D02*
G01X65333Y53516D01*
G01X65344Y53209D01*
G01X65046Y53209D01*
G01X65046Y53112D01*
G01X65346Y53112D01*
G01X65346Y52393D01*
G01X65337Y52318D01*
G01X65312Y52267D01*
G01X65272Y52237D01*
G01X65219Y52228D01*
G01X65181Y52232D01*
G01X65145Y52244D01*
G01X65108Y52264D01*
G01X65067Y52292D01*
G01X65021Y52241D01*
G01X65070Y52193D01*
G01X65130Y52157D01*
G01X65200Y52134D01*
G01X65280Y52127D01*
G01X65336Y52131D01*
G01X65386Y52142D01*
G01X65429Y52162D01*
G01X65465Y52190D01*
G01X65493Y52226D01*
G01X65514Y52270D01*
G01X65527Y52324D01*
G01X65532Y52386D01*
G01X65531Y52425D01*
G01X65530Y52467D01*
G01X65529Y52514D01*
G01X65529Y53112D01*
G01X65719Y53112D01*
G01X65719Y53191D01*
G01X65519Y53216D01*
G01X65460Y53516D01*
G37*

%LPD*%
G36*
G01X66205Y53516D02*
G01X66075Y53516D01*
G01X66088Y53209D01*
G01X65791Y53209D01*
G01X65791Y53112D01*
G01X66090Y53112D01*
G01X66090Y52393D01*
G01X66082Y52318D01*
G01X66056Y52267D01*
G01X66016Y52237D01*
G01X65963Y52228D01*
G01X65925Y52232D01*
G01X65889Y52244D01*
G01X65852Y52264D01*
G01X65811Y52292D01*
G01X65765Y52241D01*
G01X65813Y52193D01*
G01X65873Y52157D01*
G01X65943Y52134D01*
G01X66024Y52127D01*
G01X66080Y52131D01*
G01X66130Y52142D01*
G01X66173Y52162D01*
G01X66209Y52190D01*
G01X66238Y52226D01*
G01X66258Y52270D01*
G01X66271Y52324D01*
G01X66276Y52386D01*
G01X66275Y52425D01*
G01X66275Y52467D01*
G01X66274Y52514D01*
G01X66273Y52571D01*
G01X66273Y53112D01*
G01X66461Y53112D01*
G01X66461Y53191D01*
G01X66263Y53216D01*
G01X66205Y53516D01*
G37*

%LPD*%
G36*
G01X48920Y53734D02*
G01X48803Y53734D01*
G01X49395Y51799D01*
G01X49517Y51799D01*
G01X48920Y53734D01*
G37*

%LPD*%
G36*
G01X60924Y53734D02*
G01X60807Y53734D01*
G01X61401Y51799D01*
G01X61523Y51799D01*
G01X60924Y53734D01*
G37*

%LPD*%
G36*
G01X61475Y53734D02*
G01X61358Y53734D01*
G01X61950Y51799D01*
G01X62072Y51799D01*
G01X61475Y53734D01*
G37*

%LPD*%
G36*
G01X60394Y53237D02*
G01X60337Y53239D01*
G01X60255Y53234D01*
G01X60180Y53218D01*
G01X60114Y53191D01*
G01X60058Y53153D01*
G01X59804Y53237D01*
G01X59771Y53216D01*
G01X59771Y53084D01*
G01X59997Y53089D01*
G01X59971Y53045D01*
G01X59953Y52994D01*
G01X59942Y52938D01*
G01X59938Y52876D01*
G01X59942Y52819D01*
G01X59952Y52768D01*
G01X59968Y52720D01*
G01X59990Y52677D01*
G01X60018Y52638D01*
G01X60051Y52604D01*
G01X60089Y52575D01*
G01X60131Y52551D01*
G01X60177Y52532D01*
G01X60227Y52519D01*
G01X60281Y52510D01*
G01X60337Y52508D01*
G01X60385Y52510D01*
G01X60431Y52515D01*
G01X60474Y52524D01*
G01X60515Y52535D01*
G01X60542Y52499D01*
G01X60561Y52464D01*
G01X60572Y52429D01*
G01X60576Y52391D01*
G01X60569Y52347D01*
G01X60547Y52314D01*
G01X60503Y52294D01*
G01X60434Y52287D01*
G01X60139Y52287D01*
G01X60054Y52281D01*
G01X59980Y52267D01*
G01X59919Y52243D01*
G01X59869Y52211D01*
G01X59830Y52171D01*
G01X59803Y52122D01*
G01X59787Y52067D01*
G01X59781Y52005D01*
G01X59785Y51956D01*
G01X59796Y51909D01*
G01X59815Y51863D01*
G01X59842Y51819D01*
G01X59877Y51778D01*
G01X59919Y51740D01*
G01X59969Y51707D01*
G01X60026Y51677D01*
G01X60091Y51654D01*
G01X60163Y51636D01*
G01X60243Y51625D01*
G01X60330Y51621D01*
G01X60406Y51624D01*
G01X60476Y51630D01*
G01X60538Y51641D01*
G01X60593Y51657D01*
G01X60640Y51675D01*
G01X60682Y51698D01*
G01X60716Y51724D01*
G01X60744Y51753D01*
G01X60765Y51785D01*
G01X60780Y51820D01*
G01X60789Y51856D01*
G01X60792Y51895D01*
G01X60780Y51964D01*
G01X60743Y52027D01*
G01X60677Y52086D01*
G01X60579Y52142D01*
G01X60639Y52168D01*
G01X60684Y52206D01*
G01X60712Y52255D01*
G01X60721Y52315D01*
G01X60713Y52368D01*
G01X60687Y52425D01*
G01X60639Y52488D01*
G01X60568Y52561D01*
G01X60606Y52585D01*
G01X60640Y52614D01*
G01X60670Y52647D01*
G01X60695Y52684D01*
G01X60715Y52726D01*
G01X60729Y52772D01*
G01X60738Y52821D01*
G01X60741Y52876D01*
G01X60738Y52932D01*
G01X60727Y52983D01*
G01X60711Y53030D01*
G01X60688Y53073D01*
G01X60660Y53111D01*
G01X60627Y53144D01*
G01X60589Y53173D01*
G01X60546Y53196D01*
G01X60499Y53215D01*
G01X60448Y53228D01*
G01X60394Y53237D01*
G37*

%LPC*%
G36*
G01X60570Y52080D02*
G01X60528Y52129D01*
G01X60504Y52127D01*
G01X60479Y52126D01*
G01X60450Y52125D01*
G01X60418Y52124D01*
G01X60162Y52124D01*
G01X60060Y52110D01*
G01X59993Y52072D01*
G01X59955Y52016D01*
G01X59944Y51946D01*
G01X59950Y51898D01*
G01X59968Y51854D01*
G01X59999Y51814D01*
G01X60042Y51780D01*
G01X60096Y51752D01*
G01X60162Y51730D01*
G01X60240Y51717D01*
G01X60330Y51713D01*
G01X60393Y51716D01*
G01X60449Y51725D01*
G01X60498Y51741D01*
G01X60540Y51764D01*
G01X60574Y51794D01*
G01X60598Y51830D01*
G01X60614Y51875D01*
G01X60619Y51926D01*
G01X60614Y51982D01*
G01X60598Y52032D01*
G01X60570Y52080D01*
G37*
G36*
G01X60385Y53157D02*
G01X60335Y53163D01*
G01X60285Y53157D01*
G01X60241Y53142D01*
G01X60204Y53117D01*
G01X60172Y53084D01*
G01X60147Y53042D01*
G01X60128Y52995D01*
G01X60117Y52940D01*
G01X60114Y52881D01*
G01X60118Y52818D01*
G01X60129Y52762D01*
G01X60149Y52711D01*
G01X60175Y52668D01*
G01X60208Y52632D01*
G01X60248Y52606D01*
G01X60294Y52589D01*
G01X60345Y52584D01*
G01X60394Y52589D01*
G01X60437Y52605D01*
G01X60475Y52629D01*
G01X60507Y52663D01*
G01X60532Y52705D01*
G01X60551Y52754D01*
G01X60562Y52810D01*
G01X60566Y52873D01*
G01X60562Y52935D01*
G01X60550Y52990D01*
G01X60530Y53040D01*
G01X60504Y53082D01*
G01X60470Y53116D01*
G01X60431Y53142D01*
G01X60385Y53157D01*
G37*

%LPD*%
G36*
G01X64281Y53237D02*
G01X64236Y53239D01*
G01X64178Y53235D01*
G01X64123Y53222D01*
G01X64070Y53201D01*
G01X64022Y53173D01*
G01X63977Y53136D01*
G01X63937Y53092D01*
G01X63901Y53041D01*
G01X63871Y52983D01*
G01X63847Y52919D01*
G01X63829Y52848D01*
G01X63818Y52771D01*
G01X63814Y52688D01*
G01X63816Y52625D01*
G01X63824Y52564D01*
G01X63834Y52508D01*
G01X63849Y52454D01*
G01X63868Y52404D01*
G01X63890Y52359D01*
G01X63916Y52316D01*
G01X63945Y52277D01*
G01X63977Y52243D01*
G01X64012Y52213D01*
G01X64049Y52187D01*
G01X64089Y52166D01*
G01X64131Y52149D01*
G01X64175Y52137D01*
G01X64221Y52129D01*
G01X64269Y52127D01*
G01X64346Y52134D01*
G01X64423Y52158D01*
G01X64499Y52203D01*
G01X64571Y52274D01*
G01X64571Y52006D01*
G01X64570Y51815D01*
G01X64569Y51720D01*
G01X64366Y51690D01*
G01X64366Y51621D01*
G01X64935Y51621D01*
G01X64935Y51690D01*
G01X64754Y51718D01*
G01X64752Y51813D01*
G01X64751Y51907D01*
G01X64750Y52000D01*
G01X64749Y52091D01*
G01X64749Y52739D01*
G01X64750Y52823D01*
G01X64751Y52897D01*
G01X64752Y52965D01*
G01X64754Y53031D01*
G01X64935Y53049D01*
G01X64935Y53115D01*
G01X64622Y53237D01*
G01X64592Y53216D01*
G01X64576Y53074D01*
G01X64536Y53115D01*
G01X64495Y53149D01*
G01X64454Y53178D01*
G01X64411Y53200D01*
G01X64368Y53218D01*
G01X64324Y53230D01*
G01X64281Y53237D01*
G37*

%LPC*%
G36*
G01X64349Y53123D02*
G01X64295Y53127D01*
G01X64253Y53124D01*
G01X64214Y53115D01*
G01X64178Y53098D01*
G01X64145Y53076D01*
G01X64114Y53048D01*
G01X64087Y53013D01*
G01X64064Y52971D01*
G01X64044Y52924D01*
G01X64028Y52870D01*
G01X64017Y52810D01*
G01X64010Y52745D01*
G01X64008Y52673D01*
G01X64011Y52599D01*
G01X64019Y52534D01*
G01X64031Y52476D01*
G01X64050Y52424D01*
G01X64072Y52380D01*
G01X64098Y52341D01*
G01X64127Y52310D01*
G01X64160Y52285D01*
G01X64196Y52265D01*
G01X64235Y52252D01*
G01X64275Y52243D01*
G01X64317Y52241D01*
G01X64379Y52247D01*
G01X64441Y52266D01*
G01X64503Y52300D01*
G01X64566Y52350D01*
G01X64566Y53005D01*
G01X64483Y53067D01*
G01X64411Y53104D01*
G01X64349Y53123D01*
G37*

%LPD*%

%LPD*%
G36*
G01X77122Y43610D02*
G01X75900Y43610D01*
G01X75887Y43214D01*
G01X75994Y43214D01*
G01X76057Y43513D01*
G01X76408Y43513D01*
G01X76409Y43440D01*
G01X76410Y43292D01*
G01X76410Y42443D01*
G01X76409Y42370D01*
G01X76409Y42296D01*
G01X76408Y42223D01*
G01X76177Y42198D01*
G01X76177Y42121D01*
G01X76847Y42121D01*
G01X76847Y42198D01*
G01X76619Y42223D01*
G01X76616Y42368D01*
G01X76615Y42442D01*
G01X76614Y42515D01*
G01X76614Y43218D01*
G01X76616Y43366D01*
G01X76619Y43513D01*
G01X76967Y43513D01*
G01X77028Y43214D01*
G01X77139Y43214D01*
G01X77122Y43610D01*
G37*

%LPD*%
G36*
G01X79656Y43610D02*
G01X79032Y43610D01*
G01X78950Y43607D01*
G01X78875Y43598D01*
G01X78806Y43584D01*
G01X78743Y43564D01*
G01X78686Y43539D01*
G01X78637Y43508D01*
G01X78595Y43472D01*
G01X78560Y43432D01*
G01X78532Y43386D01*
G01X78512Y43336D01*
G01X78500Y43281D01*
G01X78496Y43221D01*
G01X78498Y43178D01*
G01X78506Y43135D01*
G01X78520Y43095D01*
G01X78538Y43056D01*
G01X78562Y43019D01*
G01X78591Y42984D01*
G01X78625Y42952D01*
G01X78665Y42923D01*
G01X78710Y42898D01*
G01X78760Y42876D01*
G01X78816Y42859D01*
G01X78877Y42845D01*
G01X78827Y42832D01*
G01X78784Y42813D01*
G01X78745Y42788D01*
G01X78711Y42758D01*
G01X78682Y42720D01*
G01X78656Y42676D01*
G01X78633Y42624D01*
G01X78613Y42563D01*
G01X78508Y42215D01*
G01X78336Y42198D01*
G01X78336Y42121D01*
G01X78370Y42111D01*
G01X78410Y42104D01*
G01X78454Y42100D01*
G01X78503Y42099D01*
G01X78594Y42106D01*
G01X78659Y42131D01*
G01X78703Y42175D01*
G01X78729Y42241D01*
G01X78821Y42594D01*
G01X78839Y42656D01*
G01X78861Y42706D01*
G01X78888Y42745D01*
G01X78919Y42774D01*
G01X78958Y42795D01*
G01X79004Y42808D01*
G01X79059Y42815D01*
G01X79123Y42817D01*
G01X79242Y42817D01*
G01X79242Y42514D01*
G01X79241Y42440D01*
G01X79240Y42367D01*
G01X79239Y42295D01*
G01X79237Y42223D01*
G01X79029Y42198D01*
G01X79029Y42121D01*
G01X79656Y42121D01*
G01X79656Y42198D01*
G01X79448Y42221D01*
G01X79447Y42294D01*
G01X79447Y42367D01*
G01X79446Y42441D01*
G01X79446Y43290D01*
G01X79447Y43438D01*
G01X79448Y43511D01*
G01X79656Y43534D01*
G01X79656Y43610D01*
G37*

%LPC*%
G36*
G01X79237Y43524D02*
G01X79044Y43524D01*
G01X78963Y43518D01*
G01X78892Y43504D01*
G01X78834Y43479D01*
G01X78786Y43445D01*
G01X78750Y43402D01*
G01X78724Y43351D01*
G01X78709Y43291D01*
G01X78704Y43224D01*
G01X78710Y43157D01*
G01X78726Y43095D01*
G01X78754Y43040D01*
G01X78793Y42993D01*
G01X78843Y42955D01*
G01X78904Y42926D01*
G01X78976Y42907D01*
G01X79060Y42901D01*
G01X79242Y42901D01*
G01X79242Y43225D01*
G01X79241Y43301D01*
G01X79240Y43375D01*
G01X79237Y43524D01*
G37*

%LPD*%
G36*
G01X77757Y43642D02*
G01X77688Y43645D01*
G01X77633Y43643D01*
G01X77580Y43637D01*
G01X77530Y43627D01*
G01X77484Y43613D01*
G01X77440Y43597D01*
G01X77398Y43577D01*
G01X77359Y43554D01*
G01X77322Y43529D01*
G01X77335Y43237D01*
G01X77452Y43237D01*
G01X77508Y43503D01*
G01X77551Y43524D01*
G01X77594Y43538D01*
G01X77639Y43546D01*
G01X77688Y43549D01*
G01X77753Y43545D01*
G01X77813Y43532D01*
G01X77866Y43511D01*
G01X77912Y43482D01*
G01X77949Y43445D01*
G01X77977Y43400D01*
G01X77994Y43347D01*
G01X78000Y43287D01*
G01X77996Y43237D01*
G01X77984Y43191D01*
G01X77963Y43150D01*
G01X77935Y43113D01*
G01X77899Y43080D01*
G01X77856Y43050D01*
G01X77806Y43023D01*
G01X77749Y42998D01*
G01X77657Y42962D01*
G01X77587Y42933D01*
G01X77525Y42903D01*
G01X77470Y42872D01*
G01X77421Y42840D01*
G01X77379Y42807D01*
G01X77344Y42772D01*
G01X77315Y42735D01*
G01X77291Y42696D01*
G01X77273Y42654D01*
G01X77261Y42610D01*
G01X77254Y42563D01*
G01X77251Y42513D01*
G01X77256Y42449D01*
G01X77268Y42390D01*
G01X77290Y42335D01*
G01X77319Y42285D01*
G01X77355Y42241D01*
G01X77398Y42201D01*
G01X77447Y42168D01*
G01X77503Y42140D01*
G01X77564Y42117D01*
G01X77631Y42102D01*
G01X77701Y42092D01*
G01X77777Y42088D01*
G01X77839Y42091D01*
G01X77901Y42098D01*
G01X77960Y42109D01*
G01X78018Y42124D01*
G01X78071Y42141D01*
G01X78122Y42161D01*
G01X78168Y42184D01*
G01X78209Y42208D01*
G01X78196Y42520D01*
G01X78082Y42520D01*
G01X78023Y42241D01*
G01X77970Y42216D01*
G01X77916Y42200D01*
G01X77857Y42191D01*
G01X77790Y42188D01*
G01X77713Y42192D01*
G01X77644Y42205D01*
G01X77583Y42228D01*
G01X77532Y42258D01*
G01X77490Y42298D01*
G01X77459Y42345D01*
G01X77441Y42401D01*
G01X77434Y42464D01*
G01X77438Y42515D01*
G01X77450Y42560D01*
G01X77470Y42600D01*
G01X77499Y42635D01*
G01X77539Y42668D01*
G01X77587Y42698D01*
G01X77646Y42727D01*
G01X77716Y42756D01*
G01X77856Y42816D01*
G01X77908Y42842D01*
G01X77957Y42870D01*
G01X78002Y42899D01*
G01X78043Y42931D01*
G01X78078Y42966D01*
G01X78109Y43003D01*
G01X78135Y43043D01*
G01X78156Y43086D01*
G01X78171Y43132D01*
G01X78180Y43183D01*
G01X78183Y43237D01*
G01X78179Y43299D01*
G01X78166Y43357D01*
G01X78145Y43410D01*
G01X78117Y43458D01*
G01X78082Y43501D01*
G01X78040Y43538D01*
G01X77993Y43570D01*
G01X77940Y43597D01*
G01X77883Y43618D01*
G01X77822Y43633D01*
G01X77757Y43642D01*
G37*

%LPD*%

%LPD*%
G36*
G01X62035Y3339D02*
G01X61978Y3348D01*
G01X61923Y3339D01*
G01X61877Y3311D01*
G01X61847Y3269D01*
G01X61836Y3214D01*
G01X61847Y3158D01*
G01X61877Y3113D01*
G01X61923Y3084D01*
G01X61978Y3074D01*
G01X62035Y3084D01*
G01X62081Y3113D01*
G01X62112Y3158D01*
G01X62123Y3214D01*
G01X62112Y3269D01*
G01X62081Y3311D01*
G01X62035Y3339D01*
G37*

%LPD*%
G36*
G01X71024Y3339D02*
G01X70967Y3348D01*
G01X70913Y3339D01*
G01X70868Y3311D01*
G01X70837Y3269D01*
G01X70825Y3214D01*
G01X70837Y3158D01*
G01X70868Y3113D01*
G01X70913Y3084D01*
G01X70967Y3074D01*
G01X71024Y3084D01*
G01X71070Y3113D01*
G01X71101Y3158D01*
G01X71112Y3214D01*
G01X71101Y3269D01*
G01X71070Y3311D01*
G01X71024Y3339D01*
G37*

%LPD*%
G36*
G01X76650Y3339D02*
G01X76593Y3348D01*
G01X76539Y3339D01*
G01X76494Y3311D01*
G01X76463Y3269D01*
G01X76451Y3214D01*
G01X76463Y3158D01*
G01X76494Y3113D01*
G01X76539Y3084D01*
G01X76593Y3074D01*
G01X76650Y3084D01*
G01X76696Y3113D01*
G01X76727Y3158D01*
G01X76738Y3214D01*
G01X76727Y3269D01*
G01X76696Y3311D01*
G01X76650Y3339D01*
G37*

%LPD*%
G36*
G01X56629Y2817D02*
G01X56575Y2820D01*
G01X56511Y2814D01*
G01X56455Y2798D01*
G01X56406Y2770D01*
G01X56366Y2730D01*
G01X56334Y2677D01*
G01X56310Y2610D01*
G01X56296Y2529D01*
G01X56291Y2434D01*
G01X56291Y2115D01*
G01X56290Y2018D01*
G01X56290Y1920D01*
G01X56288Y1829D01*
G01X56131Y1804D01*
G01X56131Y1735D01*
G01X56642Y1735D01*
G01X56642Y1804D01*
G01X56476Y1829D01*
G01X56475Y1920D01*
G01X56474Y2018D01*
G01X56474Y2411D01*
G01X56476Y2482D01*
G01X56485Y2541D01*
G01X56499Y2587D01*
G01X56519Y2622D01*
G01X56545Y2648D01*
G01X56577Y2666D01*
G01X56615Y2675D01*
G01X56659Y2678D01*
G01X56730Y2670D01*
G01X56803Y2644D01*
G01X56880Y2599D01*
G01X56964Y2531D01*
G01X56962Y2504D01*
G01X56961Y2476D01*
G01X56960Y2447D01*
G01X56959Y2416D01*
G01X56959Y2203D01*
G01X56958Y2115D01*
G01X56957Y2018D01*
G01X56955Y1920D01*
G01X56951Y1829D01*
G01X56799Y1804D01*
G01X56799Y1735D01*
G01X57312Y1735D01*
G01X57312Y1804D01*
G01X57144Y1829D01*
G01X57142Y1920D01*
G01X57141Y2018D01*
G01X57140Y2115D01*
G01X57139Y2203D01*
G01X57139Y2409D01*
G01X57142Y2479D01*
G01X57150Y2537D01*
G01X57164Y2583D01*
G01X57183Y2619D01*
G01X57208Y2646D01*
G01X57240Y2664D01*
G01X57278Y2675D01*
G01X57322Y2678D01*
G01X57396Y2670D01*
G01X57469Y2643D01*
G01X57543Y2599D01*
G01X57624Y2533D01*
G01X57624Y2116D01*
G01X57623Y2020D01*
G01X57622Y1921D01*
G01X57622Y1829D01*
G01X57467Y1804D01*
G01X57467Y1735D01*
G01X57978Y1735D01*
G01X57978Y1804D01*
G01X57815Y1829D01*
G01X57813Y1921D01*
G01X57811Y2020D01*
G01X57810Y2116D01*
G01X57810Y2479D01*
G01X57812Y2546D01*
G01X57815Y2612D01*
G01X57993Y2630D01*
G01X57993Y2696D01*
G01X57680Y2818D01*
G01X57650Y2797D01*
G01X57632Y2617D01*
G01X57589Y2662D01*
G01X57543Y2701D01*
G01X57495Y2736D01*
G01X57446Y2765D01*
G01X57396Y2789D01*
G01X57345Y2806D01*
G01X57294Y2817D01*
G01X57243Y2820D01*
G01X57194Y2817D01*
G01X57148Y2808D01*
G01X57108Y2792D01*
G01X57073Y2770D01*
G01X57043Y2741D01*
G01X57017Y2705D01*
G01X56996Y2662D01*
G01X56979Y2612D01*
G01X56934Y2662D01*
G01X56886Y2704D01*
G01X56837Y2740D01*
G01X56786Y2769D01*
G01X56734Y2792D01*
G01X56682Y2807D01*
G01X56629Y2817D01*
G37*

%LPD*%
G36*
G01X61589Y3287D02*
G01X61247Y3381D01*
G01X61216Y3366D01*
G01X61226Y3049D01*
G01X61226Y2110D01*
G01X61225Y2016D01*
G01X61223Y1922D01*
G01X61221Y1829D01*
G01X61043Y1804D01*
G01X61043Y1735D01*
G01X61589Y1735D01*
G01X61589Y1804D01*
G01X61412Y1829D01*
G01X61411Y1922D01*
G01X61411Y2016D01*
G01X61410Y2110D01*
G01X61409Y2203D01*
G01X61409Y3204D01*
G01X61589Y3221D01*
G01X61589Y3287D01*
G37*

%LPD*%
G36*
G01X62252Y2698D02*
G01X61909Y2818D01*
G01X61879Y2797D01*
G01X61884Y2503D01*
G01X61884Y2116D01*
G01X61883Y2020D01*
G01X61881Y1921D01*
G01X61879Y1829D01*
G01X61727Y1804D01*
G01X61727Y1735D01*
G01X62240Y1735D01*
G01X62240Y1804D01*
G01X62069Y1829D01*
G01X62067Y1921D01*
G01X62066Y2020D01*
G01X62065Y2116D01*
G01X62064Y2203D01*
G01X62064Y2320D01*
G01X62065Y2405D01*
G01X62066Y2478D01*
G01X62068Y2545D01*
G01X62072Y2614D01*
G01X62252Y2632D01*
G01X62252Y2698D01*
G37*

%LPD*%
G36*
G01X64018Y2817D02*
G01X63964Y2820D01*
G01X63900Y2814D01*
G01X63844Y2798D01*
G01X63795Y2770D01*
G01X63755Y2730D01*
G01X63723Y2677D01*
G01X63699Y2610D01*
G01X63685Y2529D01*
G01X63680Y2434D01*
G01X63680Y2203D01*
G01X63679Y2115D01*
G01X63679Y2018D01*
G01X63678Y1920D01*
G01X63677Y1829D01*
G01X63520Y1804D01*
G01X63520Y1735D01*
G01X64030Y1735D01*
G01X64030Y1804D01*
G01X63865Y1829D01*
G01X63863Y1920D01*
G01X63862Y2018D01*
G01X63861Y2115D01*
G01X63860Y2203D01*
G01X63860Y2411D01*
G01X63863Y2482D01*
G01X63872Y2541D01*
G01X63886Y2587D01*
G01X63906Y2622D01*
G01X63933Y2648D01*
G01X63965Y2666D01*
G01X64003Y2675D01*
G01X64048Y2678D01*
G01X64119Y2670D01*
G01X64192Y2644D01*
G01X64269Y2599D01*
G01X64353Y2531D01*
G01X64350Y2504D01*
G01X64348Y2476D01*
G01X64348Y2203D01*
G01X64347Y2115D01*
G01X64346Y2018D01*
G01X64344Y1920D01*
G01X64340Y1829D01*
G01X64188Y1804D01*
G01X64188Y1735D01*
G01X64701Y1735D01*
G01X64701Y1804D01*
G01X64531Y1829D01*
G01X64530Y1920D01*
G01X64530Y2018D01*
G01X64529Y2115D01*
G01X64528Y2203D01*
G01X64528Y2409D01*
G01X64531Y2479D01*
G01X64539Y2537D01*
G01X64553Y2583D01*
G01X64572Y2619D01*
G01X64597Y2646D01*
G01X64629Y2664D01*
G01X64667Y2675D01*
G01X64711Y2678D01*
G01X64785Y2670D01*
G01X64857Y2643D01*
G01X64932Y2599D01*
G01X65013Y2533D01*
G01X65013Y2116D01*
G01X65012Y2020D01*
G01X65010Y1921D01*
G01X65008Y1829D01*
G01X64856Y1804D01*
G01X64856Y1735D01*
G01X65366Y1735D01*
G01X65366Y1804D01*
G01X65201Y1829D01*
G01X65201Y1921D01*
G01X65200Y2020D01*
G01X65199Y2116D01*
G01X65199Y2479D01*
G01X65201Y2546D01*
G01X65204Y2612D01*
G01X65382Y2630D01*
G01X65382Y2696D01*
G01X65069Y2818D01*
G01X65039Y2797D01*
G01X65018Y2617D01*
G01X64976Y2662D01*
G01X64931Y2701D01*
G01X64884Y2736D01*
G01X64835Y2765D01*
G01X64785Y2789D01*
G01X64734Y2806D01*
G01X64683Y2817D01*
G01X64632Y2820D01*
G01X64583Y2817D01*
G01X64537Y2808D01*
G01X64497Y2792D01*
G01X64462Y2770D01*
G01X64432Y2741D01*
G01X64406Y2705D01*
G01X64385Y2662D01*
G01X64368Y2612D01*
G01X64322Y2662D01*
G01X64275Y2704D01*
G01X64225Y2740D01*
G01X64175Y2769D01*
G01X64123Y2792D01*
G01X64070Y2807D01*
G01X64018Y2817D01*
G37*

%LPD*%
G36*
G01X70578Y3287D02*
G01X70236Y3381D01*
G01X70205Y3366D01*
G01X70215Y3049D01*
G01X70215Y2110D01*
G01X70214Y2016D01*
G01X70212Y1922D01*
G01X70210Y1829D01*
G01X70032Y1804D01*
G01X70032Y1735D01*
G01X70578Y1735D01*
G01X70578Y1804D01*
G01X70403Y1829D01*
G01X70401Y1922D01*
G01X70399Y2110D01*
G01X70398Y2203D01*
G01X70398Y3204D01*
G01X70578Y3221D01*
G01X70578Y3287D01*
G37*

%LPD*%
G36*
G01X71241Y2698D02*
G01X70901Y2818D01*
G01X70871Y2797D01*
G01X70873Y2503D01*
G01X70873Y2116D01*
G01X70872Y2020D01*
G01X70871Y1921D01*
G01X70871Y1829D01*
G01X70718Y1804D01*
G01X70718Y1735D01*
G01X71229Y1735D01*
G01X71229Y1804D01*
G01X71059Y1829D01*
G01X71057Y1921D01*
G01X71055Y2020D01*
G01X71054Y2116D01*
G01X71053Y2203D01*
G01X71053Y2320D01*
G01X71054Y2405D01*
G01X71055Y2478D01*
G01X71058Y2545D01*
G01X71061Y2614D01*
G01X71241Y2632D01*
G01X71241Y2698D01*
G37*

%LPD*%
G36*
G01X71874Y2817D02*
G01X71821Y2820D01*
G01X71757Y2814D01*
G01X71700Y2798D01*
G01X71651Y2770D01*
G01X71611Y2730D01*
G01X71579Y2677D01*
G01X71555Y2610D01*
G01X71541Y2529D01*
G01X71536Y2434D01*
G01X71536Y2115D01*
G01X71535Y2018D01*
G01X71533Y1920D01*
G01X71531Y1829D01*
G01X71376Y1804D01*
G01X71376Y1735D01*
G01X71887Y1735D01*
G01X71887Y1804D01*
G01X71721Y1829D01*
G01X71719Y1920D01*
G01X71718Y2018D01*
G01X71717Y2115D01*
G01X71716Y2203D01*
G01X71716Y2411D01*
G01X71719Y2482D01*
G01X71728Y2541D01*
G01X71742Y2587D01*
G01X71762Y2622D01*
G01X71788Y2648D01*
G01X71821Y2666D01*
G01X71859Y2675D01*
G01X71904Y2678D01*
G01X71975Y2670D01*
G01X72047Y2644D01*
G01X72124Y2599D01*
G01X72209Y2531D01*
G01X72206Y2504D01*
G01X72204Y2476D01*
G01X72202Y2447D01*
G01X72202Y2115D01*
G01X72201Y2018D01*
G01X72200Y1920D01*
G01X72196Y1829D01*
G01X72044Y1804D01*
G01X72044Y1735D01*
G01X72557Y1735D01*
G01X72557Y1804D01*
G01X72387Y1829D01*
G01X72385Y1920D01*
G01X72385Y2018D01*
G01X72384Y2115D01*
G01X72384Y2409D01*
G01X72387Y2479D01*
G01X72395Y2537D01*
G01X72409Y2583D01*
G01X72428Y2619D01*
G01X72454Y2646D01*
G01X72485Y2664D01*
G01X72523Y2675D01*
G01X72567Y2678D01*
G01X72641Y2670D01*
G01X72714Y2643D01*
G01X72788Y2599D01*
G01X72870Y2533D01*
G01X72870Y2203D01*
G01X72869Y2116D01*
G01X72868Y2020D01*
G01X72867Y1921D01*
G01X72864Y1829D01*
G01X72710Y1804D01*
G01X72710Y1735D01*
G01X73223Y1735D01*
G01X73223Y1804D01*
G01X73058Y1829D01*
G01X73056Y1921D01*
G01X73055Y2020D01*
G01X73055Y2479D01*
G01X73057Y2546D01*
G01X73060Y2612D01*
G01X73238Y2630D01*
G01X73238Y2696D01*
G01X72923Y2818D01*
G01X72892Y2797D01*
G01X72875Y2617D01*
G01X72832Y2662D01*
G01X72787Y2701D01*
G01X72740Y2736D01*
G01X72691Y2765D01*
G01X72640Y2789D01*
G01X72589Y2806D01*
G01X72538Y2817D01*
G01X72486Y2820D01*
G01X72437Y2817D01*
G01X72393Y2808D01*
G01X72353Y2792D01*
G01X72318Y2770D01*
G01X72287Y2741D01*
G01X72261Y2705D01*
G01X72239Y2662D01*
G01X72222Y2612D01*
G01X72177Y2662D01*
G01X72130Y2704D01*
G01X72081Y2740D01*
G01X72031Y2769D01*
G01X71979Y2792D01*
G01X71927Y2807D01*
G01X71874Y2817D01*
G37*

%LPD*%
G36*
G01X76868Y2698D02*
G01X76527Y2818D01*
G01X76497Y2797D01*
G01X76499Y2503D01*
G01X76499Y2020D01*
G01X76498Y1921D01*
G01X76497Y1829D01*
G01X76344Y1804D01*
G01X76344Y1735D01*
G01X76855Y1735D01*
G01X76855Y1804D01*
G01X76685Y1829D01*
G01X76683Y1921D01*
G01X76683Y2020D01*
G01X76682Y2116D01*
G01X76682Y2405D01*
G01X76683Y2478D01*
G01X76684Y2545D01*
G01X76687Y2614D01*
G01X76868Y2632D01*
G01X76868Y2698D01*
G37*

%LPD*%
G36*
G01X58727Y2818D02*
G01X58679Y2820D01*
G01X58630Y2818D01*
G01X58583Y2811D01*
G01X58536Y2800D01*
G01X58491Y2785D01*
G01X58446Y2765D01*
G01X58404Y2740D01*
G01X58365Y2711D01*
G01X58327Y2678D01*
G01X58293Y2641D01*
G01X58262Y2599D01*
G01X58235Y2553D01*
G01X58212Y2503D01*
G01X58193Y2448D01*
G01X58179Y2389D01*
G01X58171Y2326D01*
G01X58168Y2259D01*
G01X58171Y2192D01*
G01X58179Y2130D01*
G01X58193Y2072D01*
G01X58211Y2018D01*
G01X58234Y1969D01*
G01X58262Y1923D01*
G01X58292Y1883D01*
G01X58326Y1846D01*
G01X58363Y1814D01*
G01X58403Y1785D01*
G01X58445Y1762D01*
G01X58490Y1742D01*
G01X58535Y1727D01*
G01X58582Y1716D01*
G01X58630Y1710D01*
G01X58679Y1708D01*
G01X58728Y1710D01*
G01X58776Y1716D01*
G01X58824Y1727D01*
G01X58870Y1742D01*
G01X58914Y1762D01*
G01X58956Y1785D01*
G01X58996Y1814D01*
G01X59033Y1846D01*
G01X59067Y1883D01*
G01X59097Y1923D01*
G01X59124Y1969D01*
G01X59146Y2018D01*
G01X59165Y2072D01*
G01X59178Y2130D01*
G01X59186Y2192D01*
G01X59189Y2259D01*
G01X59186Y2326D01*
G01X59178Y2389D01*
G01X59164Y2447D01*
G01X59146Y2502D01*
G01X59124Y2552D01*
G01X59097Y2598D01*
G01X59066Y2640D01*
G01X59032Y2677D01*
G01X58995Y2711D01*
G01X58955Y2740D01*
G01X58913Y2764D01*
G01X58869Y2784D01*
G01X58823Y2800D01*
G01X58776Y2811D01*
G01X58727Y2818D01*
G37*

%LPC*%
G36*
G01X58726Y2733D02*
G01X58679Y2736D01*
G01X58632Y2733D01*
G01X58589Y2723D01*
G01X58550Y2705D01*
G01X58514Y2681D01*
G01X58482Y2651D01*
G01X58454Y2614D01*
G01X58430Y2570D01*
G01X58410Y2520D01*
G01X58394Y2464D01*
G01X58383Y2401D01*
G01X58376Y2333D01*
G01X58374Y2259D01*
G01X58376Y2186D01*
G01X58383Y2119D01*
G01X58394Y2057D01*
G01X58410Y2002D01*
G01X58430Y1953D01*
G01X58454Y1911D01*
G01X58482Y1875D01*
G01X58514Y1845D01*
G01X58550Y1821D01*
G01X58589Y1805D01*
G01X58632Y1795D01*
G01X58679Y1791D01*
G01X58726Y1795D01*
G01X58769Y1805D01*
G01X58809Y1821D01*
G01X58845Y1845D01*
G01X58877Y1875D01*
G01X58906Y1911D01*
G01X58930Y1953D01*
G01X58950Y2002D01*
G01X58966Y2057D01*
G01X58977Y2119D01*
G01X58983Y2186D01*
G01X58986Y2259D01*
G01X58983Y2333D01*
G01X58977Y2401D01*
G01X58966Y2464D01*
G01X58950Y2520D01*
G01X58930Y2570D01*
G01X58906Y2614D01*
G01X58877Y2651D01*
G01X58845Y2681D01*
G01X58809Y2705D01*
G01X58769Y2723D01*
G01X58726Y2733D01*
G37*

%LPD*%
G36*
G01X59813Y2818D02*
G01X59763Y2820D01*
G01X59691Y2814D01*
G01X59623Y2799D01*
G01X59560Y2774D01*
G01X59505Y2740D01*
G01X59457Y2698D01*
G01X59418Y2650D01*
G01X59389Y2595D01*
G01X59372Y2536D01*
G01X59385Y2501D01*
G01X59407Y2475D01*
G01X59435Y2459D01*
G01X59471Y2454D01*
G01X59517Y2461D01*
G01X59551Y2483D01*
G01X59574Y2515D01*
G01X59588Y2558D01*
G01X59631Y2716D01*
G01X59663Y2725D01*
G01X59694Y2731D01*
G01X59723Y2735D01*
G01X59750Y2736D01*
G01X59800Y2733D01*
G01X59846Y2723D01*
G01X59889Y2706D01*
G01X59929Y2682D01*
G01X59965Y2652D01*
G01X59997Y2616D01*
G01X60025Y2574D01*
G01X60048Y2526D01*
G01X60066Y2473D01*
G01X60080Y2414D01*
G01X60088Y2349D01*
G01X60091Y2279D01*
G01X60088Y2210D01*
G01X60079Y2147D01*
G01X60064Y2089D01*
G01X60044Y2037D01*
G01X60018Y1990D01*
G01X59988Y1949D01*
G01X59953Y1914D01*
G01X59915Y1885D01*
G01X59872Y1862D01*
G01X59826Y1845D01*
G01X59777Y1836D01*
G01X59725Y1832D01*
G01X59677Y1835D01*
G01X59632Y1843D01*
G01X59588Y1857D01*
G01X59547Y1876D01*
G01X59509Y1900D01*
G01X59473Y1929D01*
G01X59441Y1962D01*
G01X59413Y2000D01*
G01X59369Y1979D01*
G01X59397Y1918D01*
G01X59431Y1864D01*
G01X59473Y1817D01*
G01X59521Y1779D01*
G01X59576Y1748D01*
G01X59638Y1726D01*
G01X59706Y1712D01*
G01X59781Y1708D01*
G01X59836Y1710D01*
G01X59889Y1717D01*
G01X59938Y1729D01*
G01X59986Y1746D01*
G01X60030Y1767D01*
G01X60072Y1793D01*
G01X60110Y1823D01*
G01X60145Y1856D01*
G01X60176Y1894D01*
G01X60204Y1936D01*
G01X60227Y1981D01*
G01X60247Y2030D01*
G01X60263Y2082D01*
G01X60275Y2138D01*
G01X60281Y2197D01*
G01X60284Y2259D01*
G01X60281Y2323D01*
G01X60273Y2384D01*
G01X60259Y2442D01*
G01X60240Y2495D01*
G01X60217Y2545D01*
G01X60190Y2591D01*
G01X60159Y2634D01*
G01X60124Y2672D01*
G01X60087Y2706D01*
G01X60046Y2736D01*
G01X60003Y2761D01*
G01X59958Y2782D01*
G01X59911Y2799D01*
G01X59863Y2810D01*
G01X59813Y2818D01*
G37*

%LPD*%
G36*
G01X60708Y1998D02*
G01X60650Y2010D01*
G01X60589Y1998D01*
G01X60541Y1965D01*
G01X60509Y1915D01*
G01X60497Y1855D01*
G01X60509Y1798D01*
G01X60541Y1752D01*
G01X60589Y1720D01*
G01X60650Y1708D01*
G01X60708Y1720D01*
G01X60755Y1752D01*
G01X60787Y1798D01*
G01X60799Y1855D01*
G01X60787Y1915D01*
G01X60755Y1965D01*
G01X60708Y1998D01*
G37*

%LPD*%
G36*
G01X62972Y2815D02*
G01X62890Y2820D01*
G01X62834Y2818D01*
G01X62783Y2811D01*
G01X62738Y2799D01*
G01X62696Y2783D01*
G01X62661Y2761D01*
G01X62630Y2733D01*
G01X62603Y2700D01*
G01X62582Y2661D01*
G01X62566Y2615D01*
G01X62554Y2564D01*
G01X62547Y2505D01*
G01X62544Y2439D01*
G01X62544Y1954D01*
G01X62539Y1888D01*
G01X62523Y1844D01*
G01X62497Y1819D01*
G01X62463Y1812D01*
G01X62438Y1815D01*
G01X62416Y1826D01*
G01X62395Y1844D01*
G01X62374Y1868D01*
G01X62334Y1824D01*
G01X62374Y1771D01*
G01X62419Y1736D01*
G01X62469Y1716D01*
G01X62524Y1710D01*
G01X62599Y1722D01*
G01X62657Y1758D01*
G01X62699Y1813D01*
G01X62722Y1885D01*
G01X62766Y1843D01*
G01X62807Y1807D01*
G01X62846Y1777D01*
G01X62885Y1752D01*
G01X62924Y1732D01*
G01X62966Y1719D01*
G01X63009Y1710D01*
G01X63058Y1708D01*
G01X63117Y1712D01*
G01X63172Y1725D01*
G01X63222Y1747D01*
G01X63266Y1777D01*
G01X63302Y1815D01*
G01X63329Y1862D01*
G01X63346Y1917D01*
G01X63352Y1979D01*
G01X63348Y2029D01*
G01X63335Y2075D01*
G01X63312Y2119D01*
G01X63276Y2161D01*
G01X63228Y2201D01*
G01X63164Y2240D01*
G01X63083Y2279D01*
G01X62984Y2317D01*
G01X62926Y2336D01*
G01X62862Y2356D01*
G01X62795Y2375D01*
G01X62727Y2391D01*
G01X62727Y2459D01*
G01X62730Y2534D01*
G01X62740Y2595D01*
G01X62755Y2643D01*
G01X62778Y2680D01*
G01X62807Y2706D01*
G01X62844Y2724D01*
G01X62888Y2733D01*
G01X62941Y2736D01*
G01X62970Y2735D01*
G01X63001Y2731D01*
G01X63033Y2725D01*
G01X63068Y2716D01*
G01X63108Y2564D01*
G01X63127Y2519D01*
G01X63151Y2487D01*
G01X63182Y2468D01*
G01X63220Y2462D01*
G01X63261Y2468D01*
G01X63291Y2484D01*
G01X63311Y2510D01*
G01X63322Y2546D01*
G01X63301Y2606D01*
G01X63269Y2661D01*
G01X63228Y2707D01*
G01X63176Y2747D01*
G01X63116Y2778D01*
G01X63048Y2801D01*
G01X62972Y2815D01*
G37*

%LPC*%
G36*
G01X62786Y2303D02*
G01X62727Y2320D01*
G01X62727Y1967D01*
G01X62809Y1906D01*
G01X62872Y1866D01*
G01X62926Y1844D01*
G01X62981Y1837D01*
G01X63053Y1847D01*
G01X63110Y1879D01*
G01X63148Y1933D01*
G01X63162Y2010D01*
G01X63160Y2040D01*
G01X63154Y2071D01*
G01X63141Y2103D01*
G01X63121Y2134D01*
G01X63092Y2164D01*
G01X63051Y2195D01*
G01X62999Y2225D01*
G01X62933Y2254D01*
G01X62891Y2268D01*
G01X62842Y2286D01*
G01X62786Y2303D01*
G37*

%LPD*%
G36*
G01X69413Y2818D02*
G01X69362Y2820D01*
G01X69303Y2817D01*
G01X69248Y2807D01*
G01X69196Y2791D01*
G01X69148Y2768D01*
G01X69104Y2740D01*
G01X69064Y2706D01*
G01X69030Y2667D01*
G01X69000Y2622D01*
G01X68977Y2573D01*
G01X68959Y2518D01*
G01X68949Y2459D01*
G01X68945Y2396D01*
G01X68946Y2359D01*
G01X68949Y2326D01*
G01X68954Y2297D01*
G01X68961Y2271D01*
G01X69677Y2274D01*
G01X69673Y2203D01*
G01X69663Y2139D01*
G01X69647Y2080D01*
G01X69627Y2029D01*
G01X69602Y1982D01*
G01X69572Y1942D01*
G01X69537Y1909D01*
G01X69498Y1881D01*
G01X69455Y1859D01*
G01X69409Y1844D01*
G01X69359Y1835D01*
G01X69306Y1832D01*
G01X69207Y1843D01*
G01X69125Y1876D01*
G01X69055Y1926D01*
G01X68994Y1992D01*
G01X68950Y1962D01*
G01X68984Y1906D01*
G01X69022Y1855D01*
G01X69067Y1812D01*
G01X69117Y1776D01*
G01X69172Y1746D01*
G01X69233Y1725D01*
G01X69299Y1712D01*
G01X69369Y1708D01*
G01X69424Y1710D01*
G01X69477Y1717D01*
G01X69527Y1728D01*
G01X69575Y1744D01*
G01X69619Y1765D01*
G01X69661Y1789D01*
G01X69699Y1818D01*
G01X69733Y1851D01*
G01X69765Y1888D01*
G01X69792Y1930D01*
G01X69816Y1975D01*
G01X69836Y2024D01*
G01X69852Y2076D01*
G01X69863Y2133D01*
G01X69870Y2193D01*
G01X69872Y2256D01*
G01X69870Y2319D01*
G01X69862Y2379D01*
G01X69849Y2436D01*
G01X69831Y2489D01*
G01X69809Y2539D01*
G01X69783Y2585D01*
G01X69753Y2628D01*
G01X69720Y2667D01*
G01X69683Y2702D01*
G01X69644Y2732D01*
G01X69602Y2759D01*
G01X69557Y2780D01*
G01X69511Y2797D01*
G01X69462Y2810D01*
G01X69413Y2818D01*
G37*

%LPC*%
G36*
G01X69423Y2731D02*
G01X69372Y2736D01*
G01X69320Y2731D01*
G01X69272Y2715D01*
G01X69230Y2691D01*
G01X69195Y2658D01*
G01X69165Y2619D01*
G01X69144Y2576D01*
G01X69130Y2527D01*
G01X69126Y2477D01*
G01X69131Y2427D01*
G01X69149Y2387D01*
G01X69186Y2362D01*
G01X69245Y2353D01*
G01X69674Y2358D01*
G01X69661Y2450D01*
G01X69637Y2528D01*
G01X69605Y2594D01*
G01X69566Y2646D01*
G01X69522Y2686D01*
G01X69474Y2714D01*
G01X69423Y2731D01*
G37*

%LPD*%
G36*
G01X73858Y2813D02*
G01X73769Y2820D01*
G01X73683Y2814D01*
G01X73605Y2796D01*
G01X73531Y2768D01*
G01X73459Y2729D01*
G01X73466Y2503D01*
G01X73566Y2503D01*
G01X73609Y2693D01*
G01X73649Y2710D01*
G01X73689Y2723D01*
G01X73729Y2731D01*
G01X73769Y2734D01*
G01X73863Y2722D01*
G01X73931Y2688D01*
G01X73973Y2637D01*
G01X73987Y2571D01*
G01X73975Y2506D01*
G01X73939Y2456D01*
G01X73875Y2414D01*
G01X73779Y2373D01*
G01X73703Y2345D01*
G01X73626Y2315D01*
G01X73562Y2283D01*
G01X73509Y2247D01*
G01X73467Y2209D01*
G01X73436Y2168D01*
G01X73415Y2123D01*
G01X73402Y2076D01*
G01X73398Y2025D01*
G01X73401Y1982D01*
G01X73410Y1942D01*
G01X73425Y1903D01*
G01X73447Y1866D01*
G01X73474Y1832D01*
G01X73507Y1802D01*
G01X73546Y1775D01*
G01X73590Y1751D01*
G01X73641Y1733D01*
G01X73698Y1719D01*
G01X73760Y1711D01*
G01X73827Y1708D01*
G01X73919Y1713D01*
G01X74002Y1728D01*
G01X74082Y1755D01*
G01X74162Y1791D01*
G01X74168Y2035D01*
G01X74061Y2035D01*
G01X74013Y1829D01*
G01X73971Y1813D01*
G01X73928Y1801D01*
G01X73881Y1794D01*
G01X73830Y1791D01*
G01X73768Y1795D01*
G01X73716Y1805D01*
G01X73672Y1820D01*
G01X73636Y1842D01*
G01X73608Y1868D01*
G01X73588Y1899D01*
G01X73577Y1933D01*
G01X73573Y1972D01*
G01X73585Y2036D01*
G01X73622Y2089D01*
G01X73687Y2133D01*
G01X73781Y2175D01*
G01X73886Y2208D01*
G01X73944Y2232D01*
G01X73998Y2259D01*
G01X74044Y2290D01*
G01X74083Y2325D01*
G01X74115Y2364D01*
G01X74138Y2407D01*
G01X74152Y2456D01*
G01X74157Y2510D01*
G01X74151Y2571D01*
G01X74132Y2628D01*
G01X74100Y2681D01*
G01X74057Y2727D01*
G01X74002Y2766D01*
G01X73935Y2795D01*
G01X73858Y2813D01*
G37*

%LPD*%
G36*
G01X74726Y3097D02*
G01X74599Y3097D01*
G01X74609Y2790D01*
G01X74312Y2790D01*
G01X74312Y2693D01*
G01X74612Y2693D01*
G01X74612Y1974D01*
G01X74603Y1899D01*
G01X74578Y1848D01*
G01X74538Y1818D01*
G01X74485Y1809D01*
G01X74447Y1813D01*
G01X74411Y1825D01*
G01X74374Y1845D01*
G01X74333Y1873D01*
G01X74287Y1822D01*
G01X74336Y1774D01*
G01X74396Y1738D01*
G01X74466Y1715D01*
G01X74546Y1708D01*
G01X74602Y1712D01*
G01X74652Y1723D01*
G01X74695Y1743D01*
G01X74731Y1771D01*
G01X74759Y1807D01*
G01X74780Y1851D01*
G01X74793Y1905D01*
G01X74797Y1967D01*
G01X74797Y2006D01*
G01X74796Y2048D01*
G01X74795Y2095D01*
G01X74795Y2693D01*
G01X74985Y2693D01*
G01X74985Y2772D01*
G01X74785Y2797D01*
G01X74726Y3097D01*
G37*

%LPD*%
G36*
G01X66174Y3257D02*
G01X66108Y3259D01*
G01X66041Y3258D01*
G01X65978Y3253D01*
G01X65918Y3244D01*
G01X65862Y3233D01*
G01X65809Y3217D01*
G01X65759Y3199D01*
G01X65710Y3176D01*
G01X65664Y3150D01*
G01X65659Y2820D01*
G01X65780Y2820D01*
G01X65834Y3097D01*
G01X65893Y3126D01*
G01X65955Y3147D01*
G01X66019Y3159D01*
G01X66085Y3163D01*
G01X66144Y3160D01*
G01X66201Y3151D01*
G01X66255Y3137D01*
G01X66306Y3117D01*
G01X66355Y3092D01*
G01X66400Y3061D01*
G01X66442Y3026D01*
G01X66481Y2985D01*
G01X66515Y2938D01*
G01X66546Y2888D01*
G01X66573Y2831D01*
G01X66595Y2771D01*
G01X66613Y2705D01*
G01X66626Y2636D01*
G01X66634Y2561D01*
G01X66636Y2482D01*
G01X66634Y2405D01*
G01X66626Y2330D01*
G01X66614Y2261D01*
G01X66597Y2196D01*
G01X66576Y2135D01*
G01X66550Y2079D01*
G01X66520Y2028D01*
G01X66486Y1982D01*
G01X66448Y1941D01*
G01X66406Y1904D01*
G01X66360Y1874D01*
G01X66311Y1848D01*
G01X66258Y1828D01*
G01X66202Y1813D01*
G01X66143Y1805D01*
G01X66080Y1802D01*
G01X66015Y1804D01*
G01X65953Y1812D01*
G01X65892Y1825D01*
G01X65831Y1845D01*
G01X65831Y2089D01*
G01X65832Y2141D01*
G01X65832Y2193D01*
G01X65833Y2298D01*
G01X65834Y2350D01*
G01X66070Y2368D01*
G01X66070Y2444D01*
G01X65491Y2444D01*
G01X65491Y2368D01*
G01X65625Y2355D01*
G01X65626Y2304D01*
G01X65628Y2252D01*
G01X65628Y2200D01*
G01X65629Y2147D01*
G01X65630Y2095D01*
G01X65630Y2041D01*
G01X65631Y1987D01*
G01X65631Y1832D01*
G01X65688Y1803D01*
G01X65746Y1778D01*
G01X65804Y1755D01*
G01X65863Y1737D01*
G01X65923Y1722D01*
G01X65985Y1711D01*
G01X66049Y1705D01*
G01X66116Y1702D01*
G01X66182Y1705D01*
G01X66245Y1712D01*
G01X66307Y1724D01*
G01X66366Y1740D01*
G01X66422Y1760D01*
G01X66475Y1784D01*
G01X66526Y1813D01*
G01X66573Y1845D01*
G01X66618Y1881D01*
G01X66659Y1921D01*
G01X66697Y1964D01*
G01X66731Y2010D01*
G01X66762Y2060D01*
G01X66790Y2112D01*
G01X66813Y2167D01*
G01X66832Y2226D01*
G01X66848Y2286D01*
G01X66858Y2349D01*
G01X66866Y2415D01*
G01X66868Y2482D01*
G01X66865Y2549D01*
G01X66858Y2613D01*
G01X66847Y2676D01*
G01X66831Y2736D01*
G01X66812Y2793D01*
G01X66788Y2849D01*
G01X66760Y2901D01*
G01X66729Y2950D01*
G01X66694Y2996D01*
G01X66656Y3040D01*
G01X66614Y3079D01*
G01X66568Y3115D01*
G01X66521Y3148D01*
G01X66469Y3177D01*
G01X66415Y3201D01*
G01X66359Y3222D01*
G01X66300Y3238D01*
G01X66238Y3250D01*
G01X66174Y3257D01*
G37*

%LPD*%
G36*
G01X67841Y3177D02*
G01X67782Y3178D01*
G01X67715Y3176D01*
G01X67652Y3170D01*
G01X67591Y3159D01*
G01X67534Y3144D01*
G01X67479Y3125D01*
G01X67427Y3103D01*
G01X67378Y3077D01*
G01X67333Y3047D01*
G01X67291Y3014D01*
G01X67252Y2977D01*
G01X67216Y2938D01*
G01X67185Y2895D01*
G01X67156Y2850D01*
G01X67131Y2801D01*
G01X67110Y2750D01*
G01X67092Y2697D01*
G01X67078Y2642D01*
G01X67069Y2584D01*
G01X67063Y2524D01*
G01X67061Y2462D01*
G01X67064Y2383D01*
G01X67074Y2309D01*
G01X67089Y2240D01*
G01X67110Y2178D01*
G01X67135Y2121D01*
G01X67164Y2070D01*
G01X67197Y2023D01*
G01X67232Y1982D01*
G01X67270Y1946D01*
G01X67310Y1915D01*
G01X67351Y1889D01*
G01X67392Y1869D01*
G01X67433Y1852D01*
G01X67474Y1841D01*
G01X67513Y1834D01*
G01X67551Y1832D01*
G01X67640Y1846D01*
G01X67708Y1884D01*
G01X67755Y1941D01*
G01X67779Y2012D01*
G01X67850Y1939D01*
G01X67925Y1882D01*
G01X68003Y1845D01*
G01X68087Y1832D01*
G01X68132Y1836D01*
G01X68175Y1849D01*
G01X68215Y1870D01*
G01X68251Y1901D01*
G01X68280Y1942D01*
G01X68303Y1993D01*
G01X68318Y2054D01*
G01X68323Y2127D01*
G01X68319Y2194D01*
G01X68309Y2260D01*
G01X68292Y2324D01*
G01X68270Y2385D01*
G01X68243Y2444D01*
G01X68212Y2499D01*
G01X68177Y2550D01*
G01X68140Y2597D01*
G01X68103Y2639D01*
G01X68064Y2676D01*
G01X68023Y2708D01*
G01X67982Y2735D01*
G01X67939Y2757D01*
G01X67896Y2772D01*
G01X67853Y2781D01*
G01X67810Y2785D01*
G01X67770Y2781D01*
G01X67733Y2770D01*
G01X67698Y2751D01*
G01X67663Y2724D01*
G01X67543Y2785D01*
G01X67508Y2757D01*
G01X67637Y2106D01*
G01X67642Y2026D01*
G01X67624Y1968D01*
G01X67582Y1933D01*
G01X67518Y1921D01*
G01X67478Y1924D01*
G01X67437Y1936D01*
G01X67396Y1954D01*
G01X67356Y1980D01*
G01X67318Y2014D01*
G01X67282Y2056D01*
G01X67250Y2106D01*
G01X67221Y2164D01*
G01X67198Y2231D01*
G01X67180Y2306D01*
G01X67169Y2390D01*
G01X67165Y2482D01*
G01X67168Y2552D01*
G01X67177Y2618D01*
G01X67192Y2681D01*
G01X67213Y2740D01*
G01X67238Y2795D01*
G01X67269Y2846D01*
G01X67305Y2893D01*
G01X67345Y2935D01*
G01X67389Y2973D01*
G01X67438Y3007D01*
G01X67489Y3035D01*
G01X67544Y3059D01*
G01X67602Y3078D01*
G01X67663Y3091D01*
G01X67727Y3099D01*
G01X67792Y3102D01*
G01X67855Y3100D01*
G01X67916Y3093D01*
G01X67975Y3083D01*
G01X68032Y3068D01*
G01X68088Y3050D01*
G01X68141Y3028D01*
G01X68192Y3002D01*
G01X68241Y2974D01*
G01X68288Y2942D01*
G01X68332Y2907D01*
G01X68374Y2870D01*
G01X68413Y2830D01*
G01X68450Y2788D01*
G01X68483Y2743D01*
G01X68514Y2696D01*
G01X68543Y2647D01*
G01X68568Y2597D01*
G01X68590Y2545D01*
G01X68609Y2491D01*
G01X68625Y2437D01*
G01X68637Y2381D01*
G01X68646Y2324D01*
G01X68651Y2266D01*
G01X68653Y2208D01*
G01X68651Y2135D01*
G01X68643Y2066D01*
G01X68631Y2001D01*
G01X68615Y1939D01*
G01X68594Y1882D01*
G01X68569Y1827D01*
G01X68540Y1777D01*
G01X68507Y1731D01*
G01X68472Y1688D01*
G01X68433Y1649D01*
G01X68392Y1614D01*
G01X68347Y1582D01*
G01X68300Y1555D01*
G01X68251Y1530D01*
G01X68200Y1510D01*
G01X68147Y1493D01*
G01X68092Y1480D01*
G01X68036Y1471D01*
G01X67980Y1466D01*
G01X67922Y1464D01*
G01X67867Y1465D01*
G01X67816Y1469D01*
G01X67767Y1475D01*
G01X67721Y1484D01*
G01X67677Y1495D01*
G01X67635Y1507D01*
G01X67593Y1523D01*
G01X67553Y1540D01*
G01X67530Y1487D01*
G01X67581Y1464D01*
G01X67633Y1443D01*
G01X67687Y1427D01*
G01X67741Y1413D01*
G01X67796Y1403D01*
G01X67850Y1396D01*
G01X67904Y1392D01*
G01X67957Y1390D01*
G01X68012Y1392D01*
G01X68066Y1396D01*
G01X68119Y1403D01*
G01X68171Y1412D01*
G01X68221Y1425D01*
G01X68271Y1440D01*
G01X68318Y1459D01*
G01X68364Y1479D01*
G01X68407Y1503D01*
G01X68449Y1530D01*
G01X68489Y1559D01*
G01X68527Y1591D01*
G01X68562Y1625D01*
G01X68595Y1663D01*
G01X68625Y1703D01*
G01X68653Y1746D01*
G01X68677Y1792D01*
G01X68699Y1840D01*
G01X68718Y1891D01*
G01X68733Y1945D01*
G01X68746Y2002D01*
G01X68755Y2061D01*
G01X68760Y2123D01*
G01X68762Y2188D01*
G01X68761Y2247D01*
G01X68756Y2304D01*
G01X68748Y2361D01*
G01X68737Y2417D01*
G01X68724Y2471D01*
G01X68707Y2524D01*
G01X68688Y2576D01*
G01X68666Y2626D01*
G01X68641Y2675D01*
G01X68614Y2722D01*
G01X68585Y2767D01*
G01X68553Y2810D01*
G01X68518Y2851D01*
G01X68482Y2891D01*
G01X68443Y2928D01*
G01X68402Y2963D01*
G01X68360Y2995D01*
G01X68315Y3026D01*
G01X68269Y3053D01*
G01X68221Y3079D01*
G01X68171Y3102D01*
G01X68119Y3121D01*
G01X68066Y3138D01*
G01X68012Y3152D01*
G01X67957Y3163D01*
G01X67899Y3172D01*
G01X67841Y3177D01*
G37*

%LPC*%
G36*
G01X67874Y2685D02*
G01X67820Y2693D01*
G01X67784Y2689D01*
G01X67750Y2676D01*
G01X67717Y2652D01*
G01X67685Y2617D01*
G01X67790Y2068D01*
G01X67860Y2012D01*
G01X67919Y1976D01*
G01X67970Y1957D01*
G01X68018Y1951D01*
G01X68085Y1965D01*
G01X68134Y2006D01*
G01X68163Y2075D01*
G01X68173Y2170D01*
G01X68171Y2228D01*
G01X68163Y2284D01*
G01X68152Y2337D01*
G01X68137Y2387D01*
G01X68118Y2433D01*
G01X68096Y2477D01*
G01X68072Y2518D01*
G01X68046Y2556D01*
G01X67990Y2619D01*
G01X67932Y2662D01*
G01X67874Y2685D01*
G37*

%LPD*%
G36*
G01X75557Y2818D02*
G01X75514Y2820D01*
G01X75455Y2816D01*
G01X75399Y2803D01*
G01X75347Y2782D01*
G01X75298Y2754D01*
G01X75253Y2717D01*
G01X75212Y2673D01*
G01X75176Y2622D01*
G01X75146Y2564D01*
G01X75122Y2500D01*
G01X75104Y2429D01*
G01X75093Y2352D01*
G01X75090Y2269D01*
G01X75092Y2206D01*
G01X75099Y2145D01*
G01X75109Y2089D01*
G01X75124Y2035D01*
G01X75143Y1985D01*
G01X75165Y1940D01*
G01X75191Y1897D01*
G01X75220Y1858D01*
G01X75252Y1824D01*
G01X75287Y1794D01*
G01X75324Y1768D01*
G01X75364Y1747D01*
G01X75406Y1730D01*
G01X75450Y1718D01*
G01X75496Y1710D01*
G01X75544Y1708D01*
G01X75621Y1715D01*
G01X75699Y1739D01*
G01X75775Y1784D01*
G01X75849Y1855D01*
G01X75849Y1680D01*
G01X75848Y1587D01*
G01X75847Y1491D01*
G01X75846Y1396D01*
G01X75844Y1301D01*
G01X75641Y1271D01*
G01X75641Y1202D01*
G01X76210Y1202D01*
G01X76210Y1271D01*
G01X76029Y1299D01*
G01X76027Y1394D01*
G01X76026Y1488D01*
G01X76025Y1581D01*
G01X76024Y1672D01*
G01X76024Y2320D01*
G01X76025Y2404D01*
G01X76026Y2478D01*
G01X76028Y2546D01*
G01X76032Y2612D01*
G01X76210Y2630D01*
G01X76210Y2696D01*
G01X75897Y2818D01*
G01X75867Y2797D01*
G01X75852Y2655D01*
G01X75812Y2696D01*
G01X75771Y2730D01*
G01X75730Y2759D01*
G01X75687Y2781D01*
G01X75644Y2799D01*
G01X75601Y2811D01*
G01X75557Y2818D01*
G37*

%LPC*%
G36*
G01X75624Y2704D02*
G01X75570Y2708D01*
G01X75529Y2705D01*
G01X75490Y2696D01*
G01X75454Y2679D01*
G01X75421Y2657D01*
G01X75390Y2629D01*
G01X75363Y2594D01*
G01X75339Y2552D01*
G01X75320Y2505D01*
G01X75304Y2451D01*
G01X75292Y2391D01*
G01X75285Y2326D01*
G01X75283Y2254D01*
G01X75286Y2180D01*
G01X75294Y2115D01*
G01X75307Y2057D01*
G01X75325Y2005D01*
G01X75348Y1961D01*
G01X75373Y1922D01*
G01X75403Y1891D01*
G01X75436Y1866D01*
G01X75472Y1846D01*
G01X75510Y1833D01*
G01X75551Y1824D01*
G01X75592Y1822D01*
G01X75655Y1828D01*
G01X75717Y1847D01*
G01X75779Y1881D01*
G01X75841Y1931D01*
G01X75841Y2586D01*
G01X75758Y2648D01*
G01X75686Y2685D01*
G01X75624Y2704D01*
G37*

%LPD*%
G36*
G01X77502Y2818D02*
G01X77457Y2820D01*
G01X77399Y2816D01*
G01X77344Y2803D01*
G01X77291Y2782D01*
G01X77242Y2754D01*
G01X77198Y2717D01*
G01X77158Y2673D01*
G01X77122Y2622D01*
G01X77092Y2564D01*
G01X77068Y2500D01*
G01X77050Y2429D01*
G01X77039Y2352D01*
G01X77035Y2269D01*
G01X77037Y2206D01*
G01X77044Y2145D01*
G01X77055Y2089D01*
G01X77070Y2035D01*
G01X77089Y1985D01*
G01X77111Y1940D01*
G01X77136Y1897D01*
G01X77165Y1858D01*
G01X77197Y1824D01*
G01X77232Y1794D01*
G01X77269Y1768D01*
G01X77309Y1747D01*
G01X77352Y1730D01*
G01X77396Y1718D01*
G01X77442Y1710D01*
G01X77490Y1708D01*
G01X77567Y1715D01*
G01X77644Y1739D01*
G01X77719Y1784D01*
G01X77792Y1855D01*
G01X77792Y1587D01*
G01X77791Y1491D01*
G01X77790Y1396D01*
G01X77790Y1301D01*
G01X77586Y1271D01*
G01X77586Y1202D01*
G01X78155Y1202D01*
G01X78155Y1271D01*
G01X77972Y1299D01*
G01X77972Y1394D01*
G01X77971Y1488D01*
G01X77970Y1581D01*
G01X77970Y2404D01*
G01X77971Y2478D01*
G01X77973Y2546D01*
G01X77975Y2612D01*
G01X78155Y2630D01*
G01X78155Y2696D01*
G01X77840Y2818D01*
G01X77810Y2797D01*
G01X77797Y2655D01*
G01X77757Y2696D01*
G01X77716Y2730D01*
G01X77674Y2759D01*
G01X77632Y2781D01*
G01X77589Y2799D01*
G01X77545Y2811D01*
G01X77502Y2818D01*
G37*

%LPC*%
G36*
G01X77570Y2704D02*
G01X77515Y2708D01*
G01X77474Y2705D01*
G01X77435Y2696D01*
G01X77398Y2679D01*
G01X77365Y2657D01*
G01X77335Y2629D01*
G01X77308Y2594D01*
G01X77285Y2552D01*
G01X77265Y2505D01*
G01X77249Y2451D01*
G01X77238Y2391D01*
G01X77231Y2326D01*
G01X77228Y2254D01*
G01X77231Y2180D01*
G01X77239Y2115D01*
G01X77252Y2057D01*
G01X77270Y2005D01*
G01X77292Y1961D01*
G01X77318Y1922D01*
G01X77348Y1891D01*
G01X77380Y1866D01*
G01X77416Y1846D01*
G01X77454Y1833D01*
G01X77494Y1824D01*
G01X77536Y1822D01*
G01X77599Y1828D01*
G01X77662Y1847D01*
G01X77724Y1881D01*
G01X77787Y1931D01*
G01X77787Y2586D01*
G01X77704Y2648D01*
G01X77632Y2685D01*
G01X77570Y2704D01*
G37*

%LPD*%

%LPD*%
G36*
G01X30924Y2690D02*
G01X30871Y2693D01*
G01X30807Y2687D01*
G01X30750Y2671D01*
G01X30701Y2643D01*
G01X30661Y2603D01*
G01X30629Y2550D01*
G01X30605Y2483D01*
G01X30591Y2402D01*
G01X30586Y2307D01*
G01X30586Y1891D01*
G01X30585Y1793D01*
G01X30584Y1702D01*
G01X30426Y1677D01*
G01X30426Y1608D01*
G01X30937Y1608D01*
G01X30937Y1677D01*
G01X30772Y1702D01*
G01X30770Y1793D01*
G01X30770Y1891D01*
G01X30769Y1988D01*
G01X30769Y2284D01*
G01X30772Y2355D01*
G01X30780Y2414D01*
G01X30794Y2460D01*
G01X30814Y2495D01*
G01X30840Y2521D01*
G01X30872Y2539D01*
G01X30910Y2548D01*
G01X30954Y2551D01*
G01X31025Y2543D01*
G01X31098Y2517D01*
G01X31175Y2472D01*
G01X31259Y2404D01*
G01X31257Y2377D01*
G01X31256Y2349D01*
G01X31255Y2320D01*
G01X31254Y2289D01*
G01X31254Y1988D01*
G01X31252Y1891D01*
G01X31250Y1793D01*
G01X31247Y1702D01*
G01X31094Y1677D01*
G01X31094Y1608D01*
G01X31607Y1608D01*
G01X31607Y1677D01*
G01X31440Y1702D01*
G01X31438Y1793D01*
G01X31436Y1891D01*
G01X31435Y1988D01*
G01X31435Y2282D01*
G01X31437Y2352D01*
G01X31445Y2410D01*
G01X31459Y2456D01*
G01X31478Y2492D01*
G01X31504Y2519D01*
G01X31535Y2537D01*
G01X31573Y2548D01*
G01X31617Y2551D01*
G01X31692Y2543D01*
G01X31764Y2516D01*
G01X31838Y2472D01*
G01X31920Y2406D01*
G01X31920Y2076D01*
G01X31919Y1989D01*
G01X31919Y1893D01*
G01X31918Y1794D01*
G01X31917Y1702D01*
G01X31762Y1677D01*
G01X31762Y1608D01*
G01X32273Y1608D01*
G01X32273Y1677D01*
G01X32110Y1702D01*
G01X32108Y1794D01*
G01X32107Y1893D01*
G01X32106Y1989D01*
G01X32105Y2076D01*
G01X32105Y2279D01*
G01X32106Y2352D01*
G01X32107Y2419D01*
G01X32110Y2485D01*
G01X32288Y2503D01*
G01X32288Y2569D01*
G01X31976Y2691D01*
G01X31945Y2670D01*
G01X31927Y2490D01*
G01X31884Y2535D01*
G01X31838Y2574D01*
G01X31791Y2609D01*
G01X31741Y2638D01*
G01X31691Y2662D01*
G01X31640Y2679D01*
G01X31589Y2690D01*
G01X31539Y2693D01*
G01X31489Y2690D01*
G01X31444Y2681D01*
G01X31404Y2665D01*
G01X31369Y2643D01*
G01X31338Y2614D01*
G01X31312Y2578D01*
G01X31291Y2535D01*
G01X31275Y2485D01*
G01X31229Y2535D01*
G01X31181Y2577D01*
G01X31132Y2613D01*
G01X31081Y2642D01*
G01X31030Y2665D01*
G01X30977Y2680D01*
G01X30924Y2690D01*
G37*

%LPD*%
G36*
G01X40647Y3097D02*
G01X39743Y3097D01*
G01X39743Y2988D01*
G01X40269Y1608D01*
G01X40441Y1608D01*
G01X40462Y1629D01*
G01X39867Y2924D01*
G01X40647Y2924D01*
G01X40647Y3097D01*
G37*

%LPD*%
G36*
G01X43388Y3120D02*
G01X43263Y3120D01*
G01X43263Y2203D01*
G01X43027Y2203D01*
G01X43027Y2071D01*
G01X43263Y2071D01*
G01X43263Y1608D01*
G01X43441Y1608D01*
G01X43441Y2071D01*
G01X44046Y2071D01*
G01X44046Y2180D01*
G01X43388Y3120D01*
G37*

%LPC*%
G36*
G01X43934Y2203D02*
G01X43441Y2912D01*
G01X43441Y2203D01*
G01X43934Y2203D01*
G37*

%LPD*%
G36*
G01X45031Y3000D02*
G01X44574Y3120D01*
G01X44543Y3097D01*
G01X44551Y2777D01*
G01X44551Y1989D01*
G01X44550Y1900D01*
G01X44548Y1811D01*
G01X44546Y1723D01*
G01X44234Y1677D01*
G01X44234Y1608D01*
G01X45054Y1608D01*
G01X45054Y1677D01*
G01X44739Y1723D01*
G01X44737Y1811D01*
G01X44736Y1900D01*
G01X44734Y1989D01*
G01X44734Y2952D01*
G01X45031Y2924D01*
G01X45031Y3000D01*
G37*

%LPD*%
G36*
G01X47340Y3097D02*
G01X46436Y3097D01*
G01X46436Y2988D01*
G01X46964Y1608D01*
G01X47134Y1608D01*
G01X47155Y1629D01*
G01X46560Y2924D01*
G01X47340Y2924D01*
G01X47340Y3097D01*
G37*

%LPD*%
G36*
G01X49193Y3125D02*
G01X49138Y3127D01*
G01X49070Y3124D01*
G01X49008Y3114D01*
G01X48952Y3098D01*
G01X48903Y3077D01*
G01X48859Y3050D01*
G01X48822Y3017D01*
G01X48791Y2980D01*
G01X48766Y2938D01*
G01X48747Y2893D01*
G01X48733Y2843D01*
G01X48724Y2790D01*
G01X48722Y2734D01*
G01X48724Y2686D01*
G01X48732Y2640D01*
G01X48745Y2595D01*
G01X48764Y2548D01*
G01X48789Y2501D01*
G01X48820Y2450D01*
G01X48859Y2397D01*
G01X48905Y2340D01*
G01X48959Y2277D01*
G01X49020Y2208D01*
G01X49090Y2133D01*
G01X49169Y2050D01*
G01X49221Y1998D01*
G01X49285Y1933D01*
G01X49356Y1860D01*
G01X49433Y1781D01*
G01X48661Y1781D01*
G01X48661Y1608D01*
G01X49575Y1608D01*
G01X49575Y1746D01*
G01X49485Y1848D01*
G01X49440Y1898D01*
G01X49397Y1947D01*
G01X49355Y1995D01*
G01X49314Y2041D01*
G01X49274Y2086D01*
G01X49237Y2129D01*
G01X49185Y2189D01*
G01X49138Y2247D01*
G01X49095Y2301D01*
G01X49058Y2353D01*
G01X49024Y2404D01*
G01X48996Y2452D01*
G01X48971Y2499D01*
G01X48952Y2545D01*
G01X48937Y2590D01*
G01X48926Y2635D01*
G01X48919Y2679D01*
G01X48917Y2724D01*
G01X48922Y2792D01*
G01X48937Y2854D01*
G01X48960Y2908D01*
G01X48992Y2954D01*
G01X49031Y2991D01*
G01X49077Y3018D01*
G01X49130Y3035D01*
G01X49189Y3041D01*
G01X49216Y3040D01*
G01X49245Y3037D01*
G01X49277Y3032D01*
G01X49311Y3026D01*
G01X49354Y2863D01*
G01X49377Y2799D01*
G01X49405Y2755D01*
G01X49438Y2731D01*
G01X49476Y2724D01*
G01X49510Y2729D01*
G01X49540Y2742D01*
G01X49566Y2764D01*
G01X49585Y2792D01*
G01X49574Y2845D01*
G01X49557Y2895D01*
G01X49534Y2939D01*
G01X49505Y2979D01*
G01X49472Y3013D01*
G01X49433Y3044D01*
G01X49391Y3069D01*
G01X49346Y3090D01*
G01X49297Y3107D01*
G01X49246Y3118D01*
G01X49193Y3125D01*
G37*

%LPD*%
G36*
G01X33023Y2691D02*
G01X32974Y2693D01*
G01X32926Y2691D01*
G01X32878Y2684D01*
G01X32832Y2673D01*
G01X32786Y2658D01*
G01X32742Y2638D01*
G01X32699Y2613D01*
G01X32660Y2584D01*
G01X32622Y2551D01*
G01X32588Y2514D01*
G01X32557Y2472D01*
G01X32530Y2426D01*
G01X32507Y2376D01*
G01X32488Y2321D01*
G01X32474Y2262D01*
G01X32466Y2199D01*
G01X32463Y2132D01*
G01X32466Y2065D01*
G01X32474Y2003D01*
G01X32488Y1945D01*
G01X32506Y1891D01*
G01X32529Y1842D01*
G01X32557Y1796D01*
G01X32587Y1756D01*
G01X32621Y1719D01*
G01X32658Y1687D01*
G01X32698Y1658D01*
G01X32741Y1635D01*
G01X32785Y1615D01*
G01X32831Y1600D01*
G01X32877Y1589D01*
G01X32926Y1583D01*
G01X32974Y1581D01*
G01X33023Y1583D01*
G01X33071Y1589D01*
G01X33119Y1600D01*
G01X33165Y1615D01*
G01X33209Y1635D01*
G01X33252Y1658D01*
G01X33291Y1687D01*
G01X33328Y1719D01*
G01X33362Y1756D01*
G01X33392Y1796D01*
G01X33419Y1842D01*
G01X33442Y1891D01*
G01X33460Y1945D01*
G01X33473Y2003D01*
G01X33481Y2065D01*
G01X33484Y2132D01*
G01X33481Y2199D01*
G01X33473Y2262D01*
G01X33459Y2320D01*
G01X33441Y2375D01*
G01X33419Y2425D01*
G01X33392Y2471D01*
G01X33361Y2513D01*
G01X33327Y2550D01*
G01X33290Y2584D01*
G01X33250Y2613D01*
G01X33208Y2637D01*
G01X33164Y2657D01*
G01X33118Y2673D01*
G01X33071Y2684D01*
G01X33023Y2691D01*
G37*

%LPC*%
G36*
G01X33021Y2606D02*
G01X32974Y2609D01*
G01X32927Y2606D01*
G01X32884Y2596D01*
G01X32845Y2578D01*
G01X32809Y2554D01*
G01X32777Y2524D01*
G01X32749Y2487D01*
G01X32725Y2443D01*
G01X32705Y2393D01*
G01X32689Y2337D01*
G01X32678Y2274D01*
G01X32672Y2206D01*
G01X32669Y2132D01*
G01X32672Y2059D01*
G01X32678Y1992D01*
G01X32689Y1930D01*
G01X32705Y1875D01*
G01X32725Y1826D01*
G01X32749Y1784D01*
G01X32777Y1748D01*
G01X32809Y1718D01*
G01X32845Y1694D01*
G01X32884Y1678D01*
G01X32927Y1668D01*
G01X32974Y1664D01*
G01X33021Y1668D01*
G01X33064Y1678D01*
G01X33104Y1694D01*
G01X33140Y1718D01*
G01X33172Y1748D01*
G01X33201Y1784D01*
G01X33225Y1826D01*
G01X33245Y1875D01*
G01X33261Y1930D01*
G01X33272Y1992D01*
G01X33279Y2059D01*
G01X33281Y2132D01*
G01X33279Y2206D01*
G01X33272Y2274D01*
G01X33261Y2337D01*
G01X33245Y2393D01*
G01X33225Y2443D01*
G01X33201Y2487D01*
G01X33172Y2524D01*
G01X33140Y2554D01*
G01X33104Y2578D01*
G01X33064Y2596D01*
G01X33021Y2606D01*
G37*

%LPD*%
G36*
G01X34109Y2691D02*
G01X34058Y2693D01*
G01X33986Y2687D01*
G01X33918Y2672D01*
G01X33856Y2647D01*
G01X33800Y2613D01*
G01X33752Y2571D01*
G01X33713Y2523D01*
G01X33684Y2468D01*
G01X33667Y2409D01*
G01X33680Y2374D01*
G01X33702Y2348D01*
G01X33730Y2332D01*
G01X33766Y2327D01*
G01X33812Y2334D01*
G01X33847Y2356D01*
G01X33869Y2388D01*
G01X33883Y2431D01*
G01X33926Y2589D01*
G01X33958Y2598D01*
G01X33989Y2604D01*
G01X34018Y2608D01*
G01X34046Y2609D01*
G01X34095Y2606D01*
G01X34142Y2596D01*
G01X34184Y2579D01*
G01X34224Y2555D01*
G01X34260Y2525D01*
G01X34292Y2489D01*
G01X34320Y2447D01*
G01X34343Y2399D01*
G01X34362Y2346D01*
G01X34375Y2287D01*
G01X34383Y2222D01*
G01X34386Y2152D01*
G01X34383Y2083D01*
G01X34374Y2020D01*
G01X34359Y1962D01*
G01X34339Y1910D01*
G01X34313Y1863D01*
G01X34283Y1822D01*
G01X34248Y1787D01*
G01X34210Y1758D01*
G01X34168Y1735D01*
G01X34121Y1718D01*
G01X34072Y1709D01*
G01X34020Y1705D01*
G01X33973Y1708D01*
G01X33927Y1716D01*
G01X33883Y1730D01*
G01X33842Y1749D01*
G01X33804Y1773D01*
G01X33768Y1802D01*
G01X33736Y1835D01*
G01X33708Y1873D01*
G01X33665Y1852D01*
G01X33692Y1791D01*
G01X33727Y1737D01*
G01X33768Y1690D01*
G01X33816Y1652D01*
G01X33871Y1621D01*
G01X33933Y1599D01*
G01X34001Y1585D01*
G01X34076Y1581D01*
G01X34131Y1583D01*
G01X34184Y1590D01*
G01X34234Y1602D01*
G01X34281Y1619D01*
G01X34326Y1640D01*
G01X34367Y1666D01*
G01X34405Y1696D01*
G01X34440Y1729D01*
G01X34471Y1767D01*
G01X34499Y1809D01*
G01X34523Y1854D01*
G01X34542Y1903D01*
G01X34558Y1955D01*
G01X34570Y2011D01*
G01X34577Y2070D01*
G01X34579Y2132D01*
G01X34576Y2196D01*
G01X34568Y2257D01*
G01X34554Y2315D01*
G01X34535Y2368D01*
G01X34513Y2418D01*
G01X34485Y2464D01*
G01X34454Y2507D01*
G01X34420Y2545D01*
G01X34382Y2579D01*
G01X34341Y2609D01*
G01X34299Y2634D01*
G01X34253Y2655D01*
G01X34206Y2672D01*
G01X34158Y2683D01*
G01X34109Y2691D01*
G37*

%LPD*%
G36*
G01X35003Y1871D02*
G01X34945Y1883D01*
G01X34884Y1871D01*
G01X34836Y1838D01*
G01X34804Y1788D01*
G01X34792Y1728D01*
G01X34804Y1671D01*
G01X34836Y1625D01*
G01X34884Y1593D01*
G01X34945Y1581D01*
G01X35003Y1593D01*
G01X35050Y1625D01*
G01X35082Y1671D01*
G01X35095Y1728D01*
G01X35082Y1788D01*
G01X35050Y1838D01*
G01X35003Y1871D01*
G37*

%LPD*%
G36*
G01X40997Y3118D02*
G01X40929Y3127D01*
G01X40916Y3069D01*
G01X40994Y3049D01*
G01X41065Y3025D01*
G01X41132Y2999D01*
G01X41194Y2969D01*
G01X41252Y2937D01*
G01X41304Y2901D01*
G01X41352Y2862D01*
G01X41395Y2820D01*
G01X41434Y2775D01*
G01X41468Y2727D01*
G01X41498Y2675D01*
G01X41523Y2621D01*
G01X41545Y2564D01*
G01X41562Y2503D01*
G01X41575Y2440D01*
G01X41584Y2373D01*
G01X41510Y2436D01*
G01X41430Y2481D01*
G01X41344Y2508D01*
G01X41254Y2518D01*
G01X41195Y2514D01*
G01X41139Y2504D01*
G01X41088Y2486D01*
G01X41040Y2463D01*
G01X40998Y2433D01*
G01X40960Y2397D01*
G01X40927Y2356D01*
G01X40899Y2309D01*
G01X40877Y2256D01*
G01X40861Y2199D01*
G01X40851Y2137D01*
G01X40848Y2071D01*
G01X40852Y1996D01*
G01X40863Y1926D01*
G01X40881Y1862D01*
G01X40907Y1805D01*
G01X40938Y1753D01*
G01X40975Y1709D01*
G01X41018Y1670D01*
G01X41067Y1638D01*
G01X41120Y1613D01*
G01X41177Y1595D01*
G01X41239Y1584D01*
G01X41305Y1581D01*
G01X41359Y1583D01*
G01X41410Y1592D01*
G01X41459Y1605D01*
G01X41504Y1624D01*
G01X41547Y1648D01*
G01X41586Y1677D01*
G01X41622Y1710D01*
G01X41656Y1749D01*
G01X41685Y1792D01*
G01X41711Y1840D01*
G01X41733Y1892D01*
G01X41752Y1949D01*
G01X41766Y2010D01*
G01X41776Y2075D01*
G01X41783Y2145D01*
G01X41785Y2218D01*
G01X41784Y2275D01*
G01X41778Y2331D01*
G01X41771Y2387D01*
G01X41760Y2441D01*
G01X41745Y2493D01*
G01X41729Y2545D01*
G01X41708Y2596D01*
G01X41685Y2644D01*
G01X41659Y2691D01*
G01X41630Y2736D01*
G01X41598Y2780D01*
G01X41563Y2822D01*
G01X41525Y2861D01*
G01X41484Y2898D01*
G01X41441Y2933D01*
G01X41395Y2965D01*
G01X41346Y2996D01*
G01X41294Y3023D01*
G01X41240Y3048D01*
G01X41183Y3070D01*
G01X41123Y3089D01*
G01X41061Y3105D01*
G01X40997Y3118D01*
G37*

%LPC*%
G36*
G01X41377Y2393D02*
G01X41305Y2398D01*
G01X41248Y2393D01*
G01X41196Y2377D01*
G01X41151Y2350D01*
G01X41113Y2312D01*
G01X41082Y2262D01*
G01X41060Y2200D01*
G01X41045Y2127D01*
G01X41041Y2040D01*
G01X41045Y1952D01*
G01X41060Y1876D01*
G01X41082Y1811D01*
G01X41112Y1758D01*
G01X41149Y1717D01*
G01X41193Y1688D01*
G01X41242Y1670D01*
G01X41297Y1664D01*
G01X41342Y1668D01*
G01X41383Y1681D01*
G01X41420Y1701D01*
G01X41454Y1729D01*
G01X41485Y1766D01*
G01X41512Y1810D01*
G01X41535Y1863D01*
G01X41554Y1923D01*
G01X41570Y1992D01*
G01X41580Y2069D01*
G01X41587Y2154D01*
G01X41589Y2246D01*
G01X41589Y2292D01*
G01X41522Y2342D01*
G01X41450Y2375D01*
G01X41377Y2393D01*
G37*

%LPD*%
G36*
G01X42112Y3118D02*
G01X42044Y3127D01*
G01X42031Y3069D01*
G01X42109Y3049D01*
G01X42180Y3025D01*
G01X42247Y2999D01*
G01X42309Y2969D01*
G01X42367Y2937D01*
G01X42419Y2901D01*
G01X42467Y2862D01*
G01X42510Y2820D01*
G01X42549Y2775D01*
G01X42583Y2727D01*
G01X42613Y2675D01*
G01X42638Y2621D01*
G01X42660Y2564D01*
G01X42677Y2503D01*
G01X42690Y2440D01*
G01X42699Y2373D01*
G01X42625Y2436D01*
G01X42545Y2481D01*
G01X42459Y2508D01*
G01X42369Y2518D01*
G01X42311Y2514D01*
G01X42255Y2504D01*
G01X42204Y2486D01*
G01X42157Y2463D01*
G01X42115Y2433D01*
G01X42077Y2397D01*
G01X42044Y2356D01*
G01X42017Y2309D01*
G01X41994Y2256D01*
G01X41979Y2199D01*
G01X41969Y2137D01*
G01X41965Y2071D01*
G01X41969Y1996D01*
G01X41980Y1926D01*
G01X41998Y1862D01*
G01X42023Y1805D01*
G01X42055Y1753D01*
G01X42092Y1709D01*
G01X42135Y1670D01*
G01X42182Y1638D01*
G01X42236Y1613D01*
G01X42293Y1595D01*
G01X42355Y1584D01*
G01X42420Y1581D01*
G01X42474Y1583D01*
G01X42526Y1592D01*
G01X42574Y1605D01*
G01X42620Y1624D01*
G01X42663Y1648D01*
G01X42702Y1677D01*
G01X42739Y1710D01*
G01X42772Y1749D01*
G01X42801Y1792D01*
G01X42826Y1840D01*
G01X42849Y1892D01*
G01X42867Y1949D01*
G01X42881Y2010D01*
G01X42891Y2075D01*
G01X42898Y2145D01*
G01X42900Y2218D01*
G01X42899Y2275D01*
G01X42894Y2331D01*
G01X42886Y2387D01*
G01X42875Y2441D01*
G01X42861Y2493D01*
G01X42844Y2545D01*
G01X42824Y2596D01*
G01X42801Y2644D01*
G01X42775Y2691D01*
G01X42746Y2736D01*
G01X42714Y2780D01*
G01X42679Y2822D01*
G01X42641Y2861D01*
G01X42600Y2898D01*
G01X42557Y2933D01*
G01X42511Y2965D01*
G01X42462Y2996D01*
G01X42410Y3023D01*
G01X42356Y3048D01*
G01X42299Y3070D01*
G01X42239Y3089D01*
G01X42177Y3105D01*
G01X42112Y3118D01*
G37*

%LPC*%
G36*
G01X42492Y2393D02*
G01X42420Y2398D01*
G01X42363Y2393D01*
G01X42311Y2377D01*
G01X42266Y2350D01*
G01X42228Y2312D01*
G01X42197Y2262D01*
G01X42175Y2200D01*
G01X42160Y2127D01*
G01X42156Y2040D01*
G01X42160Y1952D01*
G01X42175Y1876D01*
G01X42197Y1811D01*
G01X42227Y1758D01*
G01X42264Y1717D01*
G01X42308Y1688D01*
G01X42358Y1670D01*
G01X42412Y1664D01*
G01X42457Y1668D01*
G01X42498Y1681D01*
G01X42536Y1701D01*
G01X42570Y1729D01*
G01X42601Y1766D01*
G01X42628Y1810D01*
G01X42652Y1863D01*
G01X42672Y1923D01*
G01X42687Y1992D01*
G01X42698Y2069D01*
G01X42705Y2154D01*
G01X42707Y2246D01*
G01X42707Y2292D01*
G01X42638Y2342D01*
G01X42565Y2375D01*
G01X42492Y2393D01*
G37*

%LPD*%
G36*
G01X45832Y3124D02*
G01X45775Y3127D01*
G01X45718Y3124D01*
G01X45665Y3116D01*
G01X45616Y3102D01*
G01X45571Y3082D01*
G01X45531Y3058D01*
G01X45495Y3030D01*
G01X45464Y2997D01*
G01X45439Y2961D01*
G01X45419Y2921D01*
G01X45404Y2877D01*
G01X45395Y2831D01*
G01X45392Y2782D01*
G01X45395Y2736D01*
G01X45405Y2690D01*
G01X45422Y2642D01*
G01X45448Y2594D01*
G01X45484Y2546D01*
G01X45531Y2499D01*
G01X45590Y2452D01*
G01X45661Y2406D01*
G01X45580Y2363D01*
G01X45511Y2319D01*
G01X45453Y2272D01*
G01X45407Y2223D01*
G01X45371Y2168D01*
G01X45346Y2109D01*
G01X45331Y2045D01*
G01X45326Y1974D01*
G01X45330Y1917D01*
G01X45342Y1864D01*
G01X45360Y1814D01*
G01X45386Y1769D01*
G01X45417Y1727D01*
G01X45455Y1690D01*
G01X45498Y1658D01*
G01X45546Y1631D01*
G01X45599Y1609D01*
G01X45656Y1593D01*
G01X45716Y1584D01*
G01X45780Y1581D01*
G01X45847Y1583D01*
G01X45908Y1591D01*
G01X45966Y1604D01*
G01X46020Y1623D01*
G01X46068Y1647D01*
G01X46111Y1675D01*
G01X46148Y1708D01*
G01X46180Y1747D01*
G01X46205Y1789D01*
G01X46222Y1837D01*
G01X46234Y1889D01*
G01X46238Y1946D01*
G01X46233Y2008D01*
G01X46217Y2065D01*
G01X46192Y2119D01*
G01X46156Y2169D01*
G01X46111Y2216D01*
G01X46055Y2260D01*
G01X45990Y2301D01*
G01X45915Y2340D01*
G01X45983Y2382D01*
G01X46041Y2426D01*
G01X46089Y2474D01*
G01X46127Y2525D01*
G01X46156Y2579D01*
G01X46176Y2636D01*
G01X46188Y2696D01*
G01X46192Y2759D01*
G01X46188Y2814D01*
G01X46177Y2865D01*
G01X46159Y2912D01*
G01X46136Y2955D01*
G01X46106Y2994D01*
G01X46071Y3028D01*
G01X46030Y3057D01*
G01X45986Y3082D01*
G01X45938Y3102D01*
G01X45887Y3116D01*
G01X45832Y3124D01*
G37*

%LPC*%
G36*
G01X45826Y3036D02*
G01X45778Y3041D01*
G01X45727Y3035D01*
G01X45681Y3020D01*
G01X45643Y2995D01*
G01X45611Y2963D01*
G01X45585Y2925D01*
G01X45567Y2882D01*
G01X45555Y2834D01*
G01X45552Y2785D01*
G01X45554Y2732D01*
G01X45561Y2683D01*
G01X45573Y2637D01*
G01X45591Y2595D01*
G01X45615Y2554D01*
G01X45646Y2515D01*
G01X45684Y2477D01*
G01X45730Y2439D01*
G01X45809Y2482D01*
G01X45874Y2526D01*
G01X45925Y2570D01*
G01X45963Y2615D01*
G01X45991Y2660D01*
G01X46009Y2706D01*
G01X46019Y2753D01*
G01X46022Y2800D01*
G01X46017Y2853D01*
G01X46002Y2900D01*
G01X45979Y2941D01*
G01X45949Y2976D01*
G01X45912Y3003D01*
G01X45871Y3024D01*
G01X45826Y3036D01*
G37*
G36*
G01X45897Y2270D02*
G01X45847Y2304D01*
G01X45756Y2260D01*
G01X45681Y2216D01*
G01X45622Y2173D01*
G01X45576Y2130D01*
G01X45542Y2086D01*
G01X45520Y2041D01*
G01X45508Y1994D01*
G01X45504Y1944D01*
G01X45509Y1884D01*
G01X45523Y1829D01*
G01X45547Y1782D01*
G01X45579Y1741D01*
G01X45618Y1709D01*
G01X45664Y1685D01*
G01X45717Y1669D01*
G01X45775Y1664D01*
G01X45836Y1670D01*
G01X45892Y1686D01*
G01X45940Y1713D01*
G01X45982Y1748D01*
G01X46015Y1792D01*
G01X46040Y1843D01*
G01X46055Y1902D01*
G01X46060Y1967D01*
G01X46057Y2022D01*
G01X46047Y2072D01*
G01X46030Y2118D01*
G01X46008Y2159D01*
G01X45978Y2198D01*
G01X45941Y2235D01*
G01X45897Y2270D01*
G37*

%LPD*%
G36*
G01X50320Y3123D02*
G01X50246Y3127D01*
G01X50183Y3124D01*
G01X50124Y3116D01*
G01X50071Y3102D01*
G01X50021Y3082D01*
G01X49977Y3057D01*
G01X49938Y3028D01*
G01X49904Y2994D01*
G01X49876Y2955D01*
G01X49854Y2913D01*
G01X49837Y2867D01*
G01X49828Y2817D01*
G01X49824Y2764D01*
G01X49829Y2702D01*
G01X49845Y2643D01*
G01X49870Y2589D01*
G01X49905Y2539D01*
G01X49950Y2494D01*
G01X50004Y2455D01*
G01X50067Y2422D01*
G01X50139Y2396D01*
G01X50080Y2382D01*
G01X50026Y2365D01*
G01X49978Y2343D01*
G01X49935Y2318D01*
G01X49898Y2289D01*
G01X49865Y2257D01*
G01X49838Y2222D01*
G01X49817Y2183D01*
G01X49800Y2142D01*
G01X49788Y2098D01*
G01X49781Y2051D01*
G01X49778Y2002D01*
G01X49782Y1943D01*
G01X49795Y1886D01*
G01X49814Y1834D01*
G01X49841Y1784D01*
G01X49875Y1740D01*
G01X49916Y1700D01*
G01X49963Y1665D01*
G01X50015Y1636D01*
G01X50073Y1612D01*
G01X50136Y1595D01*
G01X50204Y1584D01*
G01X50276Y1581D01*
G01X50357Y1585D01*
G01X50431Y1598D01*
G01X50498Y1622D01*
G01X50557Y1654D01*
G01X50608Y1697D01*
G01X50650Y1750D01*
G01X50682Y1813D01*
G01X50703Y1888D01*
G01X50682Y1920D01*
G01X50657Y1942D01*
G01X50628Y1955D01*
G01X50594Y1959D01*
G01X50550Y1951D01*
G01X50518Y1925D01*
G01X50493Y1880D01*
G01X50472Y1814D01*
G01X50436Y1682D01*
G01X50402Y1674D01*
G01X50370Y1668D01*
G01X50338Y1665D01*
G01X50307Y1664D01*
G01X50231Y1671D01*
G01X50165Y1690D01*
G01X50107Y1720D01*
G01X50059Y1760D01*
G01X50021Y1811D01*
G01X49994Y1869D01*
G01X49977Y1935D01*
G01X49971Y2007D01*
G01X49977Y2081D01*
G01X49993Y2147D01*
G01X50021Y2204D01*
G01X50058Y2253D01*
G01X50107Y2292D01*
G01X50167Y2321D01*
G01X50237Y2339D01*
G01X50317Y2345D01*
G01X50424Y2345D01*
G01X50424Y2444D01*
G01X50337Y2444D01*
G01X50266Y2449D01*
G01X50202Y2464D01*
G01X50146Y2490D01*
G01X50099Y2525D01*
G01X50062Y2569D01*
G01X50034Y2622D01*
G01X50018Y2684D01*
G01X50012Y2754D01*
G01X50017Y2820D01*
G01X50031Y2877D01*
G01X50053Y2926D01*
G01X50085Y2967D01*
G01X50124Y2999D01*
G01X50171Y3022D01*
G01X50225Y3036D01*
G01X50286Y3041D01*
G01X50311Y3041D01*
G01X50337Y3039D01*
G01X50366Y3034D01*
G01X50396Y3028D01*
G01X50431Y2899D01*
G01X50452Y2839D01*
G01X50477Y2797D01*
G01X50512Y2772D01*
G01X50558Y2764D01*
G01X50591Y2768D01*
G01X50620Y2781D01*
G01X50644Y2806D01*
G01X50662Y2843D01*
G01X50641Y2910D01*
G01X50608Y2969D01*
G01X50566Y3018D01*
G01X50515Y3057D01*
G01X50456Y3088D01*
G01X50391Y3110D01*
G01X50320Y3123D01*
G37*

%LPD*%
G36*
G01X48096Y3123D02*
G01X48028Y3127D01*
G01X47976Y3125D01*
G01X47925Y3117D01*
G01X47878Y3104D01*
G01X47834Y3086D01*
G01X47792Y3063D01*
G01X47754Y3035D01*
G01X47719Y3003D01*
G01X47687Y2967D01*
G01X47659Y2926D01*
G01X47634Y2882D01*
G01X47613Y2833D01*
G01X47596Y2780D01*
G01X47582Y2724D01*
G01X47572Y2665D01*
G01X47566Y2602D01*
G01X47564Y2536D01*
G01X47565Y2480D01*
G01X47569Y2426D01*
G01X47575Y2372D01*
G01X47584Y2319D01*
G01X47596Y2267D01*
G01X47610Y2216D01*
G01X47628Y2166D01*
G01X47647Y2118D01*
G01X47670Y2070D01*
G01X47696Y2024D01*
G01X47724Y1979D01*
G01X47756Y1937D01*
G01X47790Y1895D01*
G01X47828Y1855D01*
G01X47868Y1817D01*
G01X47912Y1781D01*
G01X47958Y1747D01*
G01X48008Y1715D01*
G01X48061Y1684D01*
G01X48118Y1656D01*
G01X48177Y1630D01*
G01X48240Y1607D01*
G01X48307Y1586D01*
G01X48376Y1568D01*
G01X48392Y1636D01*
G01X48322Y1662D01*
G01X48258Y1690D01*
G01X48198Y1719D01*
G01X48142Y1752D01*
G01X48090Y1786D01*
G01X48042Y1823D01*
G01X47998Y1862D01*
G01X47959Y1903D01*
G01X47923Y1947D01*
G01X47891Y1993D01*
G01X47862Y2040D01*
G01X47837Y2091D01*
G01X47816Y2143D01*
G01X47798Y2198D01*
G01X47784Y2255D01*
G01X47772Y2315D01*
G01X47834Y2267D01*
G01X47904Y2232D01*
G01X47983Y2210D01*
G01X48069Y2203D01*
G01X48127Y2206D01*
G01X48183Y2217D01*
G01X48236Y2234D01*
G01X48285Y2258D01*
G01X48331Y2288D01*
G01X48372Y2324D01*
G01X48408Y2365D01*
G01X48439Y2413D01*
G01X48464Y2465D01*
G01X48483Y2523D01*
G01X48494Y2585D01*
G01X48498Y2652D01*
G01X48494Y2722D01*
G01X48483Y2787D01*
G01X48464Y2848D01*
G01X48438Y2903D01*
G01X48406Y2953D01*
G01X48367Y2997D01*
G01X48323Y3036D01*
G01X48273Y3068D01*
G01X48218Y3093D01*
G01X48159Y3112D01*
G01X48096Y3123D01*
G37*

%LPC*%
G36*
G01X48090Y3035D02*
G01X48036Y3041D01*
G01X47996Y3037D01*
G01X47958Y3027D01*
G01X47923Y3011D01*
G01X47890Y2986D01*
G01X47861Y2955D01*
G01X47834Y2916D01*
G01X47811Y2869D01*
G01X47792Y2815D01*
G01X47777Y2753D01*
G01X47766Y2683D01*
G01X47759Y2604D01*
G01X47757Y2518D01*
G01X47757Y2491D01*
G01X47758Y2465D01*
G01X47760Y2439D01*
G01X47762Y2414D01*
G01X47815Y2373D01*
G01X47873Y2344D01*
G01X47936Y2328D01*
G01X48006Y2322D01*
G01X48067Y2327D01*
G01X48124Y2344D01*
G01X48176Y2370D01*
G01X48220Y2408D01*
G01X48257Y2457D01*
G01X48284Y2518D01*
G01X48302Y2591D01*
G01X48308Y2675D01*
G01X48302Y2760D01*
G01X48286Y2834D01*
G01X48261Y2897D01*
G01X48227Y2949D01*
G01X48187Y2989D01*
G01X48141Y3018D01*
G01X48090Y3035D01*
G37*

%LPD*%
G36*
G01X38644Y3050D02*
G01X38585Y3051D01*
G01X38518Y3049D01*
G01X38455Y3043D01*
G01X38394Y3032D01*
G01X38336Y3017D01*
G01X38281Y2998D01*
G01X38230Y2976D01*
G01X38181Y2950D01*
G01X38136Y2920D01*
G01X38093Y2887D01*
G01X38054Y2850D01*
G01X38019Y2811D01*
G01X37987Y2768D01*
G01X37958Y2723D01*
G01X37934Y2674D01*
G01X37913Y2623D01*
G01X37895Y2570D01*
G01X37881Y2515D01*
G01X37871Y2457D01*
G01X37865Y2397D01*
G01X37863Y2335D01*
G01X37867Y2256D01*
G01X37876Y2182D01*
G01X37892Y2113D01*
G01X37913Y2051D01*
G01X37937Y1994D01*
G01X37967Y1943D01*
G01X37999Y1896D01*
G01X38035Y1855D01*
G01X38073Y1819D01*
G01X38112Y1788D01*
G01X38153Y1762D01*
G01X38194Y1742D01*
G01X38236Y1725D01*
G01X38276Y1714D01*
G01X38316Y1707D01*
G01X38354Y1705D01*
G01X38442Y1719D01*
G01X38510Y1757D01*
G01X38556Y1814D01*
G01X38582Y1885D01*
G01X38653Y1812D01*
G01X38727Y1755D01*
G01X38805Y1718D01*
G01X38887Y1705D01*
G01X38933Y1709D01*
G01X38977Y1722D01*
G01X39017Y1743D01*
G01X39053Y1774D01*
G01X39083Y1815D01*
G01X39106Y1866D01*
G01X39121Y1927D01*
G01X39126Y2000D01*
G01X39122Y2067D01*
G01X39111Y2133D01*
G01X39095Y2197D01*
G01X39072Y2258D01*
G01X39045Y2317D01*
G01X39014Y2372D01*
G01X38980Y2423D01*
G01X38943Y2470D01*
G01X38906Y2512D01*
G01X38867Y2549D01*
G01X38826Y2581D01*
G01X38784Y2608D01*
G01X38742Y2630D01*
G01X38699Y2645D01*
G01X38656Y2654D01*
G01X38613Y2658D01*
G01X38572Y2654D01*
G01X38535Y2643D01*
G01X38500Y2624D01*
G01X38465Y2597D01*
G01X38346Y2658D01*
G01X38308Y2630D01*
G01X38440Y1979D01*
G01X38445Y1899D01*
G01X38426Y1841D01*
G01X38383Y1806D01*
G01X38318Y1794D01*
G01X38278Y1797D01*
G01X38238Y1809D01*
G01X38198Y1827D01*
G01X38158Y1853D01*
G01X38120Y1887D01*
G01X38085Y1929D01*
G01X38052Y1979D01*
G01X38024Y2037D01*
G01X38000Y2104D01*
G01X37983Y2179D01*
G01X37971Y2263D01*
G01X37967Y2355D01*
G01X37970Y2425D01*
G01X37980Y2491D01*
G01X37995Y2554D01*
G01X38016Y2613D01*
G01X38041Y2668D01*
G01X38072Y2719D01*
G01X38108Y2766D01*
G01X38148Y2808D01*
G01X38192Y2846D01*
G01X38240Y2880D01*
G01X38292Y2908D01*
G01X38347Y2932D01*
G01X38405Y2951D01*
G01X38466Y2964D01*
G01X38529Y2972D01*
G01X38595Y2975D01*
G01X38657Y2973D01*
G01X38718Y2966D01*
G01X38778Y2956D01*
G01X38835Y2941D01*
G01X38890Y2923D01*
G01X38944Y2901D01*
G01X38995Y2875D01*
G01X39044Y2847D01*
G01X39091Y2815D01*
G01X39135Y2780D01*
G01X39176Y2743D01*
G01X39216Y2703D01*
G01X39253Y2661D01*
G01X39286Y2616D01*
G01X39317Y2569D01*
G01X39346Y2520D01*
G01X39371Y2470D01*
G01X39393Y2418D01*
G01X39412Y2364D01*
G01X39427Y2310D01*
G01X39440Y2254D01*
G01X39449Y2197D01*
G01X39454Y2139D01*
G01X39456Y2081D01*
G01X39453Y2008D01*
G01X39446Y1939D01*
G01X39434Y1874D01*
G01X39417Y1812D01*
G01X39396Y1755D01*
G01X39372Y1700D01*
G01X39343Y1650D01*
G01X39310Y1604D01*
G01X39275Y1561D01*
G01X39236Y1522D01*
G01X39194Y1487D01*
G01X39150Y1455D01*
G01X39103Y1428D01*
G01X39054Y1403D01*
G01X39003Y1383D01*
G01X38950Y1366D01*
G01X38895Y1353D01*
G01X38839Y1344D01*
G01X38782Y1339D01*
G01X38724Y1337D01*
G01X38670Y1338D01*
G01X38619Y1342D01*
G01X38570Y1348D01*
G01X38524Y1357D01*
G01X38480Y1368D01*
G01X38437Y1380D01*
G01X38396Y1396D01*
G01X38356Y1413D01*
G01X38333Y1360D01*
G01X38383Y1337D01*
G01X38436Y1316D01*
G01X38490Y1300D01*
G01X38543Y1286D01*
G01X38598Y1276D01*
G01X38653Y1269D01*
G01X38707Y1265D01*
G01X38760Y1263D01*
G01X38815Y1265D01*
G01X38869Y1269D01*
G01X38922Y1276D01*
G01X38974Y1285D01*
G01X39024Y1298D01*
G01X39073Y1313D01*
G01X39121Y1332D01*
G01X39166Y1352D01*
G01X39210Y1376D01*
G01X39252Y1403D01*
G01X39292Y1432D01*
G01X39329Y1464D01*
G01X39364Y1498D01*
G01X39397Y1536D01*
G01X39427Y1576D01*
G01X39455Y1619D01*
G01X39480Y1665D01*
G01X39502Y1713D01*
G01X39520Y1764D01*
G01X39536Y1818D01*
G01X39549Y1875D01*
G01X39558Y1934D01*
G01X39563Y1996D01*
G01X39565Y2061D01*
G01X39564Y2120D01*
G01X39558Y2177D01*
G01X39551Y2234D01*
G01X39540Y2290D01*
G01X39526Y2344D01*
G01X39510Y2397D01*
G01X39490Y2449D01*
G01X39468Y2499D01*
G01X39443Y2548D01*
G01X39416Y2595D01*
G01X39386Y2640D01*
G01X39354Y2683D01*
G01X39320Y2724D01*
G01X39284Y2764D01*
G01X39245Y2801D01*
G01X39204Y2836D01*
G01X39161Y2868D01*
G01X39117Y2899D01*
G01X39070Y2926D01*
G01X39022Y2952D01*
G01X38973Y2975D01*
G01X38921Y2994D01*
G01X38868Y3011D01*
G01X38814Y3025D01*
G01X38758Y3036D01*
G01X38701Y3045D01*
G01X38644Y3050D01*
G37*

%LPC*%
G36*
G01X38677Y2558D02*
G01X38623Y2566D01*
G01X38586Y2562D01*
G01X38552Y2549D01*
G01X38519Y2525D01*
G01X38488Y2490D01*
G01X38592Y1941D01*
G01X38662Y1885D01*
G01X38721Y1849D01*
G01X38773Y1830D01*
G01X38821Y1824D01*
G01X38888Y1838D01*
G01X38936Y1879D01*
G01X38966Y1948D01*
G01X38976Y2043D01*
G01X38973Y2101D01*
G01X38966Y2157D01*
G01X38953Y2210D01*
G01X38938Y2260D01*
G01X38918Y2306D01*
G01X38897Y2350D01*
G01X38872Y2391D01*
G01X38846Y2429D01*
G01X38791Y2492D01*
G01X38733Y2535D01*
G01X38677Y2558D01*
G37*

%LPD*%
G36*
G01X36028Y2691D02*
G01X35979Y2693D01*
G01X35897Y2685D01*
G01X35818Y2658D01*
G01X35740Y2609D01*
G01X35666Y2536D01*
G01X35514Y2691D01*
G01X35486Y2670D01*
G01X35493Y2368D01*
G01X35493Y1452D01*
G01X35492Y1359D01*
G01X35490Y1265D01*
G01X35488Y1172D01*
G01X35311Y1144D01*
G01X35311Y1075D01*
G01X35874Y1075D01*
G01X35874Y1144D01*
G01X35676Y1172D01*
G01X35674Y1267D01*
G01X35672Y1453D01*
G01X35671Y1545D01*
G01X35671Y1748D01*
G01X35705Y1708D01*
G01X35741Y1674D01*
G01X35778Y1645D01*
G01X35817Y1622D01*
G01X35858Y1603D01*
G01X35900Y1591D01*
G01X35945Y1583D01*
G01X35991Y1581D01*
G01X36057Y1585D01*
G01X36119Y1598D01*
G01X36177Y1620D01*
G01X36230Y1649D01*
G01X36278Y1686D01*
G01X36320Y1730D01*
G01X36358Y1781D01*
G01X36389Y1839D01*
G01X36413Y1902D01*
G01X36431Y1971D01*
G01X36442Y2045D01*
G01X36446Y2124D01*
G01X36443Y2187D01*
G01X36437Y2247D01*
G01X36426Y2304D01*
G01X36410Y2358D01*
G01X36391Y2408D01*
G01X36368Y2455D01*
G01X36342Y2498D01*
G01X36312Y2537D01*
G01X36279Y2572D01*
G01X36244Y2604D01*
G01X36205Y2630D01*
G01X36164Y2652D01*
G01X36121Y2670D01*
G01X36075Y2683D01*
G01X36028Y2691D01*
G37*

%LPC*%
G36*
G01X35978Y2578D02*
G01X35935Y2581D01*
G01X35876Y2575D01*
G01X35815Y2554D01*
G01X35748Y2516D01*
G01X35676Y2457D01*
G01X35676Y1827D01*
G01X35741Y1763D01*
G01X35803Y1723D01*
G01X35867Y1701D01*
G01X35935Y1695D01*
G01X35980Y1697D01*
G01X36021Y1706D01*
G01X36061Y1719D01*
G01X36097Y1739D01*
G01X36130Y1764D01*
G01X36160Y1796D01*
G01X36187Y1834D01*
G01X36209Y1879D01*
G01X36227Y1931D01*
G01X36240Y1989D01*
G01X36248Y2056D01*
G01X36250Y2129D01*
G01X36247Y2205D01*
G01X36239Y2273D01*
G01X36225Y2334D01*
G01X36207Y2388D01*
G01X36184Y2434D01*
G01X36157Y2474D01*
G01X36126Y2508D01*
G01X36093Y2535D01*
G01X36056Y2555D01*
G01X36018Y2570D01*
G01X35978Y2578D01*
G37*

%LPD*%
G36*
G01X37267Y2691D02*
G01X37218Y2693D01*
G01X37137Y2685D01*
G01X37057Y2658D01*
G01X36980Y2609D01*
G01X36906Y2536D01*
G01X36753Y2691D01*
G01X36725Y2670D01*
G01X36733Y2368D01*
G01X36733Y1545D01*
G01X36731Y1359D01*
G01X36730Y1265D01*
G01X36728Y1172D01*
G01X36550Y1144D01*
G01X36550Y1075D01*
G01X37114Y1075D01*
G01X37114Y1144D01*
G01X36916Y1172D01*
G01X36914Y1267D01*
G01X36912Y1360D01*
G01X36911Y1453D01*
G01X36911Y1748D01*
G01X36945Y1708D01*
G01X36980Y1674D01*
G01X37017Y1645D01*
G01X37057Y1622D01*
G01X37097Y1603D01*
G01X37140Y1591D01*
G01X37184Y1583D01*
G01X37231Y1581D01*
G01X37297Y1585D01*
G01X37359Y1598D01*
G01X37417Y1620D01*
G01X37470Y1649D01*
G01X37517Y1686D01*
G01X37560Y1730D01*
G01X37597Y1781D01*
G01X37628Y1839D01*
G01X37652Y1902D01*
G01X37671Y1971D01*
G01X37682Y2045D01*
G01X37685Y2124D01*
G01X37683Y2187D01*
G01X37676Y2247D01*
G01X37665Y2304D01*
G01X37650Y2358D01*
G01X37631Y2408D01*
G01X37608Y2455D01*
G01X37581Y2498D01*
G01X37552Y2537D01*
G01X37519Y2572D01*
G01X37483Y2604D01*
G01X37445Y2630D01*
G01X37404Y2652D01*
G01X37360Y2670D01*
G01X37315Y2683D01*
G01X37267Y2691D01*
G37*

%LPC*%
G36*
G01X37217Y2578D02*
G01X37175Y2581D01*
G01X37116Y2575D01*
G01X37054Y2554D01*
G01X36988Y2516D01*
G01X36916Y2457D01*
G01X36916Y1827D01*
G01X36980Y1763D01*
G01X37042Y1723D01*
G01X37106Y1701D01*
G01X37175Y1695D01*
G01X37219Y1697D01*
G01X37261Y1706D01*
G01X37300Y1719D01*
G01X37337Y1739D01*
G01X37370Y1764D01*
G01X37400Y1796D01*
G01X37426Y1834D01*
G01X37448Y1879D01*
G01X37466Y1931D01*
G01X37479Y1989D01*
G01X37487Y2056D01*
G01X37490Y2129D01*
G01X37487Y2205D01*
G01X37478Y2273D01*
G01X37465Y2334D01*
G01X37446Y2388D01*
G01X37423Y2434D01*
G01X37396Y2474D01*
G01X37366Y2508D01*
G01X37332Y2535D01*
G01X37296Y2555D01*
G01X37257Y2570D01*
G01X37217Y2578D01*
G37*

%LPD*%

%LPD*%
G36*
G01X53575Y2997D02*
G01X53500Y3003D01*
G01X53423Y2997D01*
G01X53356Y2982D01*
G01X53298Y2957D01*
G01X53251Y2924D01*
G01X53214Y2882D01*
G01X53186Y2834D01*
G01X53170Y2779D01*
G01X53164Y2718D01*
G01X53169Y2662D01*
G01X53185Y2610D01*
G01X53210Y2559D01*
G01X53246Y2512D01*
G01X53292Y2466D01*
G01X53350Y2421D01*
G01X53418Y2377D01*
G01X53497Y2332D01*
G01X53458Y2291D01*
G01X53416Y2245D01*
G01X53369Y2194D01*
G01X53314Y2137D01*
G01X53280Y2099D01*
G01X53247Y2062D01*
G01X53215Y2026D01*
G01X53183Y1991D01*
G01X53150Y1956D01*
G01X53118Y1921D01*
G01X53086Y1887D01*
G01X53052Y1852D01*
G01X53021Y1906D01*
G01X52993Y1960D01*
G01X52966Y2016D01*
G01X52942Y2075D01*
G01X52920Y2135D01*
G01X52900Y2198D01*
G01X52882Y2263D01*
G01X52867Y2330D01*
G01X53047Y2355D01*
G01X53047Y2434D01*
G01X52598Y2434D01*
G01X52598Y2355D01*
G01X52768Y2330D01*
G01X52787Y2252D01*
G01X52809Y2178D01*
G01X52834Y2109D01*
G01X52861Y2042D01*
G01X52891Y1977D01*
G01X52924Y1915D01*
G01X52960Y1854D01*
G01X52999Y1794D01*
G01X52788Y1568D01*
G01X52603Y1550D01*
G01X52608Y1476D01*
G01X52654Y1467D01*
G01X52694Y1461D01*
G01X52733Y1457D01*
G01X52773Y1456D01*
G01X52851Y1461D01*
G01X52917Y1477D01*
G01X52976Y1506D01*
G01X53030Y1553D01*
G01X53119Y1652D01*
G01X53157Y1611D01*
G01X53200Y1572D01*
G01X53248Y1539D01*
G01X53301Y1510D01*
G01X53360Y1486D01*
G01X53423Y1468D01*
G01X53493Y1458D01*
G01X53568Y1454D01*
G01X53636Y1457D01*
G01X53700Y1468D01*
G01X53759Y1485D01*
G01X53813Y1508D01*
G01X53863Y1537D01*
G01X53906Y1571D01*
G01X53945Y1610D01*
G01X53977Y1652D01*
G01X54002Y1699D01*
G01X54020Y1749D01*
G01X54031Y1802D01*
G01X54035Y1857D01*
G01X54033Y1906D01*
G01X54026Y1952D01*
G01X54015Y1997D01*
G01X53998Y2040D01*
G01X53977Y2080D01*
G01X53951Y2120D01*
G01X53920Y2157D01*
G01X53885Y2192D01*
G01X53845Y2226D01*
G01X53800Y2258D01*
G01X53750Y2288D01*
G01X53695Y2317D01*
G01X53710Y2335D01*
G01X53749Y2382D01*
G01X53781Y2427D01*
G01X53808Y2472D01*
G01X53829Y2516D01*
G01X53844Y2559D01*
G01X53855Y2602D01*
G01X53861Y2643D01*
G01X53863Y2685D01*
G01X53856Y2756D01*
G01X53835Y2819D01*
G01X53803Y2873D01*
G01X53759Y2919D01*
G01X53706Y2955D01*
G01X53644Y2981D01*
G01X53575Y2997D01*
G37*

%LPC*%
G36*
G01X53703Y2224D02*
G01X53649Y2261D01*
G01X53595Y2199D01*
G01X53539Y2134D01*
G01X53478Y2062D01*
G01X53408Y1979D01*
G01X53351Y1914D01*
G01X53293Y1848D01*
G01X53233Y1781D01*
G01X53172Y1710D01*
G01X53243Y1656D01*
G01X53324Y1617D01*
G01X53413Y1594D01*
G01X53507Y1586D01*
G01X53585Y1593D01*
G01X53654Y1614D01*
G01X53713Y1646D01*
G01X53763Y1688D01*
G01X53802Y1739D01*
G01X53830Y1794D01*
G01X53847Y1855D01*
G01X53853Y1918D01*
G01X53851Y1962D01*
G01X53843Y2007D01*
G01X53830Y2052D01*
G01X53810Y2097D01*
G01X53783Y2141D01*
G01X53747Y2184D01*
G01X53703Y2224D01*
G37*
G36*
G01X53582Y2913D02*
G01X53502Y2929D01*
G01X53424Y2915D01*
G01X53362Y2872D01*
G01X53321Y2805D01*
G01X53306Y2716D01*
G01X53311Y2666D01*
G01X53324Y2620D01*
G01X53345Y2576D01*
G01X53373Y2535D01*
G01X53408Y2495D01*
G01X53448Y2458D01*
G01X53493Y2421D01*
G01X53543Y2386D01*
G01X53558Y2405D01*
G01X53575Y2424D01*
G01X53591Y2444D01*
G01X53609Y2464D01*
G01X53659Y2537D01*
G01X53689Y2600D01*
G01X53704Y2659D01*
G01X53708Y2718D01*
G01X53692Y2802D01*
G01X53648Y2869D01*
G01X53582Y2913D01*
G37*

%LPD*%
G36*
G01X78925Y44905D02*
G01X78925Y46508D01*
G01X80030Y46508D01*
G01X80030Y44905D01*
G01X78925Y44905D01*
G37*
G36*
G01X78925Y51705D02*
G01X78925Y53308D01*
G01X80030Y53308D01*
G01X80030Y51705D01*
G01X78925Y51705D01*
G37*
G36*
G01X75925Y44905D02*
G01X75925Y46508D01*
G01X77030Y46508D01*
G01X77030Y44905D01*
G01X75925Y44905D01*
G37*
G36*
G01X75925Y51705D02*
G01X75925Y53308D01*
G01X77030Y53308D01*
G01X77030Y51705D01*
G01X75925Y51705D01*
G37*
G54D21*
G01X47467Y46439D03*
G01X49467Y46439D03*
G01X51467Y46439D03*
G01X53467Y46439D03*
G01X55466Y46439D03*
G01X57466Y46439D03*
G01X59466Y46439D03*
G54D23*
G01X1778Y48598D03*
G36*
G01X31369Y47709D02*
G01X31369Y49487D01*
G01X33147Y49487D01*
G01X33147Y47709D01*
G01X31369Y47709D01*
G37*
G01X29718Y48598D03*
G01X27178Y48598D03*
G01X24638Y48598D03*
G01X22098Y48598D03*
G01X19558Y48598D03*
G01X17018Y48598D03*
G01X14478Y48598D03*
G01X11938Y48598D03*
G01X9398Y48598D03*
G01X6858Y48598D03*
G01X4318Y48598D03*
G01X1905Y33104D03*
G36*
G01X31496Y32215D02*
G01X31496Y33993D01*
G01X33274Y33993D01*
G01X33274Y32215D01*
G01X31496Y32215D01*
G37*
G01X29845Y33104D03*
G01X27305Y33104D03*
G01X24765Y33104D03*
G01X22225Y33104D03*
G01X19685Y33104D03*
G01X17145Y33104D03*
G01X14605Y33104D03*
G01X12065Y33104D03*
G01X9525Y33104D03*
G01X6985Y33104D03*
G01X4445Y33104D03*
M00*
M02*
