G04 Layer: TopSilkLayer*
G04 EasyEDA v6.3.22, 2020-01-15T10:35:35+08:00*
G04 b15c4467bd8642d682841cabbe2267cb,0c247ba4ff554f47bef9fd8dabc8c001,10*
G04 Gerber Generator version 0.2*
G04 Scale: 100 percent, Rotated: No, Reflected: No *
G04 Dimensions in millimeters *
G04 leading zeros omitted , absolute positions ,3 integer and 3 decimal *
%FSLAX33Y33*%
%MOMM*%
G90*
G71D02*

%ADD10C,0.254000*%
%ADD16C,0.152400*%

%LPD*%
G54D10*
G01X74584Y4311D02*
G01X74584Y8811D01*
G01X79084Y8811D01*
G01X79084Y4311D01*
G01X74584Y4311D01*
G01X64297Y4311D02*
G01X64297Y8811D01*
G01X68797Y8811D01*
G01X68797Y4311D01*
G01X64297Y4311D01*
G01X15529Y18662D02*
G01X15529Y23162D01*
G01X20029Y23162D01*
G01X20029Y18662D01*
G01X15529Y18662D01*
G01X8036Y11169D02*
G01X8036Y15669D01*
G01X12536Y15669D01*
G01X12536Y11169D01*
G01X8036Y11169D01*
G01X23149Y11296D02*
G01X23149Y15796D01*
G01X27649Y15796D01*
G01X27649Y11296D01*
G01X23149Y11296D01*
G01X15656Y3676D02*
G01X15656Y8176D01*
G01X20156Y8176D01*
G01X20156Y3676D01*
G01X15656Y3676D01*
G01X46167Y45190D02*
G01X60766Y45190D01*
G01X60766Y47689D02*
G01X46167Y47689D01*
G01X46167Y45189D02*
G01X46167Y47689D01*
G01X60766Y47689D02*
G01X60766Y45190D01*
G54D16*
G01X73395Y6561D02*
G01X74175Y6561D01*
G01X74330Y6612D01*
G01X74434Y6716D01*
G01X74485Y6874D01*
G01X74485Y6978D01*
G01X74434Y7133D01*
G01X74330Y7237D01*
G01X74175Y7288D01*
G01X73395Y7288D01*
G01X73654Y7684D02*
G01X73604Y7684D01*
G01X73499Y7735D01*
G01X73446Y7788D01*
G01X73395Y7892D01*
G01X73395Y8098D01*
G01X73446Y8202D01*
G01X73499Y8256D01*
G01X73604Y8306D01*
G01X73708Y8306D01*
G01X73809Y8256D01*
G01X73967Y8152D01*
G01X74485Y7631D01*
G01X74485Y8360D01*
G01X63108Y6561D02*
G01X63888Y6561D01*
G01X64043Y6612D01*
G01X64147Y6716D01*
G01X64198Y6874D01*
G01X64198Y6978D01*
G01X64147Y7133D01*
G01X64043Y7237D01*
G01X63888Y7288D01*
G01X63108Y7288D01*
G01X63108Y7735D02*
G01X63108Y8306D01*
G01X63522Y7997D01*
G01X63522Y8152D01*
G01X63576Y8256D01*
G01X63627Y8306D01*
G01X63784Y8360D01*
G01X63888Y8360D01*
G01X64043Y8306D01*
G01X64147Y8202D01*
G01X64198Y8047D01*
G01X64198Y7892D01*
G01X64147Y7735D01*
G01X64094Y7684D01*
G01X63992Y7631D01*
G01X14340Y20912D02*
G01X15120Y20912D01*
G01X15275Y20963D01*
G01X15379Y21067D01*
G01X15430Y21225D01*
G01X15430Y21329D01*
G01X15379Y21484D01*
G01X15275Y21588D01*
G01X15120Y21639D01*
G01X14340Y21639D01*
G01X14340Y22503D02*
G01X15067Y21982D01*
G01X15067Y22762D01*
G01X14340Y22503D02*
G01X15430Y22503D01*
G01X6847Y13419D02*
G01X7627Y13419D01*
G01X7782Y13470D01*
G01X7886Y13574D01*
G01X7937Y13732D01*
G01X7937Y13836D01*
G01X7886Y13991D01*
G01X7782Y14095D01*
G01X7627Y14146D01*
G01X6847Y14146D01*
G01X6847Y15114D02*
G01X6847Y14593D01*
G01X7315Y14542D01*
G01X7261Y14593D01*
G01X7211Y14750D01*
G01X7211Y14905D01*
G01X7261Y15060D01*
G01X7366Y15164D01*
G01X7523Y15218D01*
G01X7627Y15218D01*
G01X7782Y15164D01*
G01X7886Y15060D01*
G01X7937Y14905D01*
G01X7937Y14750D01*
G01X7886Y14593D01*
G01X7833Y14542D01*
G01X7731Y14489D01*
G01X21960Y13546D02*
G01X22740Y13546D01*
G01X22895Y13597D01*
G01X22999Y13701D01*
G01X23050Y13859D01*
G01X23050Y13963D01*
G01X22999Y14118D01*
G01X22895Y14222D01*
G01X22740Y14273D01*
G01X21960Y14273D01*
G01X22115Y15241D02*
G01X22011Y15187D01*
G01X21960Y15032D01*
G01X21960Y14928D01*
G01X22011Y14773D01*
G01X22169Y14669D01*
G01X22428Y14616D01*
G01X22687Y14616D01*
G01X22895Y14669D01*
G01X22999Y14773D01*
G01X23050Y14928D01*
G01X23050Y14982D01*
G01X22999Y15137D01*
G01X22895Y15241D01*
G01X22740Y15291D01*
G01X22687Y15291D01*
G01X22532Y15241D01*
G01X22428Y15137D01*
G01X22374Y14982D01*
G01X22374Y14928D01*
G01X22428Y14773D01*
G01X22532Y14669D01*
G01X22687Y14616D01*
G01X14467Y5926D02*
G01X15247Y5926D01*
G01X15402Y5977D01*
G01X15506Y6081D01*
G01X15557Y6239D01*
G01X15557Y6343D01*
G01X15506Y6498D01*
G01X15402Y6602D01*
G01X15247Y6653D01*
G01X14467Y6653D01*
G01X14467Y7725D02*
G01X15557Y7204D01*
G01X14467Y6996D02*
G01X14467Y7725D01*
G01X53322Y48863D02*
G01X53322Y48083D01*
G01X53375Y47928D01*
G01X53479Y47824D01*
G01X53634Y47773D01*
G01X53738Y47773D01*
G01X53893Y47824D01*
G01X53997Y47928D01*
G01X54051Y48083D01*
G01X54051Y48863D01*
G01X54653Y48863D02*
G01X54498Y48812D01*
G01X54444Y48708D01*
G01X54444Y48604D01*
G01X54498Y48499D01*
G01X54599Y48446D01*
G01X54808Y48395D01*
G01X54965Y48344D01*
G01X55069Y48240D01*
G01X55120Y48136D01*
G01X55120Y47979D01*
G01X55069Y47875D01*
G01X55016Y47824D01*
G01X54861Y47773D01*
G01X54653Y47773D01*
G01X54498Y47824D01*
G01X54444Y47875D01*
G01X54394Y47979D01*
G01X54394Y48136D01*
G01X54444Y48240D01*
G01X54549Y48344D01*
G01X54703Y48395D01*
G01X54912Y48446D01*
G01X55016Y48499D01*
G01X55069Y48604D01*
G01X55069Y48708D01*
G01X55016Y48812D01*
G01X54861Y48863D01*
G01X54653Y48863D01*
G54D10*
G75*
G01X77757Y6562D02*
G03X77757Y6562I-922J0D01*
G01*
G75*
G01X75796Y7962D02*
G03X75796Y7962I-361J0D01*
G01*
G75*
G01X75796Y5162D02*
G03X75796Y5162I-361J0D01*
G01*
G75*
G01X78596Y5162D02*
G03X78596Y5162I-361J0D01*
G01*
G75*
G01X78596Y7962D02*
G03X78596Y7962I-361J0D01*
G01*
G75*
G01X67470Y6562D02*
G03X67470Y6562I-922J0D01*
G01*
G75*
G01X65509Y7962D02*
G03X65509Y7962I-361J0D01*
G01*
G75*
G01X65509Y5162D02*
G03X65509Y5162I-361J0D01*
G01*
G75*
G01X68309Y5162D02*
G03X68309Y5162I-361J0D01*
G01*
G75*
G01X68309Y7962D02*
G03X68309Y7962I-361J0D01*
G01*
G75*
G01X18702Y20913D02*
G03X18702Y20913I-922J0D01*
G01*
G75*
G01X16741Y22313D02*
G03X16741Y22313I-361J0D01*
G01*
G75*
G01X16741Y19513D02*
G03X16741Y19513I-361J0D01*
G01*
G75*
G01X19541Y19513D02*
G03X19541Y19513I-361J0D01*
G01*
G75*
G01X19541Y22313D02*
G03X19541Y22313I-361J0D01*
G01*
G75*
G01X11209Y13420D02*
G03X11209Y13420I-922J0D01*
G01*
G75*
G01X9248Y14820D02*
G03X9248Y14820I-361J0D01*
G01*
G75*
G01X9248Y12020D02*
G03X9248Y12020I-361J0D01*
G01*
G75*
G01X12048Y12020D02*
G03X12048Y12020I-361J0D01*
G01*
G75*
G01X12048Y14820D02*
G03X12048Y14820I-361J0D01*
G01*
G75*
G01X26322Y13547D02*
G03X26322Y13547I-922J0D01*
G01*
G75*
G01X24361Y14947D02*
G03X24361Y14947I-361J0D01*
G01*
G75*
G01X24361Y12147D02*
G03X24361Y12147I-361J0D01*
G01*
G75*
G01X27161Y12147D02*
G03X27161Y12147I-361J0D01*
G01*
G75*
G01X27161Y14947D02*
G03X27161Y14947I-361J0D01*
G01*
G75*
G01X18829Y5927D02*
G03X18829Y5927I-922J0D01*
G01*
G75*
G01X16868Y7327D02*
G03X16868Y7327I-361J0D01*
G01*
G75*
G01X16868Y4527D02*
G03X16868Y4527I-361J0D01*
G01*
G75*
G01X19668Y4527D02*
G03X19668Y4527I-361J0D01*
G01*
G75*
G01X19668Y7327D02*
G03X19668Y7327I-361J0D01*
G01*
M00*
M02*
