G04 Layer: TopSolderMaskLayer*
G04 EasyEDA v6.3.22, 2020-01-15T10:35:35+08:00*
G04 b15c4467bd8642d682841cabbe2267cb,0c247ba4ff554f47bef9fd8dabc8c001,10*
G04 Gerber Generator version 0.2*
G04 Scale: 100 percent, Rotated: No, Reflected: No *
G04 Dimensions in millimeters *
G04 leading zeros omitted , absolute positions ,3 integer and 3 decimal *
%FSLAX33Y33*%
%MOMM*%
G90*
G71D02*

%ADD17C,0.203200*%
%ADD19C,0.202997*%
%ADD21C,1.703197*%
%ADD23C,1.778000*%

%LPD*%
G54D19*
G01X63223Y3785D02*
G01X62484Y1847D01*
G01X63223Y3785D02*
G01X63962Y1847D01*
G01X62760Y2492D02*
G01X63685Y2492D01*
G01X72390Y3912D02*
G01X72390Y1974D01*
G01X72390Y3912D02*
G01X73220Y3912D01*
G01X73497Y3821D01*
G01X73591Y3729D01*
G01X73682Y3544D01*
G01X73682Y3359D01*
G01X73591Y3173D01*
G01X73497Y3082D01*
G01X73220Y2990D01*
G01X72390Y2990D02*
G01X73220Y2990D01*
G01X73497Y2896D01*
G01X73591Y2805D01*
G01X73682Y2619D01*
G01X73682Y2343D01*
G01X73591Y2157D01*
G01X73497Y2066D01*
G01X73220Y1974D01*
G01X72390Y1974D01*
G01X33020Y3023D02*
G01X33020Y1085D01*
G01X33020Y3023D02*
G01X33850Y3023D01*
G01X34127Y2932D01*
G01X34221Y2840D01*
G01X34312Y2655D01*
G01X34312Y2470D01*
G01X34221Y2284D01*
G01X34127Y2193D01*
G01X33850Y2101D01*
G01X33020Y2101D01*
G01X33667Y2101D02*
G01X34312Y1085D01*
G01X34922Y3023D02*
G01X34922Y1085D01*
G01X35532Y3023D02*
G01X35532Y1085D01*
G01X35532Y3023D02*
G01X36179Y3023D01*
G01X36456Y2932D01*
G01X36639Y2746D01*
G01X36733Y2561D01*
G01X36824Y2284D01*
G01X36824Y1824D01*
G01X36733Y1545D01*
G01X36639Y1362D01*
G01X36456Y1177D01*
G01X36179Y1085D01*
G01X35532Y1085D01*
G01X37434Y3023D02*
G01X37434Y1085D01*
G01X37434Y3023D02*
G01X38082Y3023D01*
G01X38359Y2932D01*
G01X38544Y2746D01*
G01X38635Y2561D01*
G01X38727Y2284D01*
G01X38727Y1824D01*
G01X38635Y1545D01*
G01X38544Y1362D01*
G01X38359Y1177D01*
G01X38082Y1085D01*
G01X37434Y1085D01*
G01X39336Y3023D02*
G01X39336Y1085D01*
G01X39336Y1085D02*
G01X40446Y1085D01*
G01X41056Y3023D02*
G01X41056Y1085D01*
G01X41056Y3023D02*
G01X42255Y3023D01*
G01X41056Y2101D02*
G01X41795Y2101D01*
G01X41056Y1085D02*
G01X42255Y1085D01*

%LPD*%
G36*
G01X12623Y38606D02*
G01X12298Y38611D01*
G01X12298Y38489D01*
G01X12580Y38433D01*
G01X12606Y38369D01*
G01X12622Y38304D01*
G01X12631Y38240D01*
G01X12633Y38177D01*
G01X12631Y38118D01*
G01X12623Y38063D01*
G01X12609Y38009D01*
G01X12590Y37958D01*
G01X12565Y37911D01*
G01X12536Y37866D01*
G01X12501Y37825D01*
G01X12461Y37787D01*
G01X12415Y37753D01*
G01X12365Y37723D01*
G01X12309Y37697D01*
G01X12248Y37676D01*
G01X12181Y37659D01*
G01X12110Y37646D01*
G01X12034Y37638D01*
G01X11953Y37636D01*
G01X11872Y37639D01*
G01X11797Y37647D01*
G01X11726Y37660D01*
G01X11660Y37679D01*
G01X11599Y37702D01*
G01X11543Y37729D01*
G01X11492Y37760D01*
G01X11447Y37796D01*
G01X11406Y37835D01*
G01X11371Y37877D01*
G01X11341Y37922D01*
G01X11316Y37970D01*
G01X11297Y38021D01*
G01X11283Y38073D01*
G01X11275Y38128D01*
G01X11272Y38184D01*
G01X11276Y38241D01*
G01X11286Y38299D01*
G01X11303Y38356D01*
G01X11328Y38413D01*
G01X11612Y38469D01*
G01X11612Y38591D01*
G01X11285Y38586D01*
G01X11256Y38530D01*
G01X11232Y38475D01*
G01X11213Y38420D01*
G01X11199Y38366D01*
G01X11188Y38313D01*
G01X11181Y38261D01*
G01X11177Y38210D01*
G01X11176Y38162D01*
G01X11178Y38097D01*
G01X11185Y38035D01*
G01X11197Y37975D01*
G01X11213Y37916D01*
G01X11233Y37860D01*
G01X11257Y37807D01*
G01X11286Y37756D01*
G01X11318Y37707D01*
G01X11354Y37662D01*
G01X11393Y37620D01*
G01X11437Y37581D01*
G01X11483Y37546D01*
G01X11532Y37514D01*
G01X11584Y37486D01*
G01X11639Y37462D01*
G01X11697Y37442D01*
G01X11758Y37426D01*
G01X11821Y37414D01*
G01X11886Y37407D01*
G01X11953Y37405D01*
G01X12021Y37407D01*
G01X12087Y37414D01*
G01X12151Y37425D01*
G01X12212Y37440D01*
G01X12271Y37460D01*
G01X12326Y37483D01*
G01X12378Y37510D01*
G01X12428Y37542D01*
G01X12474Y37576D01*
G01X12517Y37615D01*
G01X12556Y37656D01*
G01X12592Y37701D01*
G01X12624Y37749D01*
G01X12652Y37800D01*
G01X12676Y37854D01*
G01X12696Y37910D01*
G01X12712Y37970D01*
G01X12723Y38031D01*
G01X12730Y38095D01*
G01X12733Y38162D01*
G01X12731Y38221D01*
G01X12726Y38278D01*
G01X12718Y38335D01*
G01X12707Y38391D01*
G01X12691Y38447D01*
G01X12673Y38501D01*
G01X12650Y38554D01*
G01X12623Y38606D01*
G37*

%LPD*%
G36*
G01X12623Y37199D02*
G01X12298Y37204D01*
G01X12298Y37082D01*
G01X12580Y37026D01*
G01X12606Y36963D01*
G01X12622Y36898D01*
G01X12631Y36834D01*
G01X12633Y36772D01*
G01X12631Y36713D01*
G01X12623Y36657D01*
G01X12609Y36603D01*
G01X12590Y36552D01*
G01X12565Y36505D01*
G01X12536Y36460D01*
G01X12501Y36418D01*
G01X12461Y36381D01*
G01X12415Y36347D01*
G01X12365Y36316D01*
G01X12309Y36290D01*
G01X12248Y36269D01*
G01X12181Y36252D01*
G01X12110Y36239D01*
G01X12034Y36231D01*
G01X11953Y36229D01*
G01X11872Y36232D01*
G01X11797Y36240D01*
G01X11726Y36253D01*
G01X11660Y36271D01*
G01X11599Y36295D01*
G01X11543Y36322D01*
G01X11492Y36354D01*
G01X11447Y36389D01*
G01X11406Y36428D01*
G01X11371Y36470D01*
G01X11341Y36516D01*
G01X11316Y36564D01*
G01X11297Y36615D01*
G01X11283Y36668D01*
G01X11275Y36723D01*
G01X11272Y36780D01*
G01X11276Y36836D01*
G01X11286Y36892D01*
G01X11303Y36949D01*
G01X11328Y37006D01*
G01X11612Y37062D01*
G01X11612Y37184D01*
G01X11285Y37179D01*
G01X11256Y37124D01*
G01X11232Y37069D01*
G01X11213Y37015D01*
G01X11199Y36961D01*
G01X11188Y36907D01*
G01X11181Y36855D01*
G01X11177Y36804D01*
G01X11176Y36754D01*
G01X11178Y36690D01*
G01X11185Y36628D01*
G01X11197Y36568D01*
G01X11213Y36509D01*
G01X11233Y36453D01*
G01X11257Y36400D01*
G01X11286Y36349D01*
G01X11318Y36301D01*
G01X11354Y36256D01*
G01X11393Y36214D01*
G01X11437Y36176D01*
G01X11483Y36140D01*
G01X11532Y36109D01*
G01X11584Y36081D01*
G01X11639Y36057D01*
G01X11697Y36037D01*
G01X11758Y36021D01*
G01X11821Y36009D01*
G01X11886Y36003D01*
G01X11953Y36000D01*
G01X12021Y36002D01*
G01X12087Y36009D01*
G01X12151Y36020D01*
G01X12212Y36035D01*
G01X12271Y36055D01*
G01X12326Y36078D01*
G01X12378Y36105D01*
G01X12428Y36136D01*
G01X12474Y36171D01*
G01X12517Y36209D01*
G01X12556Y36250D01*
G01X12592Y36295D01*
G01X12624Y36342D01*
G01X12652Y36393D01*
G01X12676Y36447D01*
G01X12696Y36504D01*
G01X12712Y36562D01*
G01X12723Y36624D01*
G01X12730Y36688D01*
G01X12733Y36754D01*
G01X12731Y36814D01*
G01X12726Y36872D01*
G01X12718Y36929D01*
G01X12707Y36985D01*
G01X12691Y37040D01*
G01X12673Y37094D01*
G01X12650Y37147D01*
G01X12623Y37199D01*
G37*

%LPD*%
G36*
G01X11285Y35972D02*
G01X11211Y35972D01*
G01X11211Y35462D01*
G01X11295Y35462D01*
G01X11315Y35667D01*
G01X12433Y35307D01*
G01X11313Y34916D01*
G01X11295Y35134D01*
G01X11211Y35134D01*
G01X11211Y34529D01*
G01X11287Y34529D01*
G01X11305Y34700D01*
G01X12715Y35218D01*
G01X12715Y35312D01*
G01X11313Y35779D01*
G01X11285Y35972D01*
G37*

%LPD*%
G54D17*
G01X998Y7196D02*
G01X2936Y7936D01*
G01X998Y8675D02*
G01X2936Y7936D01*
G01X1460Y9376D02*
G01X1366Y9376D01*
G01X1181Y9470D01*
G01X1089Y9561D01*
G01X998Y9747D01*
G01X998Y10115D01*
G01X1089Y10300D01*
G01X1181Y10392D01*
G01X1366Y10486D01*
G01X1551Y10486D01*
G01X1737Y10392D01*
G01X2014Y10206D01*
G01X2936Y9284D01*
G01X2936Y10577D01*
G01X2476Y11278D02*
G01X2567Y11187D01*
G01X2659Y11278D01*
G01X2567Y11372D01*
G01X2476Y11278D01*
G01X1366Y11982D02*
G01X1275Y12165D01*
G01X998Y12442D01*
G01X2936Y12442D01*

%LPD*%
G36*
G01X9321Y38517D02*
G01X9321Y38624D01*
G01X8925Y38611D01*
G01X8925Y37389D01*
G01X9321Y37372D01*
G01X9321Y37483D01*
G01X9022Y37544D01*
G01X9022Y37892D01*
G01X9169Y37895D01*
G01X9317Y37897D01*
G01X10020Y37897D01*
G01X10093Y37896D01*
G01X10167Y37895D01*
G01X10312Y37892D01*
G01X10337Y37664D01*
G01X10414Y37664D01*
G01X10414Y38334D01*
G01X10337Y38334D01*
G01X10312Y38103D01*
G01X10239Y38102D01*
G01X10165Y38102D01*
G01X10092Y38101D01*
G01X9243Y38101D01*
G01X9095Y38102D01*
G01X9022Y38103D01*
G01X9022Y38454D01*
G01X9321Y38517D01*
G37*

%LPD*%
G36*
G01X10086Y37255D02*
G01X10022Y37260D01*
G01X9972Y37257D01*
G01X9925Y37250D01*
G01X9881Y37238D01*
G01X9839Y37220D01*
G01X9800Y37196D01*
G01X9763Y37167D01*
G01X9728Y37132D01*
G01X9695Y37090D01*
G01X9663Y37041D01*
G01X9632Y36986D01*
G01X9602Y36924D01*
G01X9573Y36854D01*
G01X9537Y36762D01*
G01X9512Y36705D01*
G01X9485Y36655D01*
G01X9455Y36612D01*
G01X9422Y36576D01*
G01X9385Y36548D01*
G01X9344Y36527D01*
G01X9298Y36515D01*
G01X9248Y36511D01*
G01X9188Y36517D01*
G01X9135Y36534D01*
G01X9090Y36562D01*
G01X9053Y36599D01*
G01X9024Y36645D01*
G01X9003Y36698D01*
G01X8990Y36758D01*
G01X8986Y36823D01*
G01X8989Y36872D01*
G01X8997Y36917D01*
G01X9011Y36960D01*
G01X9032Y37003D01*
G01X9298Y37059D01*
G01X9298Y37176D01*
G01X9006Y37189D01*
G01X8981Y37152D01*
G01X8958Y37113D01*
G01X8938Y37071D01*
G01X8922Y37027D01*
G01X8908Y36981D01*
G01X8898Y36931D01*
G01X8892Y36878D01*
G01X8890Y36823D01*
G01X8893Y36754D01*
G01X8902Y36689D01*
G01X8917Y36628D01*
G01X8938Y36571D01*
G01X8965Y36518D01*
G01X8997Y36470D01*
G01X9034Y36429D01*
G01X9077Y36394D01*
G01X9125Y36366D01*
G01X9178Y36345D01*
G01X9236Y36332D01*
G01X9298Y36328D01*
G01X9352Y36331D01*
G01X9403Y36340D01*
G01X9449Y36355D01*
G01X9492Y36376D01*
G01X9532Y36402D01*
G01X9569Y36433D01*
G01X9604Y36468D01*
G01X9636Y36509D01*
G01X9665Y36554D01*
G01X9693Y36603D01*
G01X9719Y36655D01*
G01X9779Y36795D01*
G01X9808Y36865D01*
G01X9837Y36924D01*
G01X9867Y36972D01*
G01X9900Y37012D01*
G01X9935Y37041D01*
G01X9975Y37061D01*
G01X10020Y37073D01*
G01X10071Y37077D01*
G01X10134Y37070D01*
G01X10190Y37052D01*
G01X10237Y37021D01*
G01X10277Y36979D01*
G01X10307Y36928D01*
G01X10330Y36867D01*
G01X10343Y36798D01*
G01X10347Y36721D01*
G01X10344Y36654D01*
G01X10335Y36595D01*
G01X10319Y36541D01*
G01X10294Y36488D01*
G01X10015Y36429D01*
G01X10015Y36315D01*
G01X10327Y36302D01*
G01X10351Y36343D01*
G01X10374Y36389D01*
G01X10394Y36440D01*
G01X10411Y36493D01*
G01X10426Y36551D01*
G01X10437Y36610D01*
G01X10444Y36672D01*
G01X10447Y36734D01*
G01X10443Y36810D01*
G01X10433Y36880D01*
G01X10418Y36947D01*
G01X10395Y37008D01*
G01X10367Y37064D01*
G01X10334Y37113D01*
G01X10294Y37156D01*
G01X10250Y37192D01*
G01X10200Y37221D01*
G01X10145Y37243D01*
G01X10086Y37255D01*
G37*

%LPD*%
G36*
G01X10414Y36175D02*
G01X10337Y36175D01*
G01X10320Y36003D01*
G01X9972Y35898D01*
G01X9911Y35878D01*
G01X9859Y35855D01*
G01X9815Y35829D01*
G01X9777Y35800D01*
G01X9746Y35766D01*
G01X9722Y35727D01*
G01X9703Y35684D01*
G01X9690Y35634D01*
G01X9676Y35695D01*
G01X9659Y35751D01*
G01X9637Y35801D01*
G01X9612Y35846D01*
G01X9583Y35886D01*
G01X9551Y35920D01*
G01X9516Y35949D01*
G01X9479Y35973D01*
G01X9440Y35991D01*
G01X9400Y36005D01*
G01X9357Y36013D01*
G01X9314Y36015D01*
G01X9254Y36011D01*
G01X9199Y35999D01*
G01X9149Y35979D01*
G01X9103Y35951D01*
G01X9063Y35916D01*
G01X9027Y35874D01*
G01X8996Y35825D01*
G01X8971Y35768D01*
G01X8951Y35705D01*
G01X8937Y35636D01*
G01X8928Y35561D01*
G01X8925Y35479D01*
G01X8925Y34855D01*
G01X9001Y34855D01*
G01X9024Y35063D01*
G01X9097Y35064D01*
G01X9245Y35065D01*
G01X10094Y35065D01*
G01X10168Y35064D01*
G01X10241Y35064D01*
G01X10314Y35063D01*
G01X10337Y34855D01*
G01X10414Y34855D01*
G01X10414Y35482D01*
G01X10337Y35482D01*
G01X10312Y35274D01*
G01X10240Y35272D01*
G01X10168Y35271D01*
G01X10095Y35270D01*
G01X10021Y35269D01*
G01X9718Y35269D01*
G01X9718Y35388D01*
G01X9720Y35452D01*
G01X9727Y35507D01*
G01X9740Y35553D01*
G01X9761Y35592D01*
G01X9790Y35623D01*
G01X9829Y35650D01*
G01X9879Y35672D01*
G01X9941Y35690D01*
G01X10294Y35782D01*
G01X10360Y35808D01*
G01X10404Y35852D01*
G01X10429Y35917D01*
G01X10436Y36008D01*
G01X10435Y36057D01*
G01X10431Y36101D01*
G01X10424Y36141D01*
G01X10414Y36175D01*
G37*

%LPC*%
G36*
G01X9378Y35801D02*
G01X9311Y35807D01*
G01X9244Y35802D01*
G01X9184Y35787D01*
G01X9133Y35761D01*
G01X9090Y35724D01*
G01X9056Y35677D01*
G01X9031Y35619D01*
G01X9017Y35548D01*
G01X9011Y35467D01*
G01X9011Y35274D01*
G01X9160Y35271D01*
G01X9234Y35270D01*
G01X9310Y35269D01*
G01X9634Y35269D01*
G01X9634Y35451D01*
G01X9628Y35535D01*
G01X9609Y35607D01*
G01X9580Y35668D01*
G01X9542Y35718D01*
G01X9495Y35757D01*
G01X9440Y35785D01*
G01X9378Y35801D01*
G37*

%LPD*%

%LPD*%
G36*
G01X14778Y37502D02*
G01X14719Y37506D01*
G01X14670Y37504D01*
G01X14623Y37497D01*
G01X14579Y37484D01*
G01X14538Y37468D01*
G01X14499Y37445D01*
G01X14464Y37418D01*
G01X14432Y37386D01*
G01X14403Y37349D01*
G01X14378Y37306D01*
G01X14356Y37258D01*
G01X14339Y37205D01*
G01X14325Y37146D01*
G01X14299Y37217D01*
G01X14266Y37281D01*
G01X14227Y37335D01*
G01X14182Y37379D01*
G01X14132Y37414D01*
G01X14078Y37440D01*
G01X14019Y37456D01*
G01X13957Y37461D01*
G01X13904Y37457D01*
G01X13854Y37447D01*
G01X13808Y37431D01*
G01X13766Y37409D01*
G01X13727Y37381D01*
G01X13693Y37347D01*
G01X13664Y37308D01*
G01X13639Y37263D01*
G01X13619Y37214D01*
G01X13605Y37160D01*
G01X13597Y37101D01*
G01X13594Y37039D01*
G01X13598Y36964D01*
G01X13611Y36893D01*
G01X13633Y36828D01*
G01X13664Y36769D01*
G01X13703Y36718D01*
G01X13752Y36676D01*
G01X13810Y36644D01*
G01X13878Y36622D01*
G01X13915Y36641D01*
G01X13940Y36665D01*
G01X13953Y36694D01*
G01X13957Y36727D01*
G01X13949Y36773D01*
G01X13924Y36807D01*
G01X13882Y36833D01*
G01X13822Y36854D01*
G01X13693Y36889D01*
G01X13687Y36919D01*
G01X13682Y36946D01*
G01X13680Y36972D01*
G01X13680Y36996D01*
G01X13685Y37058D01*
G01X13699Y37113D01*
G01X13722Y37160D01*
G01X13754Y37200D01*
G01X13795Y37231D01*
G01X13844Y37254D01*
G01X13901Y37268D01*
G01X13967Y37273D01*
G01X14037Y37267D01*
G01X14099Y37250D01*
G01X14152Y37223D01*
G01X14196Y37185D01*
G01X14231Y37139D01*
G01X14257Y37083D01*
G01X14272Y37019D01*
G01X14277Y36948D01*
G01X14277Y36861D01*
G01X14376Y36861D01*
G01X14376Y36965D01*
G01X14382Y37047D01*
G01X14400Y37117D01*
G01X14429Y37176D01*
G01X14468Y37225D01*
G01X14517Y37262D01*
G01X14574Y37289D01*
G01X14640Y37305D01*
G01X14714Y37311D01*
G01X14786Y37305D01*
G01X14852Y37288D01*
G01X14910Y37261D01*
G01X14961Y37223D01*
G01X15001Y37175D01*
G01X15031Y37118D01*
G01X15050Y37051D01*
G01X15057Y36975D01*
G01X15056Y36945D01*
G01X15053Y36914D01*
G01X15047Y36882D01*
G01X15039Y36848D01*
G01X14907Y36813D01*
G01X14841Y36792D01*
G01X14797Y36767D01*
G01X14770Y36735D01*
G01X14762Y36691D01*
G01X14766Y36657D01*
G01X14778Y36628D01*
G01X14801Y36603D01*
G01X14833Y36582D01*
G01X14908Y36603D01*
G01X14971Y36635D01*
G01X15024Y36676D01*
G01X15067Y36728D01*
G01X15099Y36787D01*
G01X15123Y36854D01*
G01X15136Y36928D01*
G01X15140Y37008D01*
G01X15137Y37081D01*
G01X15126Y37149D01*
G01X15109Y37212D01*
G01X15085Y37270D01*
G01X15056Y37322D01*
G01X15021Y37369D01*
G01X14981Y37409D01*
G01X14937Y37443D01*
G01X14887Y37470D01*
G01X14835Y37490D01*
G01X14778Y37502D01*
G37*

%LPD*%
G36*
G01X15113Y36465D02*
G01X15036Y36465D01*
G01X15016Y36290D01*
G01X13614Y35810D01*
G01X13614Y35680D01*
G01X15006Y35208D01*
G01X15036Y35025D01*
G01X15113Y35025D01*
G01X15113Y35523D01*
G01X15036Y35523D01*
G01X15006Y35304D01*
G01X14620Y35431D01*
G01X14620Y35949D01*
G01X15008Y36079D01*
G01X15036Y35858D01*
G01X15113Y35858D01*
G01X15113Y36465D01*
G37*

%LPC*%
G36*
G01X14531Y35462D02*
G01X14531Y35919D01*
G01X13840Y35688D01*
G01X14531Y35462D01*
G37*

%LPD*%

%LPD*%
G36*
G01X5130Y38606D02*
G01X4805Y38611D01*
G01X4805Y38489D01*
G01X5087Y38433D01*
G01X5113Y38369D01*
G01X5129Y38304D01*
G01X5138Y38240D01*
G01X5140Y38177D01*
G01X5138Y38118D01*
G01X5130Y38063D01*
G01X5116Y38009D01*
G01X5097Y37958D01*
G01X5072Y37911D01*
G01X5043Y37866D01*
G01X5008Y37825D01*
G01X4968Y37787D01*
G01X4922Y37753D01*
G01X4872Y37723D01*
G01X4816Y37697D01*
G01X4755Y37676D01*
G01X4688Y37659D01*
G01X4617Y37646D01*
G01X4541Y37638D01*
G01X4460Y37636D01*
G01X4379Y37639D01*
G01X4304Y37647D01*
G01X4233Y37660D01*
G01X4167Y37679D01*
G01X4106Y37702D01*
G01X4050Y37729D01*
G01X3999Y37760D01*
G01X3954Y37796D01*
G01X3913Y37835D01*
G01X3878Y37877D01*
G01X3848Y37922D01*
G01X3823Y37970D01*
G01X3804Y38021D01*
G01X3790Y38073D01*
G01X3782Y38128D01*
G01X3779Y38184D01*
G01X3783Y38241D01*
G01X3793Y38299D01*
G01X3810Y38356D01*
G01X3835Y38413D01*
G01X4119Y38469D01*
G01X4119Y38591D01*
G01X3792Y38586D01*
G01X3763Y38530D01*
G01X3739Y38475D01*
G01X3720Y38420D01*
G01X3706Y38366D01*
G01X3695Y38313D01*
G01X3688Y38261D01*
G01X3684Y38210D01*
G01X3683Y38162D01*
G01X3685Y38097D01*
G01X3692Y38035D01*
G01X3704Y37975D01*
G01X3720Y37916D01*
G01X3740Y37860D01*
G01X3764Y37807D01*
G01X3793Y37756D01*
G01X3825Y37707D01*
G01X3861Y37662D01*
G01X3900Y37620D01*
G01X3944Y37581D01*
G01X3990Y37546D01*
G01X4039Y37514D01*
G01X4091Y37486D01*
G01X4146Y37462D01*
G01X4204Y37442D01*
G01X4265Y37426D01*
G01X4328Y37414D01*
G01X4393Y37407D01*
G01X4460Y37405D01*
G01X4528Y37407D01*
G01X4594Y37414D01*
G01X4658Y37425D01*
G01X4719Y37440D01*
G01X4778Y37460D01*
G01X4833Y37483D01*
G01X4885Y37510D01*
G01X4935Y37542D01*
G01X4981Y37576D01*
G01X5024Y37615D01*
G01X5063Y37656D01*
G01X5099Y37701D01*
G01X5131Y37749D01*
G01X5159Y37800D01*
G01X5183Y37854D01*
G01X5203Y37910D01*
G01X5219Y37970D01*
G01X5230Y38031D01*
G01X5237Y38095D01*
G01X5240Y38162D01*
G01X5238Y38221D01*
G01X5233Y38278D01*
G01X5225Y38335D01*
G01X5214Y38391D01*
G01X5198Y38447D01*
G01X5180Y38501D01*
G01X5157Y38554D01*
G01X5130Y38606D01*
G37*

%LPD*%
G36*
G01X5130Y37199D02*
G01X4805Y37204D01*
G01X4805Y37082D01*
G01X5087Y37026D01*
G01X5113Y36963D01*
G01X5129Y36898D01*
G01X5138Y36834D01*
G01X5140Y36772D01*
G01X5138Y36713D01*
G01X5130Y36657D01*
G01X5116Y36603D01*
G01X5097Y36552D01*
G01X5072Y36505D01*
G01X5043Y36460D01*
G01X5008Y36418D01*
G01X4968Y36381D01*
G01X4922Y36347D01*
G01X4872Y36316D01*
G01X4816Y36290D01*
G01X4755Y36269D01*
G01X4688Y36252D01*
G01X4617Y36239D01*
G01X4541Y36231D01*
G01X4460Y36229D01*
G01X4379Y36232D01*
G01X4304Y36240D01*
G01X4233Y36253D01*
G01X4167Y36271D01*
G01X4106Y36295D01*
G01X4050Y36322D01*
G01X3999Y36354D01*
G01X3954Y36389D01*
G01X3913Y36428D01*
G01X3878Y36470D01*
G01X3848Y36516D01*
G01X3823Y36564D01*
G01X3804Y36615D01*
G01X3790Y36668D01*
G01X3782Y36723D01*
G01X3779Y36780D01*
G01X3783Y36836D01*
G01X3793Y36892D01*
G01X3810Y36949D01*
G01X3835Y37006D01*
G01X4119Y37062D01*
G01X4119Y37184D01*
G01X3792Y37179D01*
G01X3763Y37124D01*
G01X3739Y37069D01*
G01X3720Y37015D01*
G01X3706Y36961D01*
G01X3695Y36907D01*
G01X3688Y36855D01*
G01X3684Y36804D01*
G01X3683Y36754D01*
G01X3685Y36690D01*
G01X3692Y36628D01*
G01X3704Y36568D01*
G01X3720Y36509D01*
G01X3740Y36453D01*
G01X3764Y36400D01*
G01X3793Y36349D01*
G01X3825Y36301D01*
G01X3861Y36256D01*
G01X3900Y36214D01*
G01X3944Y36176D01*
G01X3990Y36140D01*
G01X4039Y36109D01*
G01X4091Y36081D01*
G01X4146Y36057D01*
G01X4204Y36037D01*
G01X4265Y36021D01*
G01X4328Y36009D01*
G01X4393Y36003D01*
G01X4460Y36000D01*
G01X4528Y36002D01*
G01X4594Y36009D01*
G01X4658Y36020D01*
G01X4719Y36035D01*
G01X4778Y36055D01*
G01X4833Y36078D01*
G01X4885Y36105D01*
G01X4935Y36136D01*
G01X4981Y36171D01*
G01X5024Y36209D01*
G01X5063Y36250D01*
G01X5099Y36295D01*
G01X5131Y36342D01*
G01X5159Y36393D01*
G01X5183Y36447D01*
G01X5203Y36504D01*
G01X5219Y36562D01*
G01X5230Y36624D01*
G01X5237Y36688D01*
G01X5240Y36754D01*
G01X5238Y36814D01*
G01X5233Y36872D01*
G01X5225Y36929D01*
G01X5214Y36985D01*
G01X5198Y37040D01*
G01X5180Y37094D01*
G01X5157Y37147D01*
G01X5130Y37199D01*
G37*

%LPD*%
G36*
G01X3792Y35972D02*
G01X3718Y35972D01*
G01X3718Y35462D01*
G01X3802Y35462D01*
G01X3822Y35667D01*
G01X4940Y35307D01*
G01X3820Y34916D01*
G01X3802Y35134D01*
G01X3718Y35134D01*
G01X3718Y34529D01*
G01X3794Y34529D01*
G01X3812Y34700D01*
G01X5222Y35218D01*
G01X5222Y35312D01*
G01X3820Y35779D01*
G01X3792Y35972D01*
G37*

%LPD*%

%LPD*%
G36*
G01X6945Y39104D02*
G01X6875Y39107D01*
G01X6805Y39104D01*
G01X6738Y39098D01*
G01X6674Y39087D01*
G01X6614Y39072D01*
G01X6556Y39054D01*
G01X6503Y39032D01*
G01X6453Y39006D01*
G01X6406Y38976D01*
G01X6363Y38943D01*
G01X6323Y38906D01*
G01X6287Y38867D01*
G01X6255Y38824D01*
G01X6226Y38778D01*
G01X6201Y38730D01*
G01X6180Y38678D01*
G01X6163Y38624D01*
G01X6149Y38567D01*
G01X6139Y38508D01*
G01X6133Y38446D01*
G01X6131Y38383D01*
G01X6131Y37735D01*
G01X6207Y37735D01*
G01X6230Y37941D01*
G01X6377Y37944D01*
G01X6451Y37945D01*
G01X6599Y37945D01*
G01X6674Y37946D01*
G01X7065Y37946D01*
G01X7145Y37945D01*
G01X7298Y37945D01*
G01X7373Y37944D01*
G01X7520Y37941D01*
G01X7543Y37735D01*
G01X7620Y37735D01*
G01X7620Y38342D01*
G01X7617Y38408D01*
G01X7611Y38471D01*
G01X7602Y38532D01*
G01X7588Y38591D01*
G01X7570Y38648D01*
G01X7549Y38702D01*
G01X7524Y38753D01*
G01X7495Y38802D01*
G01X7463Y38847D01*
G01X7426Y38890D01*
G01X7387Y38929D01*
G01X7344Y38965D01*
G01X7297Y38997D01*
G01X7247Y39025D01*
G01X7193Y39049D01*
G01X7136Y39069D01*
G01X7076Y39085D01*
G01X7012Y39097D01*
G01X6945Y39104D01*
G37*

%LPC*%
G36*
G01X6951Y38873D02*
G01X6875Y38875D01*
G01X6797Y38873D01*
G01X6724Y38866D01*
G01X6655Y38856D01*
G01X6591Y38840D01*
G01X6532Y38821D01*
G01X6479Y38797D01*
G01X6429Y38769D01*
G01X6386Y38737D01*
G01X6346Y38701D01*
G01X6312Y38662D01*
G01X6283Y38618D01*
G01X6260Y38571D01*
G01X6241Y38520D01*
G01X6228Y38466D01*
G01X6220Y38408D01*
G01X6217Y38347D01*
G01X6217Y38154D01*
G01X6367Y38151D01*
G01X6442Y38150D01*
G01X6518Y38149D01*
G01X7225Y38149D01*
G01X7303Y38150D01*
G01X7455Y38152D01*
G01X7531Y38154D01*
G01X7531Y38327D01*
G01X7528Y38391D01*
G01X7519Y38452D01*
G01X7506Y38510D01*
G01X7486Y38562D01*
G01X7462Y38612D01*
G01X7433Y38656D01*
G01X7398Y38698D01*
G01X7358Y38735D01*
G01X7314Y38767D01*
G01X7264Y38796D01*
G01X7211Y38820D01*
G01X7152Y38840D01*
G01X7090Y38855D01*
G01X7022Y38866D01*
G01X6951Y38873D01*
G37*

%LPD*%
G36*
G01X6207Y37565D02*
G01X6131Y37565D01*
G01X6131Y37039D01*
G01X6207Y37039D01*
G01X6235Y37278D01*
G01X7269Y37280D01*
G01X6131Y36457D01*
G01X6131Y36114D01*
G01X6207Y36114D01*
G01X6228Y36274D01*
G01X6256Y36295D01*
G01X7515Y36292D01*
G01X7543Y36104D01*
G01X7620Y36104D01*
G01X7620Y36630D01*
G01X7543Y36630D01*
G01X7513Y36394D01*
G01X6385Y36389D01*
G01X7635Y37298D01*
G01X7635Y37377D01*
G01X6233Y37379D01*
G01X6207Y37565D01*
G37*

%LPD*%
G36*
G01X6987Y35985D02*
G01X6911Y35985D01*
G01X6911Y35406D01*
G01X6987Y35406D01*
G01X7005Y35642D01*
G01X7057Y35643D01*
G01X7162Y35644D01*
G01X7510Y35644D01*
G01X7530Y35584D01*
G01X7543Y35523D01*
G01X7551Y35461D01*
G01X7553Y35396D01*
G01X7550Y35333D01*
G01X7542Y35274D01*
G01X7527Y35218D01*
G01X7507Y35165D01*
G01X7481Y35116D01*
G01X7451Y35070D01*
G01X7414Y35028D01*
G01X7373Y34990D01*
G01X7327Y34956D01*
G01X7276Y34926D01*
G01X7220Y34900D01*
G01X7159Y34878D01*
G01X7094Y34862D01*
G01X7025Y34849D01*
G01X6950Y34842D01*
G01X6873Y34839D01*
G01X6794Y34842D01*
G01X6719Y34850D01*
G01X6650Y34863D01*
G01X6584Y34880D01*
G01X6524Y34903D01*
G01X6467Y34929D01*
G01X6417Y34960D01*
G01X6370Y34995D01*
G01X6329Y35033D01*
G01X6294Y35076D01*
G01X6263Y35121D01*
G01X6238Y35170D01*
G01X6218Y35221D01*
G01X6204Y35275D01*
G01X6195Y35332D01*
G01X6192Y35390D01*
G01X6196Y35457D01*
G01X6208Y35521D01*
G01X6229Y35583D01*
G01X6258Y35642D01*
G01X6535Y35695D01*
G01X6535Y35817D01*
G01X6205Y35812D01*
G01X6179Y35765D01*
G01X6156Y35717D01*
G01X6138Y35667D01*
G01X6122Y35614D01*
G01X6111Y35558D01*
G01X6102Y35498D01*
G01X6097Y35435D01*
G01X6096Y35368D01*
G01X6098Y35302D01*
G01X6105Y35238D01*
G01X6117Y35176D01*
G01X6133Y35117D01*
G01X6154Y35060D01*
G01X6178Y35006D01*
G01X6207Y34955D01*
G01X6240Y34907D01*
G01X6276Y34862D01*
G01X6315Y34820D01*
G01X6359Y34782D01*
G01X6405Y34747D01*
G01X6454Y34715D01*
G01X6506Y34688D01*
G01X6562Y34664D01*
G01X6619Y34644D01*
G01X6679Y34628D01*
G01X6742Y34617D01*
G01X6806Y34611D01*
G01X6873Y34608D01*
G01X6940Y34610D01*
G01X7006Y34617D01*
G01X7069Y34628D01*
G01X7129Y34643D01*
G01X7188Y34663D01*
G01X7243Y34686D01*
G01X7295Y34713D01*
G01X7345Y34744D01*
G01X7391Y34778D01*
G01X7434Y34816D01*
G01X7474Y34858D01*
G01X7510Y34902D01*
G01X7542Y34950D01*
G01X7571Y35000D01*
G01X7595Y35054D01*
G01X7615Y35110D01*
G01X7631Y35169D01*
G01X7643Y35230D01*
G01X7650Y35294D01*
G01X7653Y35360D01*
G01X7650Y35427D01*
G01X7644Y35491D01*
G01X7633Y35553D01*
G01X7618Y35613D01*
G01X7600Y35672D01*
G01X7577Y35730D01*
G01X7552Y35787D01*
G01X7523Y35845D01*
G01X7368Y35845D01*
G01X7314Y35846D01*
G01X7260Y35846D01*
G01X7208Y35847D01*
G01X7155Y35848D01*
G01X7103Y35848D01*
G01X7051Y35849D01*
G01X7000Y35850D01*
G01X6987Y35985D01*
G37*

%LPD*%

%LPD*%
G36*
G01X17780Y37509D02*
G01X17607Y37509D01*
G01X17607Y36737D01*
G01X17528Y36813D01*
G01X17455Y36885D01*
G01X17390Y36948D01*
G01X17338Y36998D01*
G01X17255Y37077D01*
G01X17180Y37147D01*
G01X17111Y37209D01*
G01X17048Y37262D01*
G01X16991Y37308D01*
G01X16938Y37347D01*
G01X16887Y37378D01*
G01X16840Y37403D01*
G01X16793Y37422D01*
G01X16748Y37435D01*
G01X16702Y37443D01*
G01X16654Y37445D01*
G01X16598Y37443D01*
G01X16545Y37435D01*
G01X16495Y37421D01*
G01X16450Y37402D01*
G01X16408Y37377D01*
G01X16371Y37346D01*
G01X16338Y37309D01*
G01X16311Y37266D01*
G01X16290Y37217D01*
G01X16274Y37162D01*
G01X16264Y37100D01*
G01X16261Y37031D01*
G01X16263Y36976D01*
G01X16270Y36924D01*
G01X16281Y36872D01*
G01X16298Y36824D01*
G01X16319Y36778D01*
G01X16344Y36736D01*
G01X16375Y36698D01*
G01X16409Y36665D01*
G01X16449Y36636D01*
G01X16493Y36613D01*
G01X16543Y36595D01*
G01X16596Y36584D01*
G01X16624Y36604D01*
G01X16646Y36629D01*
G01X16659Y36658D01*
G01X16664Y36691D01*
G01X16657Y36731D01*
G01X16632Y36764D01*
G01X16589Y36792D01*
G01X16525Y36813D01*
G01X16362Y36859D01*
G01X16356Y36892D01*
G01X16350Y36923D01*
G01X16348Y36952D01*
G01X16347Y36978D01*
G01X16353Y37038D01*
G01X16370Y37091D01*
G01X16397Y37138D01*
G01X16434Y37177D01*
G01X16480Y37208D01*
G01X16534Y37231D01*
G01X16596Y37245D01*
G01X16664Y37250D01*
G01X16709Y37248D01*
G01X16753Y37241D01*
G01X16798Y37230D01*
G01X16843Y37215D01*
G01X16889Y37196D01*
G01X16936Y37172D01*
G01X16984Y37144D01*
G01X17035Y37111D01*
G01X17087Y37073D01*
G01X17141Y37031D01*
G01X17199Y36984D01*
G01X17259Y36932D01*
G01X17302Y36894D01*
G01X17347Y36855D01*
G01X17393Y36814D01*
G01X17441Y36772D01*
G01X17490Y36729D01*
G01X17540Y36685D01*
G01X17591Y36640D01*
G01X17642Y36594D01*
G01X17780Y36594D01*
G01X17780Y37509D01*
G37*

%LPD*%
G36*
G01X17780Y36465D02*
G01X17703Y36465D01*
G01X17683Y36290D01*
G01X16281Y35810D01*
G01X16281Y35680D01*
G01X17673Y35208D01*
G01X17703Y35025D01*
G01X17780Y35025D01*
G01X17780Y35523D01*
G01X17703Y35523D01*
G01X17673Y35304D01*
G01X17287Y35431D01*
G01X17287Y35949D01*
G01X17675Y36079D01*
G01X17703Y35858D01*
G01X17780Y35858D01*
G01X17780Y36465D01*
G37*

%LPC*%
G36*
G01X17198Y35462D02*
G01X17198Y35919D01*
G01X16507Y35688D01*
G01X17198Y35462D01*
G37*

%LPD*%

%LPD*%
G36*
G01X30092Y37147D02*
G01X30017Y37151D01*
G01X29951Y37147D01*
G01X29889Y37138D01*
G01X29832Y37122D01*
G01X29779Y37099D01*
G01X29732Y37072D01*
G01X29691Y37039D01*
G01X29655Y37001D01*
G01X29625Y36959D01*
G01X29602Y36912D01*
G01X29584Y36861D01*
G01X29574Y36805D01*
G01X29570Y36747D01*
G01X29580Y36657D01*
G01X29607Y36571D01*
G01X29652Y36490D01*
G01X29715Y36417D01*
G01X29648Y36426D01*
G01X29585Y36439D01*
G01X29524Y36456D01*
G01X29467Y36478D01*
G01X29413Y36503D01*
G01X29361Y36533D01*
G01X29313Y36567D01*
G01X29268Y36606D01*
G01X29226Y36649D01*
G01X29187Y36697D01*
G01X29151Y36749D01*
G01X29119Y36807D01*
G01X29089Y36869D01*
G01X29063Y36936D01*
G01X29039Y37007D01*
G01X29019Y37085D01*
G01X28961Y37072D01*
G01X28970Y37004D01*
G01X28983Y36939D01*
G01X28999Y36877D01*
G01X29018Y36817D01*
G01X29040Y36760D01*
G01X29065Y36705D01*
G01X29092Y36653D01*
G01X29123Y36605D01*
G01X29155Y36558D01*
G01X29190Y36515D01*
G01X29227Y36474D01*
G01X29267Y36436D01*
G01X29308Y36401D01*
G01X29352Y36369D01*
G01X29397Y36340D01*
G01X29444Y36314D01*
G01X29492Y36290D01*
G01X29543Y36270D01*
G01X29595Y36253D01*
G01X29647Y36239D01*
G01X29701Y36228D01*
G01X29757Y36220D01*
G01X29813Y36215D01*
G01X29870Y36213D01*
G01X29943Y36215D01*
G01X30013Y36222D01*
G01X30078Y36233D01*
G01X30139Y36247D01*
G01X30196Y36266D01*
G01X30248Y36288D01*
G01X30296Y36314D01*
G01X30339Y36343D01*
G01X30378Y36377D01*
G01X30411Y36413D01*
G01X30440Y36452D01*
G01X30464Y36495D01*
G01X30483Y36541D01*
G01X30496Y36590D01*
G01X30505Y36642D01*
G01X30507Y36696D01*
G01X30504Y36762D01*
G01X30493Y36823D01*
G01X30475Y36880D01*
G01X30450Y36934D01*
G01X30418Y36982D01*
G01X30379Y37024D01*
G01X30335Y37061D01*
G01X30283Y37093D01*
G01X30226Y37118D01*
G01X30162Y37136D01*
G01X30092Y37147D01*
G37*

%LPC*%
G36*
G01X30136Y36955D02*
G01X30048Y36960D01*
G01X29961Y36955D01*
G01X29888Y36941D01*
G01X29826Y36918D01*
G01X29776Y36887D01*
G01X29738Y36849D01*
G01X29711Y36804D01*
G01X29695Y36752D01*
G01X29690Y36696D01*
G01X29695Y36623D01*
G01X29713Y36550D01*
G01X29746Y36478D01*
G01X29796Y36409D01*
G01X29842Y36409D01*
G01X29934Y36411D01*
G01X30019Y36418D01*
G01X30096Y36429D01*
G01X30165Y36444D01*
G01X30225Y36463D01*
G01X30278Y36487D01*
G01X30322Y36514D01*
G01X30359Y36544D01*
G01X30387Y36578D01*
G01X30407Y36616D01*
G01X30420Y36657D01*
G01X30424Y36701D01*
G01X30418Y36756D01*
G01X30400Y36806D01*
G01X30371Y36850D01*
G01X30330Y36888D01*
G01X30277Y36919D01*
G01X30212Y36941D01*
G01X30136Y36955D01*
G37*

%LPD*%
G36*
G01X30480Y35998D02*
G01X30411Y35998D01*
G01X30365Y35685D01*
G01X30277Y35683D01*
G01X30010Y35680D01*
G01X29311Y35680D01*
G01X28991Y35688D01*
G01X28968Y35657D01*
G01X29088Y35200D01*
G01X29164Y35200D01*
G01X29136Y35497D01*
G01X30099Y35497D01*
G01X30188Y35496D01*
G01X30277Y35494D01*
G01X30365Y35492D01*
G01X30411Y35177D01*
G01X30480Y35177D01*
G01X30480Y35998D01*
G37*

%LPD*%

%LPD*%
G36*
G01X32620Y37019D02*
G01X32517Y37021D01*
G01X32417Y37019D01*
G01X32324Y37011D01*
G01X32240Y36998D01*
G01X32163Y36982D01*
G01X32093Y36961D01*
G01X32031Y36936D01*
G01X31976Y36908D01*
G01X31927Y36877D01*
G01X31885Y36844D01*
G01X31849Y36808D01*
G01X31819Y36770D01*
G01X31795Y36730D01*
G01X31777Y36688D01*
G01X31765Y36646D01*
G01X31757Y36603D01*
G01X31755Y36559D01*
G01X31757Y36514D01*
G01X31765Y36470D01*
G01X31777Y36427D01*
G01X31795Y36385D01*
G01X31819Y36344D01*
G01X31849Y36305D01*
G01X31885Y36269D01*
G01X31927Y36234D01*
G01X31976Y36203D01*
G01X32031Y36175D01*
G01X32093Y36150D01*
G01X32163Y36129D01*
G01X32240Y36112D01*
G01X32324Y36099D01*
G01X32417Y36092D01*
G01X32517Y36089D01*
G01X32620Y36092D01*
G01X32716Y36099D01*
G01X32803Y36112D01*
G01X32882Y36129D01*
G01X32954Y36150D01*
G01X33018Y36175D01*
G01X33075Y36203D01*
G01X33125Y36234D01*
G01X33168Y36269D01*
G01X33205Y36305D01*
G01X33235Y36344D01*
G01X33260Y36385D01*
G01X33279Y36427D01*
G01X33291Y36470D01*
G01X33299Y36514D01*
G01X33301Y36559D01*
G01X33299Y36603D01*
G01X33291Y36646D01*
G01X33279Y36688D01*
G01X33260Y36730D01*
G01X33235Y36770D01*
G01X33205Y36808D01*
G01X33168Y36844D01*
G01X33125Y36877D01*
G01X33075Y36908D01*
G01X33018Y36936D01*
G01X32954Y36961D01*
G01X32882Y36982D01*
G01X32803Y36998D01*
G01X32716Y37011D01*
G01X32620Y37019D01*
G37*

%LPC*%
G36*
G01X32647Y36821D02*
G01X32517Y36823D01*
G01X32391Y36821D01*
G01X32281Y36813D01*
G01X32186Y36801D01*
G01X32105Y36785D01*
G01X32037Y36765D01*
G01X31980Y36742D01*
G01X31934Y36716D01*
G01X31899Y36688D01*
G01X31873Y36658D01*
G01X31856Y36626D01*
G01X31847Y36593D01*
G01X31843Y36559D01*
G01X31847Y36524D01*
G01X31856Y36489D01*
G01X31873Y36456D01*
G01X31899Y36425D01*
G01X31934Y36396D01*
G01X31980Y36369D01*
G01X32037Y36346D01*
G01X32105Y36326D01*
G01X32186Y36309D01*
G01X32281Y36297D01*
G01X32391Y36290D01*
G01X32517Y36287D01*
G01X32616Y36289D01*
G01X32707Y36293D01*
G01X32788Y36300D01*
G01X32861Y36309D01*
G01X32926Y36322D01*
G01X32983Y36335D01*
G01X33033Y36352D01*
G01X33076Y36369D01*
G01X33112Y36389D01*
G01X33142Y36411D01*
G01X33167Y36433D01*
G01X33186Y36456D01*
G01X33200Y36481D01*
G01X33211Y36507D01*
G01X33216Y36532D01*
G01X33218Y36559D01*
G01X33215Y36593D01*
G01X33204Y36626D01*
G01X33186Y36658D01*
G01X33159Y36688D01*
G01X33122Y36716D01*
G01X33075Y36742D01*
G01X33016Y36765D01*
G01X32944Y36785D01*
G01X32859Y36801D01*
G01X32761Y36813D01*
G01X32647Y36821D01*
G37*

%LPD*%
G36*
G01X33274Y35871D02*
G01X33205Y35871D01*
G01X33159Y35558D01*
G01X33071Y35556D01*
G01X32804Y35553D01*
G01X32105Y35553D01*
G01X31785Y35561D01*
G01X31762Y35530D01*
G01X31882Y35073D01*
G01X31958Y35073D01*
G01X31930Y35370D01*
G01X32893Y35370D01*
G01X32982Y35369D01*
G01X33071Y35367D01*
G01X33159Y35365D01*
G01X33205Y35050D01*
G01X33274Y35050D01*
G01X33274Y35871D01*
G37*

%LPD*%

%LPD*%
G36*
G01X24994Y37143D02*
G01X24940Y37146D01*
G01X24868Y37142D01*
G01X24802Y37129D01*
G01X24741Y37110D01*
G01X24686Y37084D01*
G01X24638Y37050D01*
G01X24595Y37011D01*
G01X24558Y36965D01*
G01X24528Y36914D01*
G01X24503Y36858D01*
G01X24487Y36796D01*
G01X24476Y36730D01*
G01X24472Y36660D01*
G01X24474Y36601D01*
G01X24481Y36545D01*
G01X24491Y36489D01*
G01X24505Y36434D01*
G01X24084Y36462D01*
G01X24084Y37105D01*
G01X23911Y37105D01*
G01X23911Y36376D01*
G01X24604Y36330D01*
G01X24622Y36386D01*
G01X24609Y36440D01*
G01X24599Y36494D01*
G01X24594Y36547D01*
G01X24592Y36600D01*
G01X24594Y36651D01*
G01X24602Y36700D01*
G01X24616Y36744D01*
G01X24634Y36785D01*
G01X24658Y36822D01*
G01X24687Y36855D01*
G01X24721Y36883D01*
G01X24759Y36906D01*
G01X24802Y36925D01*
G01X24849Y36939D01*
G01X24901Y36947D01*
G01X24958Y36950D01*
G01X25014Y36948D01*
G01X25067Y36940D01*
G01X25117Y36928D01*
G01X25161Y36911D01*
G01X25202Y36889D01*
G01X25238Y36863D01*
G01X25269Y36832D01*
G01X25295Y36797D01*
G01X25316Y36757D01*
G01X25331Y36713D01*
G01X25341Y36665D01*
G01X25344Y36612D01*
G01X25342Y36577D01*
G01X25338Y36542D01*
G01X25332Y36507D01*
G01X25323Y36473D01*
G01X25189Y36437D01*
G01X25121Y36416D01*
G01X25078Y36390D01*
G01X25056Y36358D01*
G01X25049Y36315D01*
G01X25054Y36281D01*
G01X25066Y36252D01*
G01X25089Y36228D01*
G01X25120Y36211D01*
G01X25192Y36232D01*
G01X25254Y36262D01*
G01X25307Y36301D01*
G01X25350Y36349D01*
G01X25384Y36406D01*
G01X25408Y36471D01*
G01X25422Y36544D01*
G01X25427Y36625D01*
G01X25425Y36683D01*
G01X25418Y36738D01*
G01X25408Y36790D01*
G01X25392Y36839D01*
G01X25373Y36885D01*
G01X25350Y36928D01*
G01X25323Y36967D01*
G01X25293Y37003D01*
G01X25259Y37035D01*
G01X25222Y37064D01*
G01X25182Y37088D01*
G01X25139Y37109D01*
G01X25093Y37125D01*
G01X25044Y37136D01*
G01X24994Y37143D01*
G37*

%LPD*%
G36*
G01X25400Y35998D02*
G01X25331Y35998D01*
G01X25285Y35685D01*
G01X25197Y35683D01*
G01X24930Y35680D01*
G01X24231Y35680D01*
G01X23911Y35688D01*
G01X23888Y35657D01*
G01X24008Y35200D01*
G01X24084Y35200D01*
G01X24056Y35497D01*
G01X25019Y35497D01*
G01X25108Y35496D01*
G01X25197Y35494D01*
G01X25285Y35492D01*
G01X25331Y35177D01*
G01X25400Y35177D01*
G01X25400Y35998D01*
G37*

%LPD*%

%LPD*%
G36*
G01X27604Y37204D02*
G01X27472Y37204D01*
G01X27472Y36968D01*
G01X26555Y36968D01*
G01X26555Y36843D01*
G01X27495Y36186D01*
G01X27604Y36186D01*
G01X27604Y36790D01*
G01X28067Y36790D01*
G01X28067Y36968D01*
G01X27604Y36968D01*
G01X27604Y37204D01*
G37*

%LPC*%
G36*
G01X27472Y36790D02*
G01X26763Y36790D01*
G01X27472Y36297D01*
G01X27472Y36790D01*
G37*

%LPD*%
G36*
G01X28067Y35998D02*
G01X27998Y35998D01*
G01X27952Y35685D01*
G01X27864Y35683D01*
G01X27597Y35680D01*
G01X26898Y35680D01*
G01X26578Y35688D01*
G01X26555Y35657D01*
G01X26675Y35200D01*
G01X26751Y35200D01*
G01X26723Y35497D01*
G01X27686Y35497D01*
G01X27775Y35496D01*
G01X27864Y35494D01*
G01X27952Y35492D01*
G01X27998Y35177D01*
G01X28067Y35177D01*
G01X28067Y35998D01*
G37*

%LPD*%

%LPD*%
G36*
G01X22079Y37379D02*
G01X21976Y37382D01*
G01X21876Y37379D01*
G01X21783Y37372D01*
G01X21699Y37359D01*
G01X21622Y37342D01*
G01X21552Y37322D01*
G01X21490Y37297D01*
G01X21435Y37269D01*
G01X21386Y37238D01*
G01X21344Y37205D01*
G01X21308Y37168D01*
G01X21278Y37130D01*
G01X21254Y37090D01*
G01X21236Y37049D01*
G01X21224Y37006D01*
G01X21216Y36963D01*
G01X21214Y36920D01*
G01X21216Y36874D01*
G01X21224Y36830D01*
G01X21236Y36786D01*
G01X21254Y36744D01*
G01X21278Y36704D01*
G01X21308Y36665D01*
G01X21344Y36628D01*
G01X21386Y36594D01*
G01X21435Y36563D01*
G01X21490Y36535D01*
G01X21552Y36510D01*
G01X21622Y36489D01*
G01X21699Y36473D01*
G01X21783Y36460D01*
G01X21876Y36452D01*
G01X21976Y36450D01*
G01X22079Y36452D01*
G01X22175Y36460D01*
G01X22262Y36473D01*
G01X22341Y36489D01*
G01X22413Y36510D01*
G01X22477Y36535D01*
G01X22534Y36563D01*
G01X22584Y36594D01*
G01X22627Y36628D01*
G01X22664Y36665D01*
G01X22694Y36704D01*
G01X22719Y36744D01*
G01X22738Y36786D01*
G01X22750Y36830D01*
G01X22758Y36874D01*
G01X22760Y36920D01*
G01X22758Y36963D01*
G01X22750Y37006D01*
G01X22738Y37049D01*
G01X22719Y37090D01*
G01X22694Y37130D01*
G01X22664Y37168D01*
G01X22627Y37205D01*
G01X22584Y37238D01*
G01X22534Y37269D01*
G01X22477Y37297D01*
G01X22413Y37322D01*
G01X22341Y37343D01*
G01X22262Y37359D01*
G01X22175Y37372D01*
G01X22079Y37379D01*
G37*

%LPC*%
G36*
G01X22106Y37181D02*
G01X21976Y37184D01*
G01X21850Y37181D01*
G01X21740Y37174D01*
G01X21645Y37161D01*
G01X21564Y37145D01*
G01X21496Y37125D01*
G01X21439Y37102D01*
G01X21393Y37076D01*
G01X21358Y37048D01*
G01X21332Y37018D01*
G01X21315Y36986D01*
G01X21306Y36953D01*
G01X21302Y36920D01*
G01X21306Y36885D01*
G01X21315Y36850D01*
G01X21332Y36816D01*
G01X21358Y36785D01*
G01X21393Y36756D01*
G01X21439Y36729D01*
G01X21496Y36705D01*
G01X21564Y36685D01*
G01X21645Y36668D01*
G01X21740Y36656D01*
G01X21850Y36648D01*
G01X21976Y36645D01*
G01X22075Y36647D01*
G01X22166Y36651D01*
G01X22247Y36658D01*
G01X22320Y36668D01*
G01X22385Y36680D01*
G01X22442Y36695D01*
G01X22492Y36711D01*
G01X22535Y36729D01*
G01X22571Y36749D01*
G01X22601Y36770D01*
G01X22626Y36793D01*
G01X22645Y36816D01*
G01X22659Y36841D01*
G01X22670Y36867D01*
G01X22675Y36893D01*
G01X22677Y36920D01*
G01X22674Y36953D01*
G01X22663Y36986D01*
G01X22645Y37018D01*
G01X22618Y37048D01*
G01X22581Y37076D01*
G01X22534Y37102D01*
G01X22475Y37125D01*
G01X22403Y37145D01*
G01X22318Y37161D01*
G01X22220Y37174D01*
G01X22106Y37181D01*
G37*

%LPD*%
G36*
G01X22733Y36338D02*
G01X22656Y36338D01*
G01X22636Y36163D01*
G01X21234Y35683D01*
G01X21234Y35553D01*
G01X22626Y35081D01*
G01X22656Y34898D01*
G01X22733Y34898D01*
G01X22733Y35396D01*
G01X22656Y35396D01*
G01X22626Y35177D01*
G01X22240Y35304D01*
G01X22240Y35822D01*
G01X22628Y35952D01*
G01X22656Y35731D01*
G01X22733Y35731D01*
G01X22733Y36338D01*
G37*

%LPC*%
G36*
G01X22151Y35335D02*
G01X22151Y35792D01*
G01X21460Y35561D01*
G01X22151Y35335D01*
G37*

%LPD*%

%LPD*%
G36*
G01X20066Y37473D02*
G01X19997Y37473D01*
G01X19951Y37158D01*
G01X19863Y37158D01*
G01X19774Y37157D01*
G01X19596Y37156D01*
G01X18897Y37156D01*
G01X18577Y37163D01*
G01X18554Y37133D01*
G01X18674Y36676D01*
G01X18750Y36676D01*
G01X18722Y36973D01*
G01X19596Y36973D01*
G01X19863Y36970D01*
G01X19951Y36968D01*
G01X19997Y36650D01*
G01X20066Y36650D01*
G01X20066Y37473D01*
G37*

%LPD*%
G36*
G01X20066Y36465D02*
G01X19989Y36465D01*
G01X19969Y36290D01*
G01X18567Y35810D01*
G01X18567Y35680D01*
G01X19959Y35208D01*
G01X19989Y35025D01*
G01X20066Y35025D01*
G01X20066Y35523D01*
G01X19989Y35523D01*
G01X19959Y35304D01*
G01X19573Y35431D01*
G01X19573Y35949D01*
G01X19961Y36079D01*
G01X19989Y35858D01*
G01X20066Y35858D01*
G01X20066Y36465D01*
G37*

%LPC*%
G36*
G01X19484Y35462D02*
G01X19484Y35919D01*
G01X18793Y35688D01*
G01X19484Y35462D01*
G37*

%LPD*%

%LPD*%
G36*
G01X15240Y51781D02*
G01X15067Y51781D01*
G01X15067Y51009D01*
G01X14988Y51086D01*
G01X14915Y51157D01*
G01X14850Y51220D01*
G01X14798Y51271D01*
G01X14715Y51350D01*
G01X14640Y51420D01*
G01X14571Y51482D01*
G01X14509Y51535D01*
G01X14451Y51581D01*
G01X14398Y51620D01*
G01X14348Y51651D01*
G01X14300Y51676D01*
G01X14254Y51695D01*
G01X14208Y51708D01*
G01X14162Y51715D01*
G01X14114Y51718D01*
G01X14058Y51715D01*
G01X14005Y51707D01*
G01X13955Y51693D01*
G01X13909Y51674D01*
G01X13868Y51649D01*
G01X13831Y51618D01*
G01X13798Y51581D01*
G01X13771Y51538D01*
G01X13750Y51489D01*
G01X13734Y51434D01*
G01X13724Y51372D01*
G01X13721Y51304D01*
G01X13723Y51249D01*
G01X13730Y51196D01*
G01X13742Y51145D01*
G01X13758Y51096D01*
G01X13779Y51051D01*
G01X13804Y51009D01*
G01X13835Y50971D01*
G01X13870Y50937D01*
G01X13909Y50908D01*
G01X13953Y50885D01*
G01X14002Y50868D01*
G01X14056Y50857D01*
G01X14084Y50876D01*
G01X14105Y50902D01*
G01X14119Y50932D01*
G01X14124Y50966D01*
G01X14117Y51004D01*
G01X14093Y51037D01*
G01X14049Y51065D01*
G01X13985Y51088D01*
G01X13822Y51131D01*
G01X13816Y51166D01*
G01X13811Y51197D01*
G01X13808Y51226D01*
G01X13807Y51250D01*
G01X13813Y51310D01*
G01X13830Y51364D01*
G01X13857Y51411D01*
G01X13894Y51450D01*
G01X13940Y51482D01*
G01X13994Y51505D01*
G01X14056Y51520D01*
G01X14124Y51525D01*
G01X14169Y51522D01*
G01X14213Y51516D01*
G01X14258Y51505D01*
G01X14303Y51490D01*
G01X14349Y51471D01*
G01X14396Y51446D01*
G01X14444Y51418D01*
G01X14495Y51385D01*
G01X14547Y51347D01*
G01X14602Y51304D01*
G01X14659Y51257D01*
G01X14719Y51205D01*
G01X14762Y51167D01*
G01X14807Y51128D01*
G01X14853Y51087D01*
G01X14901Y51045D01*
G01X14950Y51002D01*
G01X15000Y50957D01*
G01X15102Y50867D01*
G01X15240Y50867D01*
G01X15240Y51781D01*
G37*

%LPD*%

%LPD*%
G36*
G01X17445Y51774D02*
G01X17386Y51779D01*
G01X17337Y51776D01*
G01X17290Y51769D01*
G01X17246Y51757D01*
G01X17205Y51740D01*
G01X17166Y51719D01*
G01X17131Y51692D01*
G01X17099Y51659D01*
G01X17070Y51622D01*
G01X17045Y51579D01*
G01X17023Y51531D01*
G01X17006Y51477D01*
G01X16992Y51418D01*
G01X16966Y51490D01*
G01X16933Y51553D01*
G01X16894Y51607D01*
G01X16849Y51652D01*
G01X16799Y51687D01*
G01X16745Y51712D01*
G01X16686Y51728D01*
G01X16624Y51733D01*
G01X16571Y51729D01*
G01X16521Y51720D01*
G01X16475Y51703D01*
G01X16433Y51681D01*
G01X16394Y51653D01*
G01X16360Y51619D01*
G01X16331Y51580D01*
G01X16306Y51536D01*
G01X16287Y51486D01*
G01X16272Y51432D01*
G01X16264Y51374D01*
G01X16261Y51311D01*
G01X16265Y51237D01*
G01X16278Y51166D01*
G01X16300Y51101D01*
G01X16330Y51042D01*
G01X16370Y50991D01*
G01X16419Y50948D01*
G01X16477Y50916D01*
G01X16545Y50895D01*
G01X16582Y50913D01*
G01X16606Y50937D01*
G01X16620Y50966D01*
G01X16624Y50999D01*
G01X16616Y51045D01*
G01X16591Y51079D01*
G01X16549Y51105D01*
G01X16489Y51126D01*
G01X16360Y51161D01*
G01X16353Y51191D01*
G01X16349Y51220D01*
G01X16347Y51246D01*
G01X16347Y51271D01*
G01X16352Y51332D01*
G01X16366Y51386D01*
G01X16389Y51433D01*
G01X16421Y51472D01*
G01X16462Y51504D01*
G01X16511Y51526D01*
G01X16568Y51540D01*
G01X16634Y51545D01*
G01X16704Y51539D01*
G01X16766Y51522D01*
G01X16819Y51495D01*
G01X16863Y51458D01*
G01X16898Y51411D01*
G01X16923Y51355D01*
G01X16939Y51291D01*
G01X16944Y51220D01*
G01X16944Y51133D01*
G01X17043Y51133D01*
G01X17043Y51240D01*
G01X17049Y51321D01*
G01X17067Y51391D01*
G01X17096Y51450D01*
G01X17135Y51499D01*
G01X17183Y51537D01*
G01X17241Y51564D01*
G01X17307Y51580D01*
G01X17381Y51586D01*
G01X17453Y51580D01*
G01X17519Y51563D01*
G01X17577Y51536D01*
G01X17627Y51498D01*
G01X17668Y51450D01*
G01X17698Y51393D01*
G01X17717Y51326D01*
G01X17724Y51250D01*
G01X17723Y51219D01*
G01X17719Y51187D01*
G01X17714Y51155D01*
G01X17706Y51121D01*
G01X17574Y51085D01*
G01X17508Y51064D01*
G01X17463Y51039D01*
G01X17437Y51007D01*
G01X17429Y50963D01*
G01X17433Y50929D01*
G01X17445Y50900D01*
G01X17468Y50875D01*
G01X17500Y50854D01*
G01X17575Y50875D01*
G01X17638Y50907D01*
G01X17691Y50949D01*
G01X17734Y51000D01*
G01X17766Y51059D01*
G01X17789Y51127D01*
G01X17803Y51201D01*
G01X17807Y51281D01*
G01X17804Y51353D01*
G01X17793Y51421D01*
G01X17776Y51484D01*
G01X17752Y51542D01*
G01X17723Y51594D01*
G01X17688Y51641D01*
G01X17648Y51682D01*
G01X17603Y51716D01*
G01X17555Y51743D01*
G01X17502Y51762D01*
G01X17445Y51774D01*
G37*

%LPD*%

%LPD*%
G36*
G01X19857Y51837D02*
G01X19725Y51837D01*
G01X19725Y51601D01*
G01X18808Y51601D01*
G01X18808Y51476D01*
G01X19748Y50818D01*
G01X19857Y50818D01*
G01X19857Y51423D01*
G01X20320Y51423D01*
G01X20320Y51601D01*
G01X19857Y51601D01*
G01X19857Y51837D01*
G37*

%LPC*%
G36*
G01X19725Y51423D02*
G01X19016Y51423D01*
G01X19725Y50930D01*
G01X19725Y51423D01*
G37*

%LPD*%

%LPD*%
G36*
G01X22453Y51776D02*
G01X22400Y51779D01*
G01X22328Y51775D01*
G01X22262Y51763D01*
G01X22201Y51743D01*
G01X22147Y51716D01*
G01X22098Y51683D01*
G01X22055Y51643D01*
G01X22018Y51597D01*
G01X21988Y51546D01*
G01X21964Y51489D01*
G01X21946Y51428D01*
G01X21936Y51361D01*
G01X21932Y51291D01*
G01X21934Y51232D01*
G01X21940Y51175D01*
G01X21951Y51121D01*
G01X21965Y51067D01*
G01X21544Y51095D01*
G01X21544Y51738D01*
G01X21371Y51738D01*
G01X21371Y51009D01*
G01X22064Y50963D01*
G01X22082Y51019D01*
G01X22069Y51073D01*
G01X22059Y51127D01*
G01X22054Y51180D01*
G01X22052Y51232D01*
G01X22055Y51284D01*
G01X22063Y51333D01*
G01X22076Y51377D01*
G01X22095Y51418D01*
G01X22118Y51455D01*
G01X22147Y51488D01*
G01X22181Y51516D01*
G01X22219Y51540D01*
G01X22262Y51558D01*
G01X22309Y51572D01*
G01X22361Y51580D01*
G01X22418Y51583D01*
G01X22474Y51581D01*
G01X22527Y51573D01*
G01X22576Y51561D01*
G01X22621Y51544D01*
G01X22662Y51522D01*
G01X22698Y51496D01*
G01X22729Y51465D01*
G01X22755Y51430D01*
G01X22776Y51390D01*
G01X22791Y51346D01*
G01X22800Y51298D01*
G01X22804Y51245D01*
G01X22802Y51209D01*
G01X22798Y51174D01*
G01X22792Y51140D01*
G01X22783Y51105D01*
G01X22649Y51067D01*
G01X22581Y51047D01*
G01X22538Y51023D01*
G01X22515Y50991D01*
G01X22509Y50948D01*
G01X22513Y50914D01*
G01X22526Y50884D01*
G01X22549Y50861D01*
G01X22580Y50844D01*
G01X22652Y50865D01*
G01X22714Y50895D01*
G01X22767Y50934D01*
G01X22810Y50982D01*
G01X22844Y51039D01*
G01X22868Y51104D01*
G01X22883Y51177D01*
G01X22887Y51258D01*
G01X22885Y51316D01*
G01X22878Y51371D01*
G01X22867Y51423D01*
G01X22852Y51472D01*
G01X22833Y51518D01*
G01X22810Y51561D01*
G01X22783Y51600D01*
G01X22753Y51636D01*
G01X22719Y51669D01*
G01X22682Y51697D01*
G01X22642Y51721D01*
G01X22599Y51742D01*
G01X22553Y51758D01*
G01X22505Y51769D01*
G01X22453Y51776D01*
G37*

%LPD*%

%LPD*%
G36*
G01X9612Y54598D02*
G01X9542Y54601D01*
G01X9472Y54598D01*
G01X9405Y54592D01*
G01X9341Y54581D01*
G01X9281Y54566D01*
G01X9223Y54548D01*
G01X9170Y54526D01*
G01X9120Y54500D01*
G01X9073Y54470D01*
G01X9030Y54437D01*
G01X8990Y54400D01*
G01X8954Y54361D01*
G01X8922Y54318D01*
G01X8893Y54272D01*
G01X8868Y54224D01*
G01X8847Y54172D01*
G01X8830Y54118D01*
G01X8816Y54061D01*
G01X8806Y54002D01*
G01X8800Y53940D01*
G01X8798Y53877D01*
G01X8798Y53229D01*
G01X8874Y53229D01*
G01X8897Y53435D01*
G01X9044Y53438D01*
G01X9118Y53439D01*
G01X9266Y53439D01*
G01X9341Y53440D01*
G01X9732Y53440D01*
G01X9812Y53439D01*
G01X9965Y53439D01*
G01X10040Y53438D01*
G01X10187Y53435D01*
G01X10210Y53229D01*
G01X10287Y53229D01*
G01X10287Y53836D01*
G01X10284Y53902D01*
G01X10278Y53965D01*
G01X10269Y54026D01*
G01X10255Y54085D01*
G01X10237Y54142D01*
G01X10216Y54196D01*
G01X10191Y54247D01*
G01X10162Y54296D01*
G01X10130Y54341D01*
G01X10093Y54384D01*
G01X10054Y54423D01*
G01X10011Y54459D01*
G01X9964Y54491D01*
G01X9914Y54519D01*
G01X9860Y54543D01*
G01X9803Y54563D01*
G01X9743Y54579D01*
G01X9679Y54591D01*
G01X9612Y54598D01*
G37*

%LPC*%
G36*
G01X9618Y54367D02*
G01X9542Y54369D01*
G01X9464Y54367D01*
G01X9391Y54360D01*
G01X9322Y54350D01*
G01X9258Y54334D01*
G01X9199Y54315D01*
G01X9146Y54291D01*
G01X9096Y54263D01*
G01X9053Y54231D01*
G01X9013Y54195D01*
G01X8979Y54156D01*
G01X8950Y54112D01*
G01X8927Y54065D01*
G01X8908Y54014D01*
G01X8895Y53960D01*
G01X8887Y53902D01*
G01X8884Y53841D01*
G01X8884Y53648D01*
G01X9034Y53645D01*
G01X9109Y53644D01*
G01X9185Y53643D01*
G01X9892Y53643D01*
G01X9970Y53644D01*
G01X10122Y53646D01*
G01X10198Y53648D01*
G01X10198Y53821D01*
G01X10195Y53885D01*
G01X10186Y53946D01*
G01X10173Y54004D01*
G01X10153Y54056D01*
G01X10129Y54106D01*
G01X10100Y54150D01*
G01X10065Y54192D01*
G01X10025Y54229D01*
G01X9981Y54261D01*
G01X9931Y54290D01*
G01X9878Y54314D01*
G01X9819Y54334D01*
G01X9757Y54349D01*
G01X9689Y54360D01*
G01X9618Y54367D01*
G37*

%LPD*%
G36*
G01X8874Y53059D02*
G01X8798Y53059D01*
G01X8798Y52533D01*
G01X8874Y52533D01*
G01X8902Y52772D01*
G01X9936Y52774D01*
G01X8798Y51951D01*
G01X8798Y51608D01*
G01X8874Y51608D01*
G01X8895Y51768D01*
G01X8923Y51789D01*
G01X10182Y51786D01*
G01X10210Y51598D01*
G01X10287Y51598D01*
G01X10287Y52124D01*
G01X10210Y52124D01*
G01X10180Y51888D01*
G01X9052Y51883D01*
G01X10302Y52792D01*
G01X10302Y52871D01*
G01X8900Y52873D01*
G01X8874Y53059D01*
G37*

%LPD*%
G36*
G01X9654Y51479D02*
G01X9578Y51479D01*
G01X9578Y50900D01*
G01X9654Y50900D01*
G01X9672Y51136D01*
G01X9724Y51137D01*
G01X9829Y51138D01*
G01X10177Y51138D01*
G01X10197Y51078D01*
G01X10210Y51017D01*
G01X10218Y50955D01*
G01X10220Y50890D01*
G01X10217Y50827D01*
G01X10209Y50768D01*
G01X10194Y50712D01*
G01X10174Y50659D01*
G01X10148Y50610D01*
G01X10118Y50564D01*
G01X10081Y50522D01*
G01X10040Y50484D01*
G01X9994Y50450D01*
G01X9943Y50420D01*
G01X9887Y50394D01*
G01X9826Y50372D01*
G01X9761Y50356D01*
G01X9692Y50343D01*
G01X9617Y50336D01*
G01X9540Y50333D01*
G01X9461Y50336D01*
G01X9386Y50344D01*
G01X9317Y50357D01*
G01X9251Y50374D01*
G01X9191Y50397D01*
G01X9134Y50423D01*
G01X9084Y50454D01*
G01X9037Y50489D01*
G01X8996Y50527D01*
G01X8961Y50570D01*
G01X8930Y50615D01*
G01X8905Y50664D01*
G01X8885Y50715D01*
G01X8871Y50769D01*
G01X8862Y50826D01*
G01X8859Y50884D01*
G01X8863Y50951D01*
G01X8875Y51015D01*
G01X8896Y51077D01*
G01X8925Y51136D01*
G01X9202Y51189D01*
G01X9202Y51311D01*
G01X8872Y51306D01*
G01X8846Y51259D01*
G01X8823Y51211D01*
G01X8805Y51161D01*
G01X8789Y51108D01*
G01X8778Y51052D01*
G01X8769Y50992D01*
G01X8764Y50929D01*
G01X8763Y50862D01*
G01X8765Y50796D01*
G01X8772Y50732D01*
G01X8784Y50670D01*
G01X8800Y50611D01*
G01X8821Y50554D01*
G01X8845Y50500D01*
G01X8874Y50449D01*
G01X8907Y50401D01*
G01X8943Y50356D01*
G01X8982Y50314D01*
G01X9026Y50276D01*
G01X9072Y50241D01*
G01X9121Y50209D01*
G01X9173Y50182D01*
G01X9229Y50158D01*
G01X9286Y50138D01*
G01X9346Y50122D01*
G01X9409Y50111D01*
G01X9473Y50105D01*
G01X9540Y50102D01*
G01X9607Y50104D01*
G01X9673Y50111D01*
G01X9736Y50122D01*
G01X9796Y50137D01*
G01X9855Y50157D01*
G01X9910Y50180D01*
G01X9962Y50207D01*
G01X10012Y50238D01*
G01X10058Y50272D01*
G01X10101Y50310D01*
G01X10141Y50352D01*
G01X10177Y50396D01*
G01X10209Y50444D01*
G01X10238Y50494D01*
G01X10262Y50548D01*
G01X10282Y50604D01*
G01X10298Y50663D01*
G01X10310Y50724D01*
G01X10317Y50788D01*
G01X10320Y50854D01*
G01X10317Y50921D01*
G01X10311Y50985D01*
G01X10300Y51047D01*
G01X10285Y51107D01*
G01X10267Y51166D01*
G01X10244Y51224D01*
G01X10219Y51281D01*
G01X10190Y51339D01*
G01X10035Y51339D01*
G01X9981Y51340D01*
G01X9927Y51340D01*
G01X9875Y51341D01*
G01X9822Y51342D01*
G01X9770Y51342D01*
G01X9718Y51343D01*
G01X9667Y51344D01*
G01X9654Y51479D01*
G37*

%LPD*%

%LPD*%
G36*
G01X24885Y51780D02*
G01X24810Y51784D01*
G01X24744Y51780D01*
G01X24682Y51770D01*
G01X24625Y51755D01*
G01X24572Y51732D01*
G01X24525Y51705D01*
G01X24484Y51672D01*
G01X24448Y51634D01*
G01X24418Y51592D01*
G01X24395Y51545D01*
G01X24377Y51494D01*
G01X24367Y51438D01*
G01X24363Y51380D01*
G01X24366Y51335D01*
G01X24373Y51289D01*
G01X24384Y51246D01*
G01X24400Y51203D01*
G01X24421Y51161D01*
G01X24445Y51122D01*
G01X24475Y51083D01*
G01X24508Y51047D01*
G01X24441Y51057D01*
G01X24378Y51070D01*
G01X24317Y51088D01*
G01X24260Y51109D01*
G01X24206Y51134D01*
G01X24154Y51164D01*
G01X24106Y51199D01*
G01X24061Y51238D01*
G01X24019Y51281D01*
G01X23980Y51328D01*
G01X23944Y51381D01*
G01X23912Y51439D01*
G01X23882Y51501D01*
G01X23856Y51568D01*
G01X23832Y51640D01*
G01X23812Y51718D01*
G01X23754Y51705D01*
G01X23763Y51637D01*
G01X23776Y51572D01*
G01X23792Y51510D01*
G01X23811Y51450D01*
G01X23833Y51393D01*
G01X23858Y51338D01*
G01X23885Y51286D01*
G01X23916Y51238D01*
G01X23948Y51191D01*
G01X23983Y51148D01*
G01X24020Y51107D01*
G01X24060Y51069D01*
G01X24101Y51034D01*
G01X24145Y51002D01*
G01X24190Y50973D01*
G01X24237Y50946D01*
G01X24285Y50923D01*
G01X24336Y50903D01*
G01X24388Y50886D01*
G01X24440Y50872D01*
G01X24494Y50861D01*
G01X24550Y50853D01*
G01X24606Y50848D01*
G01X24663Y50846D01*
G01X24736Y50848D01*
G01X24806Y50855D01*
G01X24871Y50866D01*
G01X24932Y50880D01*
G01X24989Y50899D01*
G01X25041Y50921D01*
G01X25089Y50946D01*
G01X25132Y50976D01*
G01X25171Y51009D01*
G01X25204Y51046D01*
G01X25233Y51085D01*
G01X25257Y51128D01*
G01X25276Y51174D01*
G01X25289Y51223D01*
G01X25298Y51275D01*
G01X25300Y51329D01*
G01X25297Y51394D01*
G01X25286Y51455D01*
G01X25268Y51512D01*
G01X25243Y51565D01*
G01X25211Y51613D01*
G01X25172Y51656D01*
G01X25128Y51694D01*
G01X25076Y51725D01*
G01X25019Y51750D01*
G01X24955Y51768D01*
G01X24885Y51780D01*
G37*

%LPC*%
G36*
G01X24929Y51588D02*
G01X24841Y51593D01*
G01X24754Y51588D01*
G01X24681Y51574D01*
G01X24619Y51551D01*
G01X24569Y51520D01*
G01X24531Y51482D01*
G01X24504Y51437D01*
G01X24488Y51385D01*
G01X24483Y51329D01*
G01X24488Y51255D01*
G01X24506Y51182D01*
G01X24539Y51110D01*
G01X24589Y51042D01*
G01X24635Y51042D01*
G01X24727Y51044D01*
G01X24812Y51051D01*
G01X24889Y51062D01*
G01X24958Y51077D01*
G01X25018Y51096D01*
G01X25071Y51119D01*
G01X25115Y51147D01*
G01X25152Y51177D01*
G01X25180Y51211D01*
G01X25200Y51249D01*
G01X25213Y51290D01*
G01X25217Y51334D01*
G01X25211Y51389D01*
G01X25193Y51439D01*
G01X25164Y51483D01*
G01X25123Y51521D01*
G01X25070Y51551D01*
G01X25005Y51574D01*
G01X24929Y51588D01*
G37*

%LPD*%

%LPD*%
G36*
G01X26687Y51773D02*
G01X26578Y51773D01*
G01X26578Y50869D01*
G01X26751Y50869D01*
G01X26751Y51649D01*
G01X28046Y51057D01*
G01X28067Y51078D01*
G01X28067Y51248D01*
G01X26687Y51773D01*
G37*

%LPD*%

%LPD*%
G36*
G01X30298Y51764D02*
G01X30241Y51768D01*
G01X30170Y51763D01*
G01X30106Y51749D01*
G01X30047Y51723D01*
G01X29992Y51688D01*
G01X29943Y51641D01*
G01X29896Y51583D01*
G01X29852Y51514D01*
G01X29809Y51433D01*
G01X29763Y51504D01*
G01X29716Y51563D01*
G01X29669Y51610D01*
G01X29621Y51646D01*
G01X29573Y51672D01*
G01X29525Y51690D01*
G01X29479Y51699D01*
G01X29433Y51702D01*
G01X29384Y51699D01*
G01X29338Y51690D01*
G01X29294Y51675D01*
G01X29254Y51656D01*
G01X29218Y51630D01*
G01X29185Y51599D01*
G01X29157Y51564D01*
G01X29133Y51524D01*
G01X29113Y51479D01*
G01X29099Y51431D01*
G01X29091Y51378D01*
G01X29088Y51321D01*
G01X29091Y51264D01*
G01X29099Y51210D01*
G01X29113Y51158D01*
G01X29133Y51110D01*
G01X29158Y51065D01*
G01X29187Y51026D01*
G01X29221Y50991D01*
G01X29260Y50961D01*
G01X29303Y50937D01*
G01X29350Y50920D01*
G01X29401Y50908D01*
G01X29456Y50905D01*
G01X29519Y50909D01*
G01X29579Y50921D01*
G01X29636Y50941D01*
G01X29690Y50969D01*
G01X29741Y51007D01*
G01X29789Y51055D01*
G01X29833Y51112D01*
G01X29875Y51179D01*
G01X29914Y51104D01*
G01X29955Y51039D01*
G01X29999Y50984D01*
G01X30046Y50938D01*
G01X30096Y50902D01*
G01X30150Y50877D01*
G01X30207Y50862D01*
G01X30269Y50857D01*
G01X30326Y50860D01*
G01X30378Y50872D01*
G01X30426Y50890D01*
G01X30468Y50914D01*
G01X30507Y50946D01*
G01X30540Y50983D01*
G01X30568Y51026D01*
G01X30592Y51074D01*
G01X30611Y51128D01*
G01X30624Y51186D01*
G01X30632Y51248D01*
G01X30634Y51314D01*
G01X30631Y51378D01*
G01X30622Y51438D01*
G01X30606Y51495D01*
G01X30584Y51548D01*
G01X30557Y51596D01*
G01X30525Y51639D01*
G01X30488Y51677D01*
G01X30446Y51708D01*
G01X30401Y51734D01*
G01X30351Y51753D01*
G01X30298Y51764D01*
G37*

%LPC*%
G36*
G01X30331Y51586D02*
G01X30271Y51591D01*
G01X30221Y51587D01*
G01X30174Y51574D01*
G01X30129Y51552D01*
G01X30085Y51518D01*
G01X30042Y51473D01*
G01X29999Y51414D01*
G01X29955Y51340D01*
G01X29911Y51250D01*
G01X29945Y51198D01*
G01X29980Y51154D01*
G01X30017Y51117D01*
G01X30056Y51087D01*
G01X30097Y51064D01*
G01X30143Y51048D01*
G01X30193Y51037D01*
G01X30248Y51034D01*
G01X30313Y51039D01*
G01X30372Y51055D01*
G01X30423Y51080D01*
G01X30467Y51113D01*
G01X30502Y51155D01*
G01X30529Y51204D01*
G01X30545Y51259D01*
G01X30551Y51321D01*
G01X30546Y51380D01*
G01X30530Y51432D01*
G01X30506Y51478D01*
G01X30474Y51517D01*
G01X30433Y51548D01*
G01X30386Y51571D01*
G01X30331Y51586D01*
G37*
G36*
G01X29483Y51542D02*
G01X29430Y51545D01*
G01X29381Y51541D01*
G01X29333Y51530D01*
G01X29290Y51511D01*
G01X29252Y51485D01*
G01X29220Y51452D01*
G01X29195Y51413D01*
G01X29180Y51368D01*
G01X29174Y51316D01*
G01X29179Y51269D01*
G01X29191Y51223D01*
G01X29212Y51182D01*
G01X29239Y51146D01*
G01X29274Y51116D01*
G01X29315Y51092D01*
G01X29362Y51078D01*
G01X29415Y51072D01*
G01X29462Y51075D01*
G01X29509Y51085D01*
G01X29555Y51103D01*
G01X29600Y51131D01*
G01X29645Y51169D01*
G01X29689Y51220D01*
G01X29733Y51285D01*
G01X29776Y51365D01*
G01X29738Y51410D01*
G01X29700Y51448D01*
G01X29661Y51480D01*
G01X29620Y51504D01*
G01X29578Y51523D01*
G01X29532Y51535D01*
G01X29483Y51542D01*
G37*

%LPD*%

%LPD*%
G36*
G01X32275Y51762D02*
G01X32219Y51763D01*
G01X32153Y51761D01*
G01X32090Y51755D01*
G01X32031Y51745D01*
G01X31975Y51731D01*
G01X31922Y51714D01*
G01X31873Y51692D01*
G01X31829Y51667D01*
G01X31788Y51638D01*
G01X31752Y51607D01*
G01X31720Y51572D01*
G01X31692Y51534D01*
G01X31669Y51492D01*
G01X31651Y51448D01*
G01X31638Y51401D01*
G01X31630Y51351D01*
G01X31628Y51299D01*
G01X31632Y51231D01*
G01X31643Y51167D01*
G01X31662Y51108D01*
G01X31687Y51053D01*
G01X31719Y51003D01*
G01X31758Y50959D01*
G01X31802Y50920D01*
G01X31852Y50887D01*
G01X31907Y50861D01*
G01X31968Y50842D01*
G01X32033Y50830D01*
G01X32103Y50826D01*
G01X32170Y50830D01*
G01X32232Y50841D01*
G01X32290Y50860D01*
G01X32342Y50885D01*
G01X32390Y50916D01*
G01X32431Y50953D01*
G01X32467Y50994D01*
G01X32497Y51040D01*
G01X32521Y51090D01*
G01X32538Y51143D01*
G01X32549Y51199D01*
G01X32552Y51258D01*
G01X32545Y51344D01*
G01X32523Y51421D01*
G01X32488Y51492D01*
G01X32440Y51555D01*
G01X32500Y51543D01*
G01X32557Y51529D01*
G01X32612Y51511D01*
G01X32664Y51490D01*
G01X32715Y51465D01*
G01X32762Y51436D01*
G01X32808Y51404D01*
G01X32852Y51368D01*
G01X32893Y51328D01*
G01X32932Y51285D01*
G01X32969Y51237D01*
G01X33003Y51185D01*
G01X33036Y51129D01*
G01X33065Y51069D01*
G01X33093Y51004D01*
G01X33119Y50935D01*
G01X33187Y50951D01*
G01X33169Y51020D01*
G01X33148Y51087D01*
G01X33125Y51150D01*
G01X33099Y51209D01*
G01X33071Y51265D01*
G01X33040Y51319D01*
G01X33008Y51369D01*
G01X32974Y51415D01*
G01X32938Y51459D01*
G01X32900Y51499D01*
G01X32860Y51537D01*
G01X32818Y51571D01*
G01X32776Y51603D01*
G01X32731Y51631D01*
G01X32685Y51657D01*
G01X32637Y51680D01*
G01X32589Y51699D01*
G01X32539Y51717D01*
G01X32488Y51731D01*
G01X32436Y51743D01*
G01X32383Y51752D01*
G01X32329Y51758D01*
G01X32275Y51762D01*
G37*

%LPC*%
G36*
G01X32264Y51567D02*
G01X32237Y51568D01*
G01X32151Y51565D01*
G01X32072Y51559D01*
G01X32002Y51547D01*
G01X31940Y51532D01*
G01X31886Y51513D01*
G01X31839Y51490D01*
G01X31800Y51464D01*
G01X31769Y51435D01*
G01X31744Y51403D01*
G01X31728Y51368D01*
G01X31717Y51331D01*
G01X31714Y51291D01*
G01X31720Y51236D01*
G01X31737Y51185D01*
G01X31766Y51138D01*
G01X31806Y51097D01*
G01X31858Y51064D01*
G01X31921Y51038D01*
G01X31995Y51022D01*
G01X32080Y51017D01*
G01X32164Y51023D01*
G01X32237Y51040D01*
G01X32298Y51067D01*
G01X32347Y51104D01*
G01X32385Y51149D01*
G01X32411Y51201D01*
G01X32428Y51259D01*
G01X32433Y51321D01*
G01X32427Y51389D01*
G01X32411Y51452D01*
G01X32382Y51510D01*
G01X32341Y51565D01*
G01X32316Y51566D01*
G01X32290Y51566D01*
G01X32264Y51567D01*
G37*

%LPD*%

%LPD*%
G36*
G01X47458Y44946D02*
G01X47388Y44949D01*
G01X47318Y44946D01*
G01X47251Y44940D01*
G01X47187Y44929D01*
G01X47127Y44914D01*
G01X47069Y44896D01*
G01X47016Y44874D01*
G01X46966Y44848D01*
G01X46919Y44818D01*
G01X46876Y44785D01*
G01X46836Y44748D01*
G01X46800Y44709D01*
G01X46768Y44666D01*
G01X46739Y44620D01*
G01X46714Y44572D01*
G01X46693Y44520D01*
G01X46676Y44466D01*
G01X46662Y44409D01*
G01X46652Y44350D01*
G01X46646Y44288D01*
G01X46644Y44225D01*
G01X46644Y43577D01*
G01X46720Y43577D01*
G01X46743Y43783D01*
G01X46890Y43786D01*
G01X46964Y43787D01*
G01X47112Y43787D01*
G01X47187Y43788D01*
G01X47578Y43788D01*
G01X47658Y43787D01*
G01X47811Y43787D01*
G01X47886Y43786D01*
G01X48033Y43783D01*
G01X48056Y43577D01*
G01X48133Y43577D01*
G01X48133Y44184D01*
G01X48130Y44250D01*
G01X48124Y44313D01*
G01X48115Y44374D01*
G01X48101Y44433D01*
G01X48083Y44490D01*
G01X48062Y44544D01*
G01X48037Y44595D01*
G01X48008Y44644D01*
G01X47976Y44689D01*
G01X47939Y44732D01*
G01X47900Y44771D01*
G01X47857Y44807D01*
G01X47810Y44839D01*
G01X47760Y44867D01*
G01X47706Y44891D01*
G01X47649Y44911D01*
G01X47589Y44927D01*
G01X47525Y44939D01*
G01X47458Y44946D01*
G37*

%LPC*%
G36*
G01X47464Y44715D02*
G01X47388Y44717D01*
G01X47310Y44715D01*
G01X47237Y44708D01*
G01X47168Y44698D01*
G01X47104Y44682D01*
G01X47045Y44663D01*
G01X46992Y44639D01*
G01X46942Y44611D01*
G01X46899Y44579D01*
G01X46859Y44543D01*
G01X46825Y44504D01*
G01X46796Y44460D01*
G01X46773Y44413D01*
G01X46754Y44362D01*
G01X46741Y44308D01*
G01X46733Y44250D01*
G01X46730Y44189D01*
G01X46730Y43996D01*
G01X46880Y43993D01*
G01X46955Y43992D01*
G01X47031Y43991D01*
G01X47738Y43991D01*
G01X47816Y43992D01*
G01X47968Y43994D01*
G01X48044Y43996D01*
G01X48044Y44169D01*
G01X48041Y44233D01*
G01X48032Y44294D01*
G01X48019Y44352D01*
G01X47999Y44404D01*
G01X47975Y44454D01*
G01X47946Y44498D01*
G01X47911Y44540D01*
G01X47871Y44577D01*
G01X47827Y44609D01*
G01X47777Y44638D01*
G01X47724Y44662D01*
G01X47665Y44682D01*
G01X47603Y44697D01*
G01X47535Y44708D01*
G01X47464Y44715D01*
G37*

%LPD*%
G36*
G01X46720Y43407D02*
G01X46644Y43407D01*
G01X46644Y42881D01*
G01X46720Y42881D01*
G01X46748Y43120D01*
G01X47782Y43122D01*
G01X46644Y42299D01*
G01X46644Y41956D01*
G01X46720Y41956D01*
G01X46741Y42116D01*
G01X46769Y42137D01*
G01X48028Y42134D01*
G01X48056Y41946D01*
G01X48133Y41946D01*
G01X48133Y42472D01*
G01X48056Y42472D01*
G01X48026Y42236D01*
G01X46898Y42231D01*
G01X48148Y43140D01*
G01X48148Y43219D01*
G01X46746Y43221D01*
G01X46720Y43407D01*
G37*

%LPD*%
G36*
G01X47500Y41827D02*
G01X47424Y41827D01*
G01X47424Y41248D01*
G01X47500Y41248D01*
G01X47518Y41484D01*
G01X47570Y41485D01*
G01X47675Y41486D01*
G01X48023Y41486D01*
G01X48043Y41426D01*
G01X48056Y41365D01*
G01X48064Y41303D01*
G01X48066Y41238D01*
G01X48063Y41175D01*
G01X48055Y41116D01*
G01X48040Y41060D01*
G01X48020Y41007D01*
G01X47994Y40958D01*
G01X47964Y40912D01*
G01X47927Y40870D01*
G01X47886Y40832D01*
G01X47840Y40798D01*
G01X47789Y40768D01*
G01X47733Y40742D01*
G01X47672Y40720D01*
G01X47607Y40704D01*
G01X47538Y40691D01*
G01X47463Y40684D01*
G01X47386Y40681D01*
G01X47307Y40684D01*
G01X47232Y40692D01*
G01X47163Y40705D01*
G01X47097Y40722D01*
G01X47037Y40745D01*
G01X46980Y40771D01*
G01X46930Y40802D01*
G01X46883Y40837D01*
G01X46842Y40875D01*
G01X46807Y40918D01*
G01X46776Y40963D01*
G01X46751Y41012D01*
G01X46731Y41063D01*
G01X46717Y41117D01*
G01X46708Y41174D01*
G01X46705Y41232D01*
G01X46709Y41299D01*
G01X46721Y41363D01*
G01X46742Y41425D01*
G01X46771Y41484D01*
G01X47048Y41537D01*
G01X47048Y41659D01*
G01X46718Y41654D01*
G01X46692Y41607D01*
G01X46669Y41559D01*
G01X46651Y41509D01*
G01X46635Y41456D01*
G01X46624Y41400D01*
G01X46615Y41340D01*
G01X46610Y41277D01*
G01X46609Y41210D01*
G01X46611Y41144D01*
G01X46618Y41080D01*
G01X46630Y41018D01*
G01X46646Y40959D01*
G01X46667Y40902D01*
G01X46691Y40848D01*
G01X46720Y40797D01*
G01X46753Y40749D01*
G01X46789Y40704D01*
G01X46828Y40662D01*
G01X46872Y40624D01*
G01X46918Y40589D01*
G01X46967Y40557D01*
G01X47019Y40530D01*
G01X47075Y40506D01*
G01X47132Y40486D01*
G01X47192Y40470D01*
G01X47255Y40459D01*
G01X47319Y40453D01*
G01X47386Y40450D01*
G01X47453Y40452D01*
G01X47519Y40459D01*
G01X47582Y40470D01*
G01X47642Y40485D01*
G01X47701Y40505D01*
G01X47756Y40528D01*
G01X47808Y40555D01*
G01X47858Y40586D01*
G01X47904Y40620D01*
G01X47947Y40658D01*
G01X47987Y40700D01*
G01X48023Y40744D01*
G01X48055Y40792D01*
G01X48084Y40842D01*
G01X48108Y40896D01*
G01X48128Y40952D01*
G01X48144Y41011D01*
G01X48156Y41072D01*
G01X48163Y41136D01*
G01X48166Y41202D01*
G01X48163Y41269D01*
G01X48157Y41333D01*
G01X48146Y41395D01*
G01X48131Y41455D01*
G01X48113Y41514D01*
G01X48090Y41572D01*
G01X48065Y41629D01*
G01X48036Y41687D01*
G01X47881Y41687D01*
G01X47827Y41688D01*
G01X47773Y41688D01*
G01X47721Y41689D01*
G01X47668Y41690D01*
G01X47616Y41690D01*
G01X47564Y41691D01*
G01X47513Y41692D01*
G01X47500Y41827D01*
G37*

%LPD*%

%LPD*%
G36*
G01X50215Y44575D02*
G01X49890Y44580D01*
G01X49890Y44458D01*
G01X50172Y44402D01*
G01X50198Y44338D01*
G01X50214Y44273D01*
G01X50223Y44209D01*
G01X50225Y44146D01*
G01X50223Y44087D01*
G01X50215Y44032D01*
G01X50201Y43978D01*
G01X50182Y43927D01*
G01X50157Y43880D01*
G01X50128Y43835D01*
G01X50093Y43794D01*
G01X50053Y43756D01*
G01X50007Y43722D01*
G01X49957Y43692D01*
G01X49901Y43666D01*
G01X49840Y43645D01*
G01X49773Y43628D01*
G01X49702Y43615D01*
G01X49626Y43607D01*
G01X49545Y43605D01*
G01X49464Y43608D01*
G01X49389Y43616D01*
G01X49318Y43629D01*
G01X49252Y43648D01*
G01X49191Y43671D01*
G01X49135Y43698D01*
G01X49084Y43729D01*
G01X49039Y43765D01*
G01X48998Y43804D01*
G01X48963Y43846D01*
G01X48933Y43891D01*
G01X48908Y43939D01*
G01X48889Y43990D01*
G01X48875Y44042D01*
G01X48867Y44097D01*
G01X48864Y44153D01*
G01X48868Y44210D01*
G01X48878Y44268D01*
G01X48895Y44325D01*
G01X48920Y44382D01*
G01X49204Y44438D01*
G01X49204Y44560D01*
G01X48877Y44555D01*
G01X48848Y44499D01*
G01X48824Y44444D01*
G01X48805Y44389D01*
G01X48791Y44335D01*
G01X48780Y44282D01*
G01X48773Y44230D01*
G01X48769Y44179D01*
G01X48768Y44131D01*
G01X48770Y44066D01*
G01X48777Y44004D01*
G01X48789Y43944D01*
G01X48805Y43885D01*
G01X48825Y43829D01*
G01X48849Y43776D01*
G01X48878Y43725D01*
G01X48910Y43676D01*
G01X48946Y43631D01*
G01X48985Y43589D01*
G01X49029Y43550D01*
G01X49075Y43515D01*
G01X49124Y43483D01*
G01X49176Y43455D01*
G01X49231Y43431D01*
G01X49289Y43411D01*
G01X49350Y43395D01*
G01X49413Y43383D01*
G01X49478Y43376D01*
G01X49545Y43374D01*
G01X49613Y43376D01*
G01X49679Y43383D01*
G01X49743Y43394D01*
G01X49804Y43409D01*
G01X49863Y43429D01*
G01X49918Y43452D01*
G01X49970Y43479D01*
G01X50020Y43511D01*
G01X50066Y43545D01*
G01X50109Y43584D01*
G01X50148Y43625D01*
G01X50184Y43670D01*
G01X50216Y43718D01*
G01X50244Y43769D01*
G01X50268Y43823D01*
G01X50288Y43879D01*
G01X50304Y43939D01*
G01X50315Y44000D01*
G01X50322Y44064D01*
G01X50325Y44131D01*
G01X50323Y44190D01*
G01X50318Y44247D01*
G01X50310Y44304D01*
G01X50299Y44360D01*
G01X50283Y44416D01*
G01X50265Y44470D01*
G01X50242Y44523D01*
G01X50215Y44575D01*
G37*

%LPD*%
G36*
G01X50215Y43168D02*
G01X49890Y43173D01*
G01X49890Y43051D01*
G01X50172Y42995D01*
G01X50198Y42932D01*
G01X50214Y42867D01*
G01X50223Y42803D01*
G01X50225Y42741D01*
G01X50223Y42682D01*
G01X50215Y42626D01*
G01X50201Y42572D01*
G01X50182Y42521D01*
G01X50157Y42474D01*
G01X50128Y42429D01*
G01X50093Y42387D01*
G01X50053Y42350D01*
G01X50007Y42316D01*
G01X49957Y42285D01*
G01X49901Y42259D01*
G01X49840Y42238D01*
G01X49773Y42221D01*
G01X49702Y42208D01*
G01X49626Y42200D01*
G01X49545Y42198D01*
G01X49464Y42201D01*
G01X49389Y42209D01*
G01X49318Y42222D01*
G01X49252Y42240D01*
G01X49191Y42264D01*
G01X49135Y42291D01*
G01X49084Y42323D01*
G01X49039Y42358D01*
G01X48998Y42397D01*
G01X48963Y42439D01*
G01X48933Y42485D01*
G01X48908Y42533D01*
G01X48889Y42584D01*
G01X48875Y42637D01*
G01X48867Y42692D01*
G01X48864Y42749D01*
G01X48868Y42805D01*
G01X48878Y42861D01*
G01X48895Y42918D01*
G01X48920Y42975D01*
G01X49204Y43031D01*
G01X49204Y43153D01*
G01X48877Y43148D01*
G01X48848Y43093D01*
G01X48824Y43038D01*
G01X48805Y42984D01*
G01X48791Y42930D01*
G01X48780Y42876D01*
G01X48773Y42824D01*
G01X48769Y42773D01*
G01X48768Y42723D01*
G01X48770Y42659D01*
G01X48777Y42597D01*
G01X48789Y42537D01*
G01X48805Y42478D01*
G01X48825Y42422D01*
G01X48849Y42369D01*
G01X48878Y42318D01*
G01X48910Y42270D01*
G01X48946Y42225D01*
G01X48985Y42183D01*
G01X49029Y42145D01*
G01X49075Y42109D01*
G01X49124Y42078D01*
G01X49176Y42050D01*
G01X49231Y42026D01*
G01X49289Y42006D01*
G01X49350Y41990D01*
G01X49413Y41978D01*
G01X49478Y41972D01*
G01X49545Y41969D01*
G01X49613Y41971D01*
G01X49679Y41978D01*
G01X49743Y41989D01*
G01X49804Y42004D01*
G01X49863Y42024D01*
G01X49918Y42047D01*
G01X49970Y42074D01*
G01X50020Y42105D01*
G01X50066Y42140D01*
G01X50109Y42178D01*
G01X50148Y42219D01*
G01X50184Y42264D01*
G01X50216Y42311D01*
G01X50244Y42362D01*
G01X50268Y42416D01*
G01X50288Y42473D01*
G01X50304Y42531D01*
G01X50315Y42593D01*
G01X50322Y42657D01*
G01X50325Y42723D01*
G01X50323Y42783D01*
G01X50318Y42841D01*
G01X50310Y42898D01*
G01X50299Y42954D01*
G01X50283Y43009D01*
G01X50265Y43063D01*
G01X50242Y43116D01*
G01X50215Y43168D01*
G37*

%LPD*%
G36*
G01X48877Y41941D02*
G01X48803Y41941D01*
G01X48803Y41431D01*
G01X48887Y41431D01*
G01X48907Y41636D01*
G01X50025Y41276D01*
G01X48905Y40885D01*
G01X48887Y41103D01*
G01X48803Y41103D01*
G01X48803Y40498D01*
G01X48879Y40498D01*
G01X48897Y40669D01*
G01X50307Y41187D01*
G01X50307Y41281D01*
G01X48905Y41748D01*
G01X48877Y41941D01*
G37*

%LPD*%

%LPD*%
G36*
G01X52070Y44606D02*
G01X51650Y44621D01*
G01X51650Y44504D01*
G01X51973Y44433D01*
G01X51973Y43920D01*
G01X51829Y43917D01*
G01X51757Y43916D01*
G01X51686Y43915D01*
G01X50974Y43915D01*
G01X50900Y43916D01*
G01X50827Y43917D01*
G01X50753Y43918D01*
G01X50680Y43920D01*
G01X50657Y44128D01*
G01X50581Y44128D01*
G01X50581Y43501D01*
G01X50657Y43501D01*
G01X50680Y43709D01*
G01X50753Y43710D01*
G01X50899Y43711D01*
G01X50973Y43711D01*
G01X51047Y43712D01*
G01X51603Y43712D01*
G01X51675Y43711D01*
G01X51749Y43711D01*
G01X51896Y43710D01*
G01X51970Y43709D01*
G01X51993Y43501D01*
G01X52070Y43501D01*
G01X52070Y44606D01*
G37*

%LPD*%
G36*
G01X51993Y43305D02*
G01X51668Y43308D01*
G01X51668Y43186D01*
G01X51950Y43132D01*
G01X51976Y43068D01*
G01X51992Y43003D01*
G01X52001Y42939D01*
G01X52003Y42876D01*
G01X52001Y42817D01*
G01X51993Y42761D01*
G01X51979Y42707D01*
G01X51960Y42656D01*
G01X51935Y42608D01*
G01X51906Y42563D01*
G01X51871Y42522D01*
G01X51831Y42484D01*
G01X51785Y42450D01*
G01X51735Y42420D01*
G01X51679Y42394D01*
G01X51618Y42372D01*
G01X51551Y42355D01*
G01X51480Y42342D01*
G01X51404Y42335D01*
G01X51323Y42332D01*
G01X51242Y42335D01*
G01X51167Y42343D01*
G01X51096Y42357D01*
G01X51030Y42375D01*
G01X50969Y42398D01*
G01X50913Y42426D01*
G01X50862Y42457D01*
G01X50817Y42493D01*
G01X50776Y42531D01*
G01X50741Y42574D01*
G01X50711Y42619D01*
G01X50686Y42668D01*
G01X50667Y42718D01*
G01X50653Y42772D01*
G01X50645Y42827D01*
G01X50642Y42883D01*
G01X50646Y42940D01*
G01X50656Y42997D01*
G01X50673Y43054D01*
G01X50698Y43112D01*
G01X50982Y43165D01*
G01X50982Y43287D01*
G01X50655Y43285D01*
G01X50626Y43229D01*
G01X50602Y43174D01*
G01X50583Y43119D01*
G01X50569Y43065D01*
G01X50558Y43011D01*
G01X50551Y42959D01*
G01X50547Y42907D01*
G01X50546Y42858D01*
G01X50548Y42794D01*
G01X50555Y42732D01*
G01X50567Y42671D01*
G01X50583Y42613D01*
G01X50603Y42557D01*
G01X50627Y42504D01*
G01X50656Y42453D01*
G01X50688Y42405D01*
G01X50724Y42360D01*
G01X50763Y42318D01*
G01X50807Y42279D01*
G01X50853Y42244D01*
G01X50902Y42212D01*
G01X50954Y42184D01*
G01X51009Y42161D01*
G01X51067Y42140D01*
G01X51128Y42125D01*
G01X51191Y42113D01*
G01X51256Y42106D01*
G01X51323Y42104D01*
G01X51391Y42106D01*
G01X51457Y42113D01*
G01X51521Y42124D01*
G01X51582Y42139D01*
G01X51641Y42159D01*
G01X51696Y42182D01*
G01X51748Y42209D01*
G01X51798Y42240D01*
G01X51844Y42275D01*
G01X51887Y42313D01*
G01X51926Y42355D01*
G01X51962Y42399D01*
G01X51994Y42447D01*
G01X52022Y42498D01*
G01X52046Y42552D01*
G01X52066Y42608D01*
G01X52082Y42667D01*
G01X52093Y42729D01*
G01X52100Y42792D01*
G01X52103Y42858D01*
G01X52101Y42918D01*
G01X52096Y42976D01*
G01X52088Y43033D01*
G01X52077Y43089D01*
G01X52061Y43145D01*
G01X52043Y43199D01*
G01X52020Y43252D01*
G01X51993Y43305D01*
G37*

%LPD*%
G36*
G01X51742Y41898D02*
G01X51678Y41903D01*
G01X51628Y41901D01*
G01X51581Y41893D01*
G01X51537Y41881D01*
G01X51495Y41864D01*
G01X51456Y41841D01*
G01X51419Y41811D01*
G01X51384Y41776D01*
G01X51351Y41734D01*
G01X51319Y41686D01*
G01X51288Y41630D01*
G01X51258Y41567D01*
G01X51229Y41497D01*
G01X51193Y41408D01*
G01X51168Y41351D01*
G01X51141Y41301D01*
G01X51111Y41258D01*
G01X51078Y41222D01*
G01X51041Y41194D01*
G01X51000Y41173D01*
G01X50954Y41160D01*
G01X50904Y41156D01*
G01X50844Y41162D01*
G01X50791Y41180D01*
G01X50746Y41208D01*
G01X50709Y41245D01*
G01X50680Y41290D01*
G01X50659Y41343D01*
G01X50646Y41402D01*
G01X50642Y41466D01*
G01X50645Y41516D01*
G01X50653Y41562D01*
G01X50667Y41606D01*
G01X50688Y41649D01*
G01X50954Y41705D01*
G01X50954Y41822D01*
G01X50662Y41834D01*
G01X50637Y41797D01*
G01X50614Y41758D01*
G01X50594Y41716D01*
G01X50578Y41671D01*
G01X50564Y41625D01*
G01X50554Y41575D01*
G01X50548Y41524D01*
G01X50546Y41469D01*
G01X50549Y41400D01*
G01X50558Y41335D01*
G01X50573Y41274D01*
G01X50594Y41216D01*
G01X50621Y41163D01*
G01X50653Y41116D01*
G01X50690Y41075D01*
G01X50733Y41040D01*
G01X50781Y41012D01*
G01X50834Y40991D01*
G01X50892Y40978D01*
G01X50954Y40973D01*
G01X51008Y40976D01*
G01X51059Y40986D01*
G01X51105Y41001D01*
G01X51148Y41022D01*
G01X51188Y41048D01*
G01X51225Y41079D01*
G01X51260Y41114D01*
G01X51292Y41155D01*
G01X51321Y41199D01*
G01X51349Y41248D01*
G01X51375Y41301D01*
G01X51435Y41441D01*
G01X51464Y41510D01*
G01X51493Y41568D01*
G01X51523Y41616D01*
G01X51556Y41655D01*
G01X51591Y41684D01*
G01X51631Y41704D01*
G01X51676Y41716D01*
G01X51727Y41720D01*
G01X51790Y41714D01*
G01X51846Y41695D01*
G01X51893Y41665D01*
G01X51933Y41623D01*
G01X51963Y41572D01*
G01X51986Y41511D01*
G01X51999Y41442D01*
G01X52003Y41365D01*
G01X52000Y41299D01*
G01X51991Y41239D01*
G01X51975Y41184D01*
G01X51950Y41131D01*
G01X51671Y41075D01*
G01X51671Y40961D01*
G01X51983Y40948D01*
G01X52007Y40989D01*
G01X52030Y41035D01*
G01X52050Y41085D01*
G01X52067Y41139D01*
G01X52082Y41196D01*
G01X52093Y41256D01*
G01X52100Y41317D01*
G01X52103Y41380D01*
G01X52099Y41455D01*
G01X52089Y41526D01*
G01X52074Y41592D01*
G01X52051Y41653D01*
G01X52023Y41708D01*
G01X51990Y41758D01*
G01X51950Y41800D01*
G01X51906Y41837D01*
G01X51856Y41865D01*
G01X51801Y41886D01*
G01X51742Y41898D01*
G37*

%LPD*%

%LPD*%
G36*
G01X54229Y44885D02*
G01X54152Y44885D01*
G01X54132Y44710D01*
G01X52730Y44230D01*
G01X52730Y44100D01*
G01X54122Y43628D01*
G01X54152Y43447D01*
G01X54229Y43447D01*
G01X54229Y43943D01*
G01X54152Y43943D01*
G01X54122Y43724D01*
G01X53736Y43854D01*
G01X53736Y44369D01*
G01X54124Y44499D01*
G01X54152Y44280D01*
G01X54229Y44280D01*
G01X54229Y44885D01*
G37*

%LPC*%
G36*
G01X53647Y43882D02*
G01X53647Y44341D01*
G01X52956Y44108D01*
G01X53647Y43882D01*
G37*

%LPD*%
G36*
G01X53554Y43447D02*
G01X53484Y43450D01*
G01X53414Y43448D01*
G01X53347Y43441D01*
G01X53283Y43431D01*
G01X53223Y43416D01*
G01X53165Y43398D01*
G01X53112Y43376D01*
G01X53062Y43350D01*
G01X53015Y43320D01*
G01X52972Y43287D01*
G01X52932Y43251D01*
G01X52896Y43211D01*
G01X52864Y43168D01*
G01X52835Y43123D01*
G01X52810Y43074D01*
G01X52789Y43022D01*
G01X52772Y42968D01*
G01X52758Y42911D01*
G01X52748Y42852D01*
G01X52742Y42790D01*
G01X52740Y42726D01*
G01X52740Y42078D01*
G01X52816Y42078D01*
G01X52839Y42287D01*
G01X52913Y42288D01*
G01X53060Y42289D01*
G01X53907Y42289D01*
G01X53982Y42288D01*
G01X54056Y42288D01*
G01X54129Y42287D01*
G01X54152Y42078D01*
G01X54229Y42078D01*
G01X54229Y42685D01*
G01X54226Y42751D01*
G01X54220Y42815D01*
G01X54211Y42876D01*
G01X54197Y42936D01*
G01X54179Y42992D01*
G01X54158Y43047D01*
G01X54133Y43098D01*
G01X54104Y43147D01*
G01X54072Y43192D01*
G01X54035Y43235D01*
G01X53996Y43273D01*
G01X53953Y43309D01*
G01X53906Y43341D01*
G01X53856Y43369D01*
G01X53802Y43393D01*
G01X53745Y43413D01*
G01X53685Y43429D01*
G01X53621Y43440D01*
G01X53554Y43447D01*
G37*

%LPC*%
G36*
G01X53560Y43217D02*
G01X53484Y43219D01*
G01X53406Y43217D01*
G01X53333Y43210D01*
G01X53264Y43199D01*
G01X53200Y43184D01*
G01X53141Y43164D01*
G01X53088Y43141D01*
G01X53038Y43113D01*
G01X52995Y43081D01*
G01X52955Y43046D01*
G01X52921Y43006D01*
G01X52892Y42963D01*
G01X52869Y42915D01*
G01X52850Y42865D01*
G01X52837Y42810D01*
G01X52829Y42752D01*
G01X52826Y42690D01*
G01X52826Y42497D01*
G01X52976Y42494D01*
G01X53051Y42493D01*
G01X53203Y42493D01*
G01X53279Y42492D01*
G01X53675Y42492D01*
G01X53756Y42493D01*
G01X53912Y42493D01*
G01X53988Y42494D01*
G01X54064Y42496D01*
G01X54140Y42497D01*
G01X54140Y42673D01*
G01X54137Y42737D01*
G01X54128Y42798D01*
G01X54115Y42855D01*
G01X54095Y42908D01*
G01X54071Y42957D01*
G01X54042Y43002D01*
G01X54007Y43042D01*
G01X53967Y43079D01*
G01X53923Y43112D01*
G01X53873Y43140D01*
G01X53820Y43164D01*
G01X53761Y43183D01*
G01X53699Y43199D01*
G01X53631Y43210D01*
G01X53560Y43217D01*
G37*

%LPD*%
G36*
G01X53901Y41898D02*
G01X53837Y41903D01*
G01X53787Y41901D01*
G01X53740Y41893D01*
G01X53696Y41881D01*
G01X53654Y41864D01*
G01X53615Y41841D01*
G01X53578Y41811D01*
G01X53543Y41776D01*
G01X53510Y41734D01*
G01X53478Y41686D01*
G01X53447Y41630D01*
G01X53417Y41567D01*
G01X53388Y41497D01*
G01X53352Y41408D01*
G01X53327Y41351D01*
G01X53300Y41301D01*
G01X53270Y41258D01*
G01X53237Y41222D01*
G01X53200Y41194D01*
G01X53159Y41173D01*
G01X53113Y41160D01*
G01X53063Y41156D01*
G01X53003Y41162D01*
G01X52950Y41180D01*
G01X52905Y41208D01*
G01X52868Y41245D01*
G01X52839Y41290D01*
G01X52818Y41343D01*
G01X52805Y41402D01*
G01X52801Y41466D01*
G01X52804Y41516D01*
G01X52812Y41562D01*
G01X52826Y41606D01*
G01X52847Y41649D01*
G01X53113Y41705D01*
G01X53113Y41822D01*
G01X52821Y41834D01*
G01X52796Y41797D01*
G01X52773Y41758D01*
G01X52753Y41716D01*
G01X52737Y41671D01*
G01X52723Y41625D01*
G01X52713Y41575D01*
G01X52707Y41524D01*
G01X52705Y41469D01*
G01X52708Y41400D01*
G01X52717Y41335D01*
G01X52732Y41274D01*
G01X52753Y41216D01*
G01X52780Y41163D01*
G01X52812Y41116D01*
G01X52849Y41075D01*
G01X52892Y41040D01*
G01X52940Y41012D01*
G01X52993Y40991D01*
G01X53051Y40978D01*
G01X53113Y40973D01*
G01X53167Y40976D01*
G01X53218Y40986D01*
G01X53264Y41001D01*
G01X53307Y41022D01*
G01X53347Y41048D01*
G01X53384Y41079D01*
G01X53419Y41114D01*
G01X53451Y41155D01*
G01X53480Y41199D01*
G01X53508Y41248D01*
G01X53534Y41301D01*
G01X53594Y41441D01*
G01X53623Y41510D01*
G01X53652Y41568D01*
G01X53682Y41616D01*
G01X53715Y41655D01*
G01X53750Y41684D01*
G01X53790Y41704D01*
G01X53835Y41716D01*
G01X53886Y41720D01*
G01X53949Y41714D01*
G01X54005Y41695D01*
G01X54052Y41665D01*
G01X54092Y41623D01*
G01X54122Y41572D01*
G01X54145Y41511D01*
G01X54158Y41442D01*
G01X54162Y41365D01*
G01X54159Y41299D01*
G01X54150Y41239D01*
G01X54134Y41184D01*
G01X54109Y41131D01*
G01X53830Y41075D01*
G01X53830Y40961D01*
G01X54142Y40948D01*
G01X54166Y40989D01*
G01X54189Y41035D01*
G01X54209Y41085D01*
G01X54226Y41139D01*
G01X54241Y41196D01*
G01X54252Y41256D01*
G01X54259Y41317D01*
G01X54262Y41380D01*
G01X54258Y41455D01*
G01X54248Y41526D01*
G01X54233Y41592D01*
G01X54210Y41653D01*
G01X54182Y41708D01*
G01X54149Y41758D01*
G01X54109Y41800D01*
G01X54065Y41837D01*
G01X54015Y41865D01*
G01X53960Y41886D01*
G01X53901Y41898D01*
G37*

%LPD*%

%LPD*%
G36*
G01X55933Y44692D02*
G01X55869Y44697D01*
G01X55819Y44695D01*
G01X55772Y44687D01*
G01X55728Y44675D01*
G01X55686Y44657D01*
G01X55647Y44634D01*
G01X55610Y44604D01*
G01X55575Y44569D01*
G01X55542Y44527D01*
G01X55510Y44479D01*
G01X55479Y44423D01*
G01X55449Y44361D01*
G01X55420Y44291D01*
G01X55384Y44199D01*
G01X55359Y44142D01*
G01X55332Y44093D01*
G01X55302Y44049D01*
G01X55269Y44013D01*
G01X55232Y43985D01*
G01X55191Y43965D01*
G01X55145Y43952D01*
G01X55095Y43948D01*
G01X55035Y43954D01*
G01X54982Y43971D01*
G01X54937Y43999D01*
G01X54900Y44036D01*
G01X54871Y44082D01*
G01X54850Y44135D01*
G01X54837Y44195D01*
G01X54833Y44260D01*
G01X54836Y44309D01*
G01X54844Y44354D01*
G01X54858Y44397D01*
G01X54879Y44441D01*
G01X55145Y44496D01*
G01X55145Y44613D01*
G01X54853Y44626D01*
G01X54828Y44589D01*
G01X54805Y44550D01*
G01X54785Y44508D01*
G01X54769Y44464D01*
G01X54755Y44418D01*
G01X54745Y44368D01*
G01X54739Y44316D01*
G01X54737Y44260D01*
G01X54740Y44192D01*
G01X54749Y44127D01*
G01X54764Y44065D01*
G01X54785Y44008D01*
G01X54812Y43955D01*
G01X54844Y43908D01*
G01X54881Y43866D01*
G01X54924Y43831D01*
G01X54972Y43803D01*
G01X55025Y43782D01*
G01X55083Y43769D01*
G01X55145Y43765D01*
G01X55199Y43768D01*
G01X55250Y43777D01*
G01X55296Y43792D01*
G01X55339Y43813D01*
G01X55379Y43839D01*
G01X55416Y43870D01*
G01X55451Y43906D01*
G01X55483Y43946D01*
G01X55512Y43991D01*
G01X55540Y44040D01*
G01X55566Y44093D01*
G01X55590Y44148D01*
G01X55626Y44232D01*
G01X55655Y44302D01*
G01X55684Y44361D01*
G01X55714Y44410D01*
G01X55747Y44449D01*
G01X55782Y44478D01*
G01X55822Y44498D01*
G01X55867Y44510D01*
G01X55918Y44514D01*
G01X55981Y44508D01*
G01X56037Y44489D01*
G01X56084Y44458D01*
G01X56124Y44417D01*
G01X56154Y44365D01*
G01X56177Y44304D01*
G01X56190Y44235D01*
G01X56194Y44159D01*
G01X56191Y44092D01*
G01X56182Y44032D01*
G01X56166Y43978D01*
G01X56141Y43925D01*
G01X55862Y43866D01*
G01X55862Y43752D01*
G01X56174Y43739D01*
G01X56198Y43780D01*
G01X56221Y43826D01*
G01X56241Y43877D01*
G01X56258Y43930D01*
G01X56273Y43988D01*
G01X56284Y44047D01*
G01X56291Y44109D01*
G01X56294Y44171D01*
G01X56290Y44247D01*
G01X56280Y44318D01*
G01X56265Y44384D01*
G01X56242Y44445D01*
G01X56214Y44501D01*
G01X56181Y44550D01*
G01X56141Y44593D01*
G01X56097Y44629D01*
G01X56047Y44658D01*
G01X55992Y44680D01*
G01X55933Y44692D01*
G37*

%LPD*%
G36*
G01X56261Y43549D02*
G01X55864Y43559D01*
G01X55864Y43450D01*
G01X56164Y43391D01*
G01X56164Y42820D01*
G01X56090Y42819D01*
G01X56015Y42818D01*
G01X55864Y42818D01*
G01X55787Y42817D01*
G01X55547Y42817D01*
G01X55547Y43153D01*
G01X55763Y43183D01*
G01X55763Y43275D01*
G01X55239Y43275D01*
G01X55239Y43183D01*
G01X55458Y43153D01*
G01X55458Y42817D01*
G01X55234Y42817D01*
G01X55160Y42818D01*
G01X55014Y42818D01*
G01X54941Y42819D01*
G01X54869Y42820D01*
G01X54869Y43348D01*
G01X55163Y43407D01*
G01X55163Y43518D01*
G01X54772Y43506D01*
G01X54772Y42401D01*
G01X54848Y42401D01*
G01X54871Y42609D01*
G01X54944Y42611D01*
G01X55092Y42613D01*
G01X55165Y42614D01*
G01X55868Y42614D01*
G01X55941Y42613D01*
G01X56015Y42612D01*
G01X56088Y42611D01*
G01X56161Y42609D01*
G01X56184Y42401D01*
G01X56261Y42401D01*
G01X56261Y43549D01*
G37*

%LPD*%
G36*
G01X56261Y42271D02*
G01X56184Y42271D01*
G01X56167Y42099D01*
G01X55819Y41994D01*
G01X55758Y41974D01*
G01X55706Y41951D01*
G01X55662Y41925D01*
G01X55624Y41896D01*
G01X55593Y41862D01*
G01X55569Y41823D01*
G01X55550Y41780D01*
G01X55537Y41730D01*
G01X55523Y41791D01*
G01X55506Y41847D01*
G01X55484Y41897D01*
G01X55459Y41942D01*
G01X55430Y41982D01*
G01X55398Y42016D01*
G01X55363Y42045D01*
G01X55326Y42069D01*
G01X55287Y42087D01*
G01X55247Y42101D01*
G01X55204Y42109D01*
G01X55161Y42111D01*
G01X55101Y42107D01*
G01X55046Y42095D01*
G01X54996Y42075D01*
G01X54950Y42047D01*
G01X54910Y42012D01*
G01X54874Y41970D01*
G01X54843Y41921D01*
G01X54818Y41864D01*
G01X54798Y41801D01*
G01X54784Y41732D01*
G01X54775Y41657D01*
G01X54772Y41575D01*
G01X54772Y40951D01*
G01X54848Y40951D01*
G01X54871Y41159D01*
G01X54944Y41160D01*
G01X55092Y41161D01*
G01X55941Y41161D01*
G01X56015Y41160D01*
G01X56088Y41160D01*
G01X56161Y41159D01*
G01X56184Y40951D01*
G01X56261Y40951D01*
G01X56261Y41578D01*
G01X56184Y41578D01*
G01X56159Y41370D01*
G01X56087Y41368D01*
G01X56015Y41367D01*
G01X55942Y41366D01*
G01X55868Y41365D01*
G01X55565Y41365D01*
G01X55565Y41484D01*
G01X55567Y41548D01*
G01X55574Y41603D01*
G01X55587Y41649D01*
G01X55608Y41688D01*
G01X55637Y41719D01*
G01X55676Y41746D01*
G01X55726Y41768D01*
G01X55788Y41786D01*
G01X56141Y41878D01*
G01X56207Y41904D01*
G01X56251Y41948D01*
G01X56276Y42013D01*
G01X56283Y42104D01*
G01X56282Y42153D01*
G01X56278Y42197D01*
G01X56271Y42237D01*
G01X56261Y42271D01*
G37*

%LPC*%
G36*
G01X55225Y41897D02*
G01X55158Y41903D01*
G01X55091Y41898D01*
G01X55031Y41883D01*
G01X54980Y41857D01*
G01X54937Y41820D01*
G01X54903Y41773D01*
G01X54878Y41715D01*
G01X54864Y41644D01*
G01X54858Y41563D01*
G01X54858Y41370D01*
G01X55007Y41367D01*
G01X55081Y41366D01*
G01X55157Y41365D01*
G01X55481Y41365D01*
G01X55481Y41547D01*
G01X55475Y41631D01*
G01X55456Y41703D01*
G01X55427Y41764D01*
G01X55389Y41814D01*
G01X55342Y41853D01*
G01X55287Y41881D01*
G01X55225Y41897D01*
G37*

%LPD*%

%LPD*%
G36*
G01X58216Y44905D02*
G01X57891Y44908D01*
G01X57891Y44786D01*
G01X58173Y44733D01*
G01X58199Y44668D01*
G01X58215Y44604D01*
G01X58224Y44540D01*
G01X58226Y44476D01*
G01X58224Y44417D01*
G01X58216Y44361D01*
G01X58202Y44307D01*
G01X58183Y44256D01*
G01X58158Y44208D01*
G01X58129Y44164D01*
G01X58094Y44122D01*
G01X58054Y44084D01*
G01X58008Y44050D01*
G01X57958Y44020D01*
G01X57902Y43994D01*
G01X57841Y43973D01*
G01X57774Y43955D01*
G01X57703Y43943D01*
G01X57627Y43935D01*
G01X57546Y43933D01*
G01X57465Y43936D01*
G01X57390Y43944D01*
G01X57319Y43957D01*
G01X57253Y43975D01*
G01X57192Y43999D01*
G01X57136Y44026D01*
G01X57085Y44057D01*
G01X57040Y44093D01*
G01X56999Y44132D01*
G01X56964Y44174D01*
G01X56934Y44220D01*
G01X56909Y44268D01*
G01X56890Y44319D01*
G01X56876Y44372D01*
G01X56868Y44427D01*
G01X56865Y44484D01*
G01X56869Y44541D01*
G01X56879Y44597D01*
G01X56896Y44654D01*
G01X56921Y44712D01*
G01X57205Y44766D01*
G01X57205Y44888D01*
G01X56878Y44885D01*
G01X56849Y44830D01*
G01X56825Y44774D01*
G01X56806Y44719D01*
G01X56792Y44665D01*
G01X56781Y44611D01*
G01X56774Y44559D01*
G01X56770Y44508D01*
G01X56769Y44458D01*
G01X56771Y44394D01*
G01X56778Y44332D01*
G01X56790Y44271D01*
G01X56806Y44213D01*
G01X56826Y44157D01*
G01X56850Y44104D01*
G01X56879Y44053D01*
G01X56911Y44005D01*
G01X56947Y43960D01*
G01X56986Y43918D01*
G01X57030Y43880D01*
G01X57076Y43844D01*
G01X57125Y43813D01*
G01X57177Y43785D01*
G01X57232Y43761D01*
G01X57290Y43740D01*
G01X57351Y43725D01*
G01X57414Y43713D01*
G01X57479Y43706D01*
G01X57546Y43704D01*
G01X57614Y43706D01*
G01X57680Y43713D01*
G01X57744Y43724D01*
G01X57805Y43739D01*
G01X57864Y43759D01*
G01X57919Y43782D01*
G01X57971Y43810D01*
G01X58021Y43841D01*
G01X58067Y43875D01*
G01X58110Y43913D01*
G01X58149Y43955D01*
G01X58185Y44000D01*
G01X58217Y44047D01*
G01X58245Y44098D01*
G01X58269Y44152D01*
G01X58289Y44208D01*
G01X58305Y44267D01*
G01X58316Y44329D01*
G01X58323Y44392D01*
G01X58326Y44458D01*
G01X58324Y44518D01*
G01X58319Y44576D01*
G01X58311Y44633D01*
G01X58300Y44689D01*
G01X58284Y44745D01*
G01X58266Y44799D01*
G01X58243Y44852D01*
G01X58216Y44905D01*
G37*

%LPD*%
G36*
G01X57618Y43463D02*
G01X57548Y43465D01*
G01X57478Y43463D01*
G01X57411Y43457D01*
G01X57347Y43446D01*
G01X57287Y43432D01*
G01X57229Y43413D01*
G01X57176Y43391D01*
G01X57126Y43365D01*
G01X57079Y43336D01*
G01X57036Y43303D01*
G01X56996Y43266D01*
G01X56960Y43226D01*
G01X56928Y43184D01*
G01X56899Y43138D01*
G01X56874Y43089D01*
G01X56853Y43037D01*
G01X56836Y42984D01*
G01X56822Y42927D01*
G01X56812Y42867D01*
G01X56806Y42805D01*
G01X56804Y42741D01*
G01X56804Y42094D01*
G01X56880Y42094D01*
G01X56903Y42302D01*
G01X56977Y42303D01*
G01X57124Y42304D01*
G01X57971Y42304D01*
G01X58046Y42303D01*
G01X58120Y42303D01*
G01X58193Y42302D01*
G01X58216Y42094D01*
G01X58293Y42094D01*
G01X58293Y42701D01*
G01X58290Y42766D01*
G01X58284Y42830D01*
G01X58275Y42892D01*
G01X58261Y42951D01*
G01X58243Y43007D01*
G01X58222Y43062D01*
G01X58197Y43113D01*
G01X58168Y43162D01*
G01X58136Y43207D01*
G01X58099Y43250D01*
G01X58060Y43288D01*
G01X58017Y43324D01*
G01X57970Y43356D01*
G01X57920Y43384D01*
G01X57866Y43408D01*
G01X57809Y43428D01*
G01X57749Y43444D01*
G01X57685Y43455D01*
G01X57618Y43463D01*
G37*

%LPC*%
G36*
G01X57624Y43232D02*
G01X57548Y43234D01*
G01X57470Y43232D01*
G01X57397Y43225D01*
G01X57328Y43214D01*
G01X57264Y43199D01*
G01X57205Y43180D01*
G01X57152Y43156D01*
G01X57102Y43128D01*
G01X57059Y43096D01*
G01X57019Y43061D01*
G01X56985Y43021D01*
G01X56956Y42978D01*
G01X56933Y42931D01*
G01X56914Y42880D01*
G01X56901Y42826D01*
G01X56893Y42767D01*
G01X56890Y42706D01*
G01X56890Y42513D01*
G01X57040Y42510D01*
G01X57115Y42509D01*
G01X57191Y42508D01*
G01X57898Y42508D01*
G01X57976Y42509D01*
G01X58128Y42511D01*
G01X58204Y42513D01*
G01X58204Y42688D01*
G01X58201Y42752D01*
G01X58192Y42813D01*
G01X58179Y42870D01*
G01X58159Y42923D01*
G01X58135Y42972D01*
G01X58106Y43017D01*
G01X58071Y43058D01*
G01X58031Y43094D01*
G01X57987Y43127D01*
G01X57937Y43155D01*
G01X57884Y43179D01*
G01X57825Y43198D01*
G01X57763Y43214D01*
G01X57695Y43225D01*
G01X57624Y43232D01*
G37*

%LPD*%

%LPD*%
G36*
G01X59997Y44576D02*
G01X59933Y44580D01*
G01X59883Y44578D01*
G01X59836Y44571D01*
G01X59792Y44558D01*
G01X59750Y44541D01*
G01X59711Y44518D01*
G01X59674Y44488D01*
G01X59639Y44453D01*
G01X59606Y44411D01*
G01X59574Y44363D01*
G01X59543Y44307D01*
G01X59513Y44244D01*
G01X59484Y44174D01*
G01X59448Y44085D01*
G01X59423Y44028D01*
G01X59396Y43978D01*
G01X59366Y43935D01*
G01X59333Y43899D01*
G01X59296Y43871D01*
G01X59255Y43850D01*
G01X59209Y43838D01*
G01X59159Y43833D01*
G01X59099Y43840D01*
G01X59046Y43857D01*
G01X59001Y43885D01*
G01X58964Y43922D01*
G01X58935Y43967D01*
G01X58914Y44020D01*
G01X58901Y44079D01*
G01X58897Y44143D01*
G01X58900Y44193D01*
G01X58908Y44238D01*
G01X58922Y44282D01*
G01X58943Y44324D01*
G01X59209Y44382D01*
G01X59209Y44496D01*
G01X58917Y44512D01*
G01X58892Y44474D01*
G01X58869Y44434D01*
G01X58849Y44392D01*
G01X58833Y44348D01*
G01X58819Y44301D01*
G01X58809Y44253D01*
G01X58803Y44201D01*
G01X58801Y44146D01*
G01X58804Y44077D01*
G01X58813Y44011D01*
G01X58828Y43950D01*
G01X58849Y43892D01*
G01X58876Y43840D01*
G01X58908Y43792D01*
G01X58945Y43751D01*
G01X58988Y43716D01*
G01X59036Y43688D01*
G01X59089Y43668D01*
G01X59147Y43655D01*
G01X59209Y43651D01*
G01X59263Y43654D01*
G01X59314Y43663D01*
G01X59360Y43678D01*
G01X59403Y43699D01*
G01X59443Y43725D01*
G01X59480Y43756D01*
G01X59515Y43791D01*
G01X59547Y43832D01*
G01X59576Y43877D01*
G01X59604Y43925D01*
G01X59630Y43978D01*
G01X59690Y44118D01*
G01X59719Y44187D01*
G01X59748Y44245D01*
G01X59778Y44293D01*
G01X59811Y44332D01*
G01X59846Y44361D01*
G01X59886Y44382D01*
G01X59931Y44393D01*
G01X59982Y44397D01*
G01X60045Y44391D01*
G01X60101Y44372D01*
G01X60148Y44342D01*
G01X60188Y44300D01*
G01X60218Y44249D01*
G01X60241Y44189D01*
G01X60254Y44119D01*
G01X60258Y44042D01*
G01X60255Y43975D01*
G01X60246Y43915D01*
G01X60230Y43861D01*
G01X60205Y43808D01*
G01X59926Y43752D01*
G01X59926Y43638D01*
G01X60238Y43623D01*
G01X60262Y43663D01*
G01X60285Y43709D01*
G01X60305Y43760D01*
G01X60322Y43814D01*
G01X60337Y43872D01*
G01X60348Y43931D01*
G01X60355Y43993D01*
G01X60358Y44057D01*
G01X60354Y44132D01*
G01X60344Y44202D01*
G01X60329Y44268D01*
G01X60306Y44329D01*
G01X60278Y44385D01*
G01X60245Y44434D01*
G01X60205Y44477D01*
G01X60161Y44513D01*
G01X60111Y44542D01*
G01X60056Y44563D01*
G01X59997Y44576D01*
G37*

%LPD*%
G36*
G01X60248Y43430D02*
G01X59923Y43435D01*
G01X59923Y43313D01*
G01X60205Y43257D01*
G01X60231Y43193D01*
G01X60247Y43128D01*
G01X60256Y43064D01*
G01X60258Y43000D01*
G01X60256Y42942D01*
G01X60248Y42886D01*
G01X60234Y42833D01*
G01X60215Y42782D01*
G01X60190Y42734D01*
G01X60161Y42689D01*
G01X60126Y42648D01*
G01X60086Y42611D01*
G01X60040Y42577D01*
G01X59990Y42547D01*
G01X59934Y42521D01*
G01X59873Y42499D01*
G01X59806Y42482D01*
G01X59735Y42469D01*
G01X59659Y42462D01*
G01X59578Y42459D01*
G01X59497Y42462D01*
G01X59422Y42470D01*
G01X59351Y42484D01*
G01X59285Y42502D01*
G01X59224Y42525D01*
G01X59168Y42553D01*
G01X59117Y42584D01*
G01X59072Y42620D01*
G01X59031Y42658D01*
G01X58996Y42701D01*
G01X58966Y42746D01*
G01X58941Y42795D01*
G01X58922Y42845D01*
G01X58908Y42899D01*
G01X58900Y42954D01*
G01X58897Y43010D01*
G01X58901Y43066D01*
G01X58911Y43123D01*
G01X58928Y43180D01*
G01X58953Y43237D01*
G01X59237Y43292D01*
G01X59237Y43414D01*
G01X58910Y43409D01*
G01X58881Y43355D01*
G01X58857Y43300D01*
G01X58838Y43245D01*
G01X58824Y43190D01*
G01X58813Y43137D01*
G01X58806Y43085D01*
G01X58802Y43034D01*
G01X58801Y42985D01*
G01X58803Y42921D01*
G01X58810Y42859D01*
G01X58822Y42798D01*
G01X58838Y42740D01*
G01X58858Y42683D01*
G01X58882Y42630D01*
G01X58911Y42579D01*
G01X58943Y42531D01*
G01X58979Y42486D01*
G01X59018Y42444D01*
G01X59062Y42405D01*
G01X59108Y42369D01*
G01X59157Y42338D01*
G01X59209Y42309D01*
G01X59264Y42286D01*
G01X59322Y42265D01*
G01X59383Y42249D01*
G01X59446Y42238D01*
G01X59511Y42231D01*
G01X59578Y42228D01*
G01X59646Y42230D01*
G01X59712Y42237D01*
G01X59776Y42248D01*
G01X59837Y42264D01*
G01X59896Y42283D01*
G01X59951Y42307D01*
G01X60003Y42334D01*
G01X60053Y42365D01*
G01X60099Y42400D01*
G01X60142Y42438D01*
G01X60181Y42480D01*
G01X60217Y42524D01*
G01X60249Y42573D01*
G01X60277Y42623D01*
G01X60301Y42677D01*
G01X60321Y42734D01*
G01X60337Y42793D01*
G01X60348Y42855D01*
G01X60355Y42919D01*
G01X60358Y42985D01*
G01X60356Y43044D01*
G01X60351Y43102D01*
G01X60343Y43159D01*
G01X60332Y43215D01*
G01X60316Y43270D01*
G01X60298Y43324D01*
G01X60275Y43378D01*
G01X60248Y43430D01*
G37*

%LPD*%
G36*
G01X74782Y2360D02*
G01X74782Y3963D01*
G01X75887Y3963D01*
G01X75887Y2360D01*
G01X74782Y2360D01*
G37*
G36*
G01X74782Y9160D02*
G01X74782Y10763D01*
G01X75887Y10763D01*
G01X75887Y9160D01*
G01X74782Y9160D01*
G37*
G36*
G01X77782Y2360D02*
G01X77782Y3963D01*
G01X78887Y3963D01*
G01X78887Y2360D01*
G01X77782Y2360D01*
G37*
G36*
G01X77782Y9160D02*
G01X77782Y10763D01*
G01X78887Y10763D01*
G01X78887Y9160D01*
G01X77782Y9160D01*
G37*
G36*
G01X64495Y2360D02*
G01X64495Y3963D01*
G01X65600Y3963D01*
G01X65600Y2360D01*
G01X64495Y2360D01*
G37*
G36*
G01X64495Y9160D02*
G01X64495Y10763D01*
G01X65600Y10763D01*
G01X65600Y9160D01*
G01X64495Y9160D01*
G37*
G36*
G01X67495Y2360D02*
G01X67495Y3963D01*
G01X68600Y3963D01*
G01X68600Y2360D01*
G01X67495Y2360D01*
G37*
G36*
G01X67495Y9160D02*
G01X67495Y10763D01*
G01X68600Y10763D01*
G01X68600Y9160D01*
G01X67495Y9160D01*
G37*
G36*
G01X15727Y16711D02*
G01X15727Y18314D01*
G01X16832Y18314D01*
G01X16832Y16711D01*
G01X15727Y16711D01*
G37*
G36*
G01X15727Y23511D02*
G01X15727Y25114D01*
G01X16832Y25114D01*
G01X16832Y23511D01*
G01X15727Y23511D01*
G37*
G36*
G01X18727Y16711D02*
G01X18727Y18314D01*
G01X19832Y18314D01*
G01X19832Y16711D01*
G01X18727Y16711D01*
G37*
G36*
G01X18727Y23511D02*
G01X18727Y25114D01*
G01X19832Y25114D01*
G01X19832Y23511D01*
G01X18727Y23511D01*
G37*
G36*
G01X8234Y9218D02*
G01X8234Y10821D01*
G01X9339Y10821D01*
G01X9339Y9218D01*
G01X8234Y9218D01*
G37*
G36*
G01X8234Y16018D02*
G01X8234Y17621D01*
G01X9339Y17621D01*
G01X9339Y16018D01*
G01X8234Y16018D01*
G37*
G36*
G01X11234Y9218D02*
G01X11234Y10821D01*
G01X12339Y10821D01*
G01X12339Y9218D01*
G01X11234Y9218D01*
G37*
G36*
G01X11234Y16018D02*
G01X11234Y17621D01*
G01X12339Y17621D01*
G01X12339Y16018D01*
G01X11234Y16018D01*
G37*
G36*
G01X23347Y9345D02*
G01X23347Y10948D01*
G01X24452Y10948D01*
G01X24452Y9345D01*
G01X23347Y9345D01*
G37*
G36*
G01X23347Y16145D02*
G01X23347Y17748D01*
G01X24452Y17748D01*
G01X24452Y16145D01*
G01X23347Y16145D01*
G37*
G36*
G01X26347Y9345D02*
G01X26347Y10948D01*
G01X27452Y10948D01*
G01X27452Y9345D01*
G01X26347Y9345D01*
G37*
G36*
G01X26347Y16145D02*
G01X26347Y17748D01*
G01X27452Y17748D01*
G01X27452Y16145D01*
G01X26347Y16145D01*
G37*
G36*
G01X15854Y1725D02*
G01X15854Y3328D01*
G01X16959Y3328D01*
G01X16959Y1725D01*
G01X15854Y1725D01*
G37*
G36*
G01X15854Y8525D02*
G01X15854Y10128D01*
G01X16959Y10128D01*
G01X16959Y8525D01*
G01X15854Y8525D01*
G37*
G36*
G01X18854Y1725D02*
G01X18854Y3328D01*
G01X19959Y3328D01*
G01X19959Y1725D01*
G01X18854Y1725D01*
G37*
G36*
G01X18854Y8525D02*
G01X18854Y10128D01*
G01X19959Y10128D01*
G01X19959Y8525D01*
G01X18854Y8525D01*
G37*
G54D21*
G01X47467Y46439D03*
G01X49467Y46439D03*
G01X51467Y46439D03*
G01X53467Y46439D03*
G01X55466Y46439D03*
G01X57466Y46439D03*
G01X59466Y46439D03*
G36*
G01X31369Y47709D02*
G01X31369Y49487D01*
G01X33147Y49487D01*
G01X33147Y47709D01*
G01X31369Y47709D01*
G37*
G54D23*
G01X29718Y48598D03*
G01X27178Y48598D03*
G01X24638Y48598D03*
G01X22098Y48598D03*
G01X19558Y48598D03*
G01X17018Y48598D03*
G01X14478Y48598D03*
G01X11938Y48598D03*
G01X9398Y48598D03*
G01X6858Y48598D03*
G01X4318Y48598D03*
G36*
G01X31496Y32215D02*
G01X31496Y33993D01*
G01X33274Y33993D01*
G01X33274Y32215D01*
G01X31496Y32215D01*
G37*
G01X29845Y33104D03*
G01X27305Y33104D03*
G01X24765Y33104D03*
G01X22225Y33104D03*
G01X19685Y33104D03*
G01X17145Y33104D03*
G01X14605Y33104D03*
G01X12065Y33104D03*
G01X9525Y33104D03*
G01X6985Y33104D03*
G01X4445Y33104D03*
M00*
M02*
